<svg width="168" height="192" viewBox="0 0 168 192" fill="none" xmlns="http://www.w3.org/2000/svg">
<g opacity="0.06">
<path d="M18.2806 183.628C19.1291 178.566 15.7133 173.775 10.6511 172.926C5.58901 172.078 0.797513 175.494 -0.0509728 180.556C-0.899459 185.618 2.5164 190.409 7.57852 191.258C12.6406 192.106 17.4321 188.69 18.2806 183.628Z" fill="#020228"/>
<path d="M22.1736 154.529C22.9334 149.995 19.8745 145.705 15.3413 144.945C10.808 144.185 6.51706 147.244 5.75723 151.777C4.99739 156.31 8.0564 160.601 12.5896 161.361C17.1229 162.121 21.4138 159.062 22.1736 154.529Z" fill="#020228"/>
<path d="M50.2576 159.236C50.9383 155.175 48.198 151.331 44.1369 150.65C40.0759 149.97 36.232 152.71 35.5513 156.771C34.8706 160.832 37.6109 164.676 41.672 165.357C45.733 166.037 49.5769 163.297 50.2576 159.236Z" fill="#020228"/>
<path d="M78.3417 163.943C78.9432 160.355 76.5215 156.958 72.9327 156.356C69.3438 155.754 65.9469 158.176 65.3454 161.765C64.7438 165.354 67.1655 168.751 70.7543 169.352C74.3431 169.954 77.7401 167.532 78.3417 163.943Z" fill="#020228"/>
<path d="M106.426 168.651C106.948 165.534 104.845 162.584 101.728 162.062C98.6118 161.539 95.6618 163.642 95.1395 166.759C94.6171 169.875 96.7201 172.825 99.8367 173.348C102.953 173.87 105.903 171.767 106.426 168.651Z" fill="#020228"/>
<path d="M134.51 173.358C134.953 170.714 133.169 168.211 130.524 167.767C127.88 167.324 125.377 169.108 124.933 171.753C124.49 174.397 126.275 176.9 128.919 177.343C131.563 177.787 134.067 176.002 134.51 173.358Z" fill="#020228"/>
<path d="M162.594 178.065C162.958 175.893 161.492 173.837 159.32 173.473C157.148 173.109 155.092 174.575 154.728 176.747C154.363 178.919 155.829 180.975 158.001 181.339C160.174 181.703 162.23 180.237 162.594 178.065Z" fill="#020228"/>
<path d="M26.0324 125.423C26.7004 121.438 24.0111 117.666 20.0256 116.998C16.0401 116.33 12.2677 119.019 11.5997 123.004C10.9317 126.99 13.621 130.762 17.6065 131.43C21.592 132.098 25.3644 129.409 26.0324 125.423Z" fill="#020228"/>
<path d="M54.2532 130.154C54.8547 126.565 52.4331 123.168 48.8443 122.566C45.2554 121.965 41.8585 124.387 41.2569 127.975C40.6554 131.564 43.0771 134.961 46.6659 135.563C50.2547 136.164 53.6516 133.743 54.2532 130.154Z" fill="#020228"/>
<path d="M82.4398 134.878C82.9717 131.705 80.8304 128.701 77.6571 128.169C74.4839 127.638 71.4803 129.779 70.9484 132.952C70.4165 136.125 72.5578 139.129 75.7311 139.661C78.9043 140.193 81.9079 138.051 82.4398 134.878Z" fill="#020228"/>
<path d="M110.661 139.608C111.126 136.832 109.253 134.204 106.476 133.738C103.699 133.273 101.071 135.146 100.606 137.923C100.14 140.7 102.014 143.328 104.79 143.793C107.567 144.259 110.195 142.385 110.661 139.608Z" fill="#020228"/>
<path d="M138.882 144.339C139.28 141.959 137.674 139.706 135.295 139.307C132.915 138.908 130.662 140.514 130.263 142.894C129.864 145.274 131.47 147.527 133.85 147.926C136.23 148.325 138.483 146.719 138.882 144.339Z" fill="#020228"/>
<path d="M167.068 149.063C167.397 147.099 166.072 145.239 164.107 144.91C162.143 144.581 160.284 145.906 159.954 147.871C159.625 149.835 160.951 151.695 162.915 152.024C164.88 152.353 166.739 151.028 167.068 149.063Z" fill="#020228"/>
<path d="M1.60192 91.5765C2.23828 87.7799 -0.323602 84.1862 -4.1202 83.5499C-7.91679 82.9135 -11.5104 85.4754 -12.1468 89.272C-12.7832 93.0686 -10.2213 96.6622 -6.42468 97.2986C-2.62808 97.935 0.965553 95.3731 1.60192 91.5765Z" fill="#020228"/>
<path d="M29.9253 96.3239C30.5047 92.8673 28.1723 89.5955 24.7157 89.0161C21.2591 88.4367 17.9873 90.7692 17.4079 94.2258C16.8285 97.6824 19.161 100.954 22.6176 101.534C26.0742 102.113 29.3459 99.7805 29.9253 96.3239Z" fill="#020228"/>
<path d="M58.2488 101.071C58.7711 97.9547 56.6681 95.0047 53.5515 94.4823C50.4349 93.96 47.485 96.063 46.9626 99.1796C46.4402 102.296 48.5432 105.246 51.6598 105.769C54.7764 106.291 57.7264 104.188 58.2488 101.071Z" fill="#020228"/>
<path d="M86.5722 105.819C87.0376 103.042 85.164 100.414 82.3874 99.9485C79.6108 99.4831 76.9826 101.357 76.5172 104.133C76.0518 106.91 77.9254 109.538 80.702 110.004C83.4786 110.469 86.1068 108.595 86.5722 105.819Z" fill="#020228"/>
<path d="M114.896 110.566C115.304 108.13 113.66 105.823 111.223 105.415C108.787 105.006 106.48 106.651 106.072 109.087C105.663 111.524 107.308 113.83 109.744 114.239C112.181 114.647 114.487 113.003 114.896 110.566Z" fill="#020228"/>
<path d="M143.219 115.314C143.571 113.217 142.156 111.232 140.059 110.881C137.962 110.53 135.978 111.944 135.627 114.041C135.275 116.138 136.69 118.122 138.786 118.474C140.883 118.825 142.868 117.41 143.219 115.314Z" fill="#020228"/>
<path d="M5.3239 62.4483C5.85579 59.275 3.71449 56.2713 0.541221 55.7394C-2.63205 55.2075 -5.63563 57.3489 -6.16752 60.5221C-6.69941 63.6954 -4.55816 66.699 -1.38489 67.2309C1.78838 67.7628 4.79201 65.6215 5.3239 62.4483Z" fill="#020228"/>
<path d="M33.7842 67.2186C34.2717 64.3097 32.3089 61.5564 29.4001 61.0689C26.4912 60.5813 23.7379 62.5441 23.2503 65.453C22.7628 68.3618 24.7256 71.1151 27.6344 71.6027C30.5432 72.0903 33.2966 70.1274 33.7842 67.2186Z" fill="#020228"/>
<path d="M62.2443 71.989C62.6876 69.3446 60.9033 66.8415 58.2589 66.3983C55.6145 65.955 53.1114 67.7395 52.6682 70.3839C52.2249 73.0283 54.0093 75.5313 56.6537 75.9745C59.2981 76.4177 61.8011 74.6333 62.2443 71.989Z" fill="#020228"/>
<path d="M90.7047 76.7593C91.1036 74.3794 89.4976 72.1266 87.1176 71.7277C84.7377 71.3288 82.4849 72.9348 82.086 75.3147C81.6871 77.6947 83.293 79.9474 85.673 80.3463C88.053 80.7452 90.3057 79.1393 90.7047 76.7593Z" fill="#020228"/>
<path d="M119.131 81.524C119.482 79.4273 118.067 77.4428 115.971 77.0913C113.874 76.7399 111.89 78.1547 111.538 80.2513C111.187 82.3479 112.601 84.3325 114.698 84.6839C116.795 85.0354 118.779 83.6206 119.131 81.524Z" fill="#020228"/>
<path d="M9.08004 33.3258C9.51062 30.7569 7.77722 28.3254 5.20838 27.8949C2.63954 27.4643 0.208071 29.1976 -0.222504 31.7665C-0.653079 34.3353 1.08034 36.7668 3.64918 37.1974C6.21802 37.628 8.64947 35.8946 9.08004 33.3258Z" fill="#020228"/>
<path d="M37.6771 38.119C38.076 35.7391 36.4701 33.4864 34.0901 33.0875C31.7102 32.6885 29.4574 34.2944 29.0585 36.6744C28.6596 39.0543 30.2656 41.3071 32.6456 41.7061C35.0255 42.105 37.2782 40.499 37.6771 38.119Z" fill="#020228"/>
<path d="M66.2399 42.9066C66.604 40.7344 65.1383 38.6784 62.9661 38.3143C60.7939 37.9502 58.7379 39.4159 58.3739 41.588C58.0098 43.7602 59.4755 45.8163 61.6477 46.1804C63.8198 46.5445 65.8758 45.0787 66.2399 42.9066Z" fill="#020228"/>
<path d="M94.8028 47.6941C95.1321 45.7297 93.8065 43.8703 91.8421 43.5411C89.8777 43.2118 88.0183 44.5373 87.6891 46.5018C87.3598 48.4662 88.6853 50.3255 90.6498 50.6548C92.6142 50.9841 94.4735 49.6585 94.8028 47.6941Z" fill="#020228"/>
<path d="M12.8362 4.20329C13.1655 2.23888 11.84 0.379498 9.87556 0.0502347C7.91116 -0.279029 6.05183 1.04648 5.72256 3.01088C5.3933 4.97529 6.71879 6.83471 8.6832 7.16397C10.6476 7.49323 12.507 6.16769 12.8362 4.20329Z" fill="#020228"/>
<path d="M41.5359 9.01375C41.843 7.18156 40.6067 5.44732 38.7745 5.14022C36.9423 4.83311 35.2081 6.06942 34.901 7.90161C34.5939 9.73379 35.8302 11.468 37.6624 11.7751C39.4946 12.0822 41.2288 10.8459 41.5359 9.01375Z" fill="#020228"/>
</g>
</svg>
