<?xml version="1.0" encoding="UTF-8"?>
<svg id="Layer_2" data-name="Layer 2" xmlns="http://www.w3.org/2000/svg" viewBox="0 0 30 24.41">
  <defs>
    <style>
      .cls-1 {
        fill: #f2f1f1;
      }
    </style>
  </defs>
  <g id="Layer_1-2" data-name="Layer 1">
    <path class="cls-1" d="M29.38,11.18L17.07.19c-.62-.36-1.46-.19-1.86.37s-.21,1.31.41,1.67l9.09,8.62H1.15c-.63,0-1.15.6-1.15,1.35s.51,1.35,1.15,1.35h23.56l-9.09,8.62c-.63.36-.81,1.11-.41,1.67.26.36.69.56,1.14.56.25,0,.5-.06.72-.19l12.3-10.99c.39-.22.62-.61.62-1.02s-.24-.8-.62-1.02Z"/>
  </g>
</svg>