<svg width="485" height="485" viewBox="0 0 485 485" fill="none" xmlns="http://www.w3.org/2000/svg">
<path fill-rule="evenodd" clip-rule="evenodd" d="M55.8359 397.309L57.3747 396.031C58.4336 397.307 59.5055 398.571 60.5901 399.824L59.0779 401.133C57.9844 399.87 56.9036 398.595 55.8359 397.309ZM62.3969 404.889L63.8818 403.549C64.9921 404.779 66.1149 405.998 67.25 407.206L65.7929 408.576C64.6484 407.358 63.5163 406.129 62.3969 404.889ZM69.2637 412.192L70.6924 410.793C71.852 411.976 73.0238 413.148 74.2076 414.308L72.808 415.736C71.6144 414.567 70.433 413.386 69.2637 412.192ZM76.4244 419.207L77.7944 417.75C79.0017 418.885 80.2207 420.008 81.4513 421.118L80.1115 422.603C78.8708 421.484 77.6417 420.352 76.4244 419.207ZM83.8671 425.922L85.1761 424.41C86.4291 425.495 87.6933 426.567 88.9688 427.625L87.6912 429.164C86.4052 428.097 85.1305 427.016 83.8671 425.922ZM91.5796 432.326L92.8253 430.761C94.1216 431.793 95.4288 432.812 96.7467 433.817L95.5335 435.407C94.2047 434.394 92.8867 433.366 91.5796 432.326ZM99.5493 438.407L100.73 436.792C102.067 437.77 103.415 438.734 104.773 439.684L103.626 441.323C102.257 440.364 100.898 439.392 99.5493 438.407ZM107.763 444.155L108.876 442.493C110.252 443.414 111.638 444.321 113.034 445.215L111.956 446.899C110.548 445.998 109.151 445.083 107.763 444.155ZM116.207 449.559L117.25 447.852C118.663 448.716 120.085 449.565 121.516 450.399L120.509 452.127C119.065 451.285 117.631 450.429 116.207 449.559ZM124.865 454.608L125.837 452.86C127.284 453.664 128.741 454.454 130.206 455.229L129.271 456.997C127.794 456.216 126.325 455.419 124.865 454.608ZM133.725 459.295L134.624 457.508C136.104 458.252 137.593 458.981 139.09 459.695L138.229 461.501C136.719 460.78 135.218 460.045 133.725 459.295ZM142.772 463.61L143.596 461.787C145.106 462.469 146.624 463.136 148.151 463.788L147.365 465.628C145.826 464.97 144.295 464.298 142.772 463.61ZM151.992 467.546L152.738 465.691C154.275 466.309 155.819 466.912 157.37 467.499L156.662 469.37C155.098 468.778 153.541 468.169 151.992 467.546ZM161.368 471.095L162.037 469.211C163.596 469.764 165.163 470.302 166.737 470.824L166.107 472.722C164.52 472.196 162.94 471.654 161.368 471.095ZM170.887 474.252L171.477 472.341C173.056 472.828 174.642 473.3 176.234 473.756L175.684 475.678C174.078 475.219 172.479 474.744 170.887 474.252ZM180.523 477.008L181.033 475.074C182.631 475.495 184.236 475.901 185.848 476.29L185.378 478.234C183.753 477.842 182.135 477.433 180.523 477.008ZM190.263 479.36L190.692 477.406C192.309 477.761 193.932 478.1 195.561 478.422L195.173 480.384C193.53 480.059 191.894 479.718 190.263 479.36ZM200.094 481.305L200.441 479.335C202.074 479.623 203.712 479.895 205.355 480.149L205.049 482.126C203.392 481.869 201.74 481.595 200.094 481.305ZM210 482.841L210.265 480.859C211.906 481.078 213.551 481.282 215.202 481.468L214.978 483.455C213.313 483.267 211.654 483.062 210 482.841ZM219.965 483.967L220.148 481.975C221.793 482.127 223.443 482.262 225.097 482.38L224.955 484.375C223.287 484.256 221.623 484.12 219.965 483.967ZM229.973 484.682L230.075 482.685C231.721 482.768 233.371 482.836 235.026 482.886L234.965 484.885C233.297 484.834 231.633 484.766 229.973 484.682ZM239.982 484.987L240.003 482.987C240.834 482.996 241.667 483 242.5 483C243.334 483 244.166 482.996 244.997 482.987L245.018 484.987C244.18 484.996 243.34 485 242.5 485C241.66 485 240.82 484.996 239.982 484.987ZM250.035 484.885L249.974 482.886C251.629 482.836 253.279 482.768 254.925 482.685L255.027 484.682C253.367 484.766 251.703 484.834 250.035 484.885ZM260.045 484.375L259.903 482.38C261.557 482.262 263.207 482.127 264.852 481.975L265.035 483.967C263.377 484.12 261.713 484.256 260.045 484.375ZM270.022 483.455L269.798 481.468C271.449 481.282 273.094 481.078 274.735 480.859L275 482.841C273.346 483.062 271.687 483.267 270.022 483.455ZM279.951 482.126C281.608 481.869 283.26 481.595 284.906 481.305L284.559 479.335C282.926 479.623 281.288 479.895 279.645 480.149L279.951 482.126ZM289.827 480.384L289.439 478.422C291.068 478.1 292.691 477.761 294.308 477.406L294.737 479.36C293.106 479.718 291.47 480.059 289.827 480.384ZM299.622 478.234L299.152 476.29C300.764 475.901 302.369 475.495 303.968 475.074L304.477 477.008C302.865 477.433 301.247 477.842 299.622 478.234ZM309.316 475.678L308.766 473.756C310.359 473.3 311.945 472.828 313.524 472.341L314.113 474.252C312.521 474.744 310.922 475.219 309.316 475.678ZM318.893 472.722C320.48 472.196 322.06 471.654 323.632 471.095L322.963 469.211C321.404 469.764 319.837 470.302 318.264 470.824L318.893 472.722ZM328.338 469.37L327.63 467.499C329.182 466.912 330.726 466.309 332.262 465.691L333.009 467.546C331.46 468.169 329.903 468.777 328.338 469.37ZM337.635 465.628L336.849 463.788C338.376 463.136 339.894 462.469 341.405 461.787L342.228 463.61C340.705 464.298 339.174 464.97 337.635 465.628ZM346.771 461.501C348.281 460.78 349.782 460.045 351.275 459.295L350.377 457.508C348.896 458.252 347.407 458.981 345.91 459.695L346.771 461.501ZM355.729 456.997L354.794 455.229C356.259 454.454 357.716 453.664 359.163 452.86L360.135 454.608C358.675 455.419 357.207 456.216 355.729 456.997ZM364.492 452.127C365.935 451.285 367.369 450.429 368.793 449.559L367.75 447.852C366.338 448.715 364.916 449.565 363.484 450.399L364.492 452.127ZM373.045 446.899L371.967 445.214C373.362 444.321 374.748 443.414 376.124 442.493L377.237 444.155C375.85 445.083 374.452 445.998 373.045 446.899ZM381.374 441.322L380.228 439.684C381.586 438.733 382.933 437.769 384.271 436.792L385.451 438.407C384.103 439.392 382.744 440.364 381.374 441.322ZM389.467 435.407L388.254 433.817C389.571 432.812 390.879 431.793 392.175 430.761L393.421 432.326C392.114 433.366 390.796 434.393 389.467 435.407ZM397.309 429.164L396.032 427.625C397.307 426.566 398.571 425.495 399.824 424.41L401.133 425.922C399.87 427.016 398.595 428.096 397.309 429.164ZM404.889 422.603L403.549 421.118C404.78 420.008 405.999 418.885 407.206 417.75L408.576 419.207C407.359 420.352 406.129 421.484 404.889 422.603ZM412.192 415.736L410.793 414.308C411.976 413.148 413.148 411.976 414.308 410.792L415.737 412.192C414.567 413.386 413.386 414.567 412.192 415.736ZM419.207 408.576L417.75 407.206C418.885 405.998 420.008 404.779 421.118 403.549L422.603 404.888C421.484 406.129 420.352 407.358 419.207 408.576ZM425.922 401.133L424.41 399.824C425.495 398.571 426.567 397.307 427.626 396.031L429.164 397.309C428.097 398.595 427.016 399.87 425.922 401.133Z" fill="white"/>
</svg>
