<?xml version="1.0" encoding="utf-8"?>
<!-- Generator: Adobe Illustrator 24.3.0, SVG Export Plug-In . SVG Version: 6.00 Build 0)  -->
<svg version="1.1" id="Layer_1" xmlns="http://www.w3.org/2000/svg" xmlns:xlink="http://www.w3.org/1999/xlink" x="0px" y="0px"
	 viewBox="0 0 61 61" style="enable-background:new 0 0 61 61;" xml:space="preserve">
<style type="text/css">
	.st0{fill:#FFFFFF;}
</style>
<circle cx="30.5" cy="30.5" r="30.5"/>
<path class="st0" d="M28.5,43.9L25.4,43c-0.4-0.1-0.6-0.5-0.5-0.7L32,17.7c0.1-0.4,0.5-0.6,0.7-0.5l3.1,0.9c0.4,0.1,0.6,0.5,0.5,0.7
	l-7.1,24.6C29.1,43.8,28.8,44.1,28.5,43.9z M22.5,38.1l2.3-2.4c0.3-0.3,0.2-0.6,0-0.9l-4.7-4.2l4.7-4.2c0.3-0.3,0.3-0.6,0-0.9
	l-2.3-2.4c-0.3-0.3-0.6-0.3-0.9,0l-7.5,7c-0.3,0.3-0.3,0.6,0,0.9l7.5,7C21.8,38.4,22.3,38.4,22.5,38.1L22.5,38.1z M39.6,38.1l7.5-7
	c0.3-0.3,0.3-0.6,0-0.9l-7.5-7c-0.3-0.3-0.6-0.2-0.9,0l-2.2,2.4c-0.3,0.3-0.2,0.6,0,0.9l4.7,4.2l-4.7,4.2c-0.3,0.3-0.3,0.6,0,0.9
	l2.3,2.4C38.9,38.4,39.3,38.4,39.6,38.1L39.6,38.1z"/>
</svg>
