<?xml version="1.0" encoding="UTF-8"?>
<svg id="Layer_1" data-name="Layer 1" xmlns="http://www.w3.org/2000/svg" viewBox="0 0 199.48 1313.33">
  <defs>
    <style>
      .cls-1 {
        fill: #fff;
      }
    </style>
  </defs>
  <g>
    <path class="cls-1" d="M163.01,0v451.25c-3.54-2.02-7.64-3.16-12-3.16s-8.46,1.14-12,3.16V0h24Z"/>
    <path class="cls-1" d="M163.01,493.87v66.14c-3.54-2.02-7.64-3.16-12-3.16s-8.46,1.14-12,3.16v-66.14c3.54,2.02,7.64,3.16,12,3.16s8.46-1.14,12-3.16Z"/>
    <path class="cls-1" d="M151.01,605.79c4.36,0,8.46-1.14,12-3.16v710.7h-24v-710.7c3.54,2.02,7.64,3.16,12,3.16Z"/>
  </g>
  <path class="cls-1" d="M67.02,478.02c-3.84-.99-7.86-1.51-12-1.51s-8.16.52-12,1.51c-20.94,5.35-36.47,24.37-36.47,46.96s15.53,41.61,36.47,46.96c3.84.99,7.86,1.51,12,1.51s8.16-.52,12-1.51c20.93-5.35,36.46-24.37,36.46-46.96s-15.53-41.61-36.46-46.96ZM67.02,546.29c-3.55,2.01-7.64,3.16-12,3.16s-8.46-1.14-12-3.16c-7.44-4.19-12.47-12.18-12.47-21.31s5.03-17.12,12.47-21.31c3.54-2.02,7.64-3.16,12-3.16s8.45,1.15,12,3.16c7.44,4.2,12.46,12.18,12.46,21.31s-5.02,17.11-12.46,21.31Z"/>
  <path class="cls-1" d="M163.01,425.6c-3.84-.99-7.86-1.51-12-1.51s-8.16.52-12,1.51c-20.94,5.35-36.47,24.38-36.47,46.96s15.53,41.62,36.47,46.97c3.84.98,7.86,1.5,12,1.5s8.16-.52,12-1.51c20.94-5.35,36.47-24.37,36.47-46.96s-15.53-41.61-36.47-46.96ZM163.01,493.87c-3.54,2.02-7.64,3.16-12,3.16s-8.46-1.14-12-3.16c-7.44-4.19-12.47-12.18-12.47-21.31s5.03-17.12,12.47-21.31c3.54-2.02,7.64-3.16,12-3.16s8.46,1.14,12,3.16c7.44,4.2,12.47,12.18,12.47,21.31s-5.03,17.11-12.47,21.31Z"/>
  <g>
    <path class="cls-1" d="M67.02,0v503.67c-3.55-2.01-7.64-3.16-12-3.16s-8.46,1.14-12,3.16V0h24Z"/>
    <path class="cls-1" d="M55.02,549.45c4.36,0,8.45-1.15,12-3.16v767.04h-24v-767.04c3.54,2.02,7.64,3.16,12,3.16Z"/>
  </g>
  <path class="cls-1" d="M163.01,534.36c-3.84-.99-7.86-1.51-12-1.51s-8.16.52-12,1.51c-20.94,5.34-36.47,24.37-36.47,46.96,0,.93.03,1.86.08,2.79l-95.64,44.1c-4.26,1.96-6.98,6.21-6.98,10.9v674.22h24v-666.54l86.01-39.66c6.54,10.34,16.86,18.05,29,21.15,3.84.99,7.86,1.51,12,1.51s8.16-.52,12-1.51c20.94-5.35,36.47-24.38,36.47-46.96s-15.53-41.61-36.47-46.96ZM163.01,602.63c-3.54,2.02-7.64,3.16-12,3.16s-8.46-1.14-12-3.16c-7.44-4.19-12.47-12.18-12.47-21.31s5.03-17.12,12.47-21.31c3.54-2.02,7.64-3.16,12-3.16s8.46,1.14,12,3.16c7.44,4.2,12.47,12.18,12.47,21.31s-5.03,17.11-12.47,21.31Z"/>
</svg>