<?xml version="1.0" encoding="UTF-8"?>
<svg id="Layer_2" data-name="Layer 2" xmlns="http://www.w3.org/2000/svg" viewBox="0 0 333.87 283">
  <defs>
    <style>
      .cls-1 {
        fill: #f1f1f1;
      }
    </style>
  </defs>
  <g id="Layer_2-2" data-name="Layer 2">
    <path class="cls-1" d="M333.87,123.9c0-27.52-23.35-50.17-50.87-50.21V10.08c0-5.56-4.52-10.08-10.08-10.08H10.08C4.52,0,0,4.52,0,10.08v262.84c0,5.56,4.52,10.08,10.08,10.08h262.84c5.56,0,10.08-4.52,10.08-11.13v-98.55c27.52-.03,50.87-21.89,50.87-49.42ZM190.79,43.54c4.75,0,9.22,1.24,13.08,3.44,8.1,4.57,13.58,13.26,13.58,23.2s-5.48,18.63-13.58,23.2c-3.86,2.2-8.33,3.44-13.08,3.44s-9.21-1.24-13.07-3.44l-.75-.44c-7.69-4.66-12.83-12.82-12.83-22.76s5.47-18.64,13.57-23.2l.73-.4c3.68-1.95,7.89-3.04,12.34-3.04h.01ZM101.75,14.8h77.46v7.17h-.88c-21.45,5.54-37.35,25.02-37.35,48.22s15.96,42.76,37.47,48.26l.75.19v17.1l-.75.19c-21.51,5.49-37.47,25.04-37.47,48.25,0,.95.03,1.91.08,2.87l.03.68-.61.28-37.31,17.2-1.42.66v-32.3l.75-.19c21.51-5.5,37.46-25.04,37.46-48.25s-15.96-42.75-37.46-48.25l-.75-.19V14.8ZM78.59,266.16h-21.93v-14l.58-.27,19.93-9.19h0s1.42-.66,1.42-.66v24.12ZM78.58,173.58v42.97l-.58.27-37.77,17.42-.38.18c-3.89,1.96-6.35,5.95-6.35,10.33v21.41H15.82V14.8h62.77v61.89l-.75.19c-21.51,5.5-37.47,25.04-37.47,48.25s15.96,42.75,37.47,48.25l.75.19h0ZM77.09,148.32l-.75-.44c-7.69-4.66-12.83-13.13-12.83-22.76s5.48-18.64,13.58-23.2l.73-.4c3.68-1.95,7.89-3.04,12.34-3.04,4.75,0,9.2,1.25,13.07,3.44l.75.44c7.69,4.67,12.82,12.82,12.82,22.76s-5.47,18.63-13.57,23.2c-3.86,2.19-8.32,3.44-13.07,3.44s-9.21-1.24-13.07-3.44ZM179.21,266.18h-77.46v-34.8l.58-.27,45.06-20.78.79-.37.47.74c6.72,10.62,17.33,18.55,29.8,21.73l.75.19v.02s0,33.54,0,33.54ZM177.72,207.38l-.75-.44c-7.69-4.66-12.83-12.82-12.83-22.76s5.47-18.64,13.57-23.2l.73-.4c3.68-1.95,7.89-3.04,12.34-3.04h.01c4.75,0,9.22,1.24,13.08,3.44,8.1,4.57,13.58,13.26,13.58,23.2s-5.48,18.63-13.58,23.2c-3.86,2.2-8.34,3.44-13.08,3.44s-9.21-1.24-13.07-3.44ZM267.18,266.15h-64.83v-33.54l.75-.19c21.51-5.5,37.47-25.05,37.47-48.25s-15.96-42.75-37.47-48.25l-.75-.19v-17.11l.75-.19c21.51-5.5,37.47-25.04,37.47-48.25s-15.96-42.75-37.47-48.25l-.75-.19v-6.95h64.83v251.36ZM283,158.82v-70.98.09s0,0,0,0c19.41.25,35.19,16.41,34.98,35.83-.21,19.27-15.78,35.01-34.98,35.07Z"/>
  </g>
</svg>