<?xml version="1.0" encoding="UTF-8"?>
<svg id="Layer_2" data-name="Layer 2" xmlns="http://www.w3.org/2000/svg" viewBox="0 0 285 285">
  <defs>
    <style>
      .cls-1 {
        fill: none;
        stroke: #f1f1f1;
        stroke-width: 2px;
      }
    </style>
  </defs>
  <g id="Layer_1-2" data-name="Layer 1">
    <path class="cls-1" d="M11.08,1h262.84c5.56,0,10.08,4.52,10.08,10.08v262.84c0,5.56-4.52,10.08-10.08,10.08H11.08c-5.56,0-10.08-4.52-10.08-10.08V11.08C1,5.52,5.52,1,11.08,1ZM78.17,244.72l-19.93,9.19-.58.27v14h21.93v-24.12l-1.42.65ZM203.35,23.76l.75.19c21.51,5.5,37.47,25.04,37.47,48.25s-15.96,42.75-37.47,48.25l-.75.19v17.11l.75.19c21.51,5.5,37.47,25.05,37.47,48.25s-15.96,42.75-37.47,48.25l-.75.19v33.54h64.83V16.81h-64.83v6.95ZM191.78,159.56c-4.45,0-8.66,1.09-12.34,3.04l-.73.4c-8.1,4.56-13.57,13.26-13.57,23.2s5.14,18.1,12.83,22.76l.75.44c3.86,2.2,8.33,3.44,13.07,3.44s9.22-1.24,13.08-3.44h0c8.1-4.57,13.58-13.26,13.58-23.2s-5.48-18.63-13.58-23.2h0c-3.86-2.2-8.33-3.44-13.08-3.44ZM91.16,100.5c-4.45,0-8.66,1.09-12.34,3.04l-.73.4c-8.1,4.56-13.58,13.26-13.58,23.2,0,9.63,5.14,18.1,12.83,22.76l.75.44c3.86,2.2,8.32,3.44,13.07,3.44s9.21-1.25,13.07-3.44h0c8.1-4.57,13.57-13.26,13.57-23.2s-5.13-18.09-12.82-22.76l-.75-.44c-3.87-2.19-8.32-3.44-13.07-3.44ZM191.78,45.56c-4.45,0-8.66,1.09-12.34,3.04l-.73.4c-8.1,4.56-13.57,13.26-13.57,23.2s5.14,18.1,12.83,22.76l.75.44c3.86,2.2,8.33,3.44,13.07,3.44,4.75,0,9.22-1.24,13.08-3.44h0c8.1-4.57,13.58-13.26,13.58-23.2s-5.48-18.63-13.58-23.2h0c-3.86-2.2-8.33-3.44-13.08-3.44ZM180.2,234.64l-.75-.19c-12.47-3.18-23.08-11.11-29.8-21.73l-.47-.74-.79.37-45.06,20.78-.58.27v34.8h77.46v-33.54ZM79.59,175.59l-.75-.19c-21.51-5.5-37.47-25.04-37.47-48.25,0-23.21,15.96-42.75,37.47-48.25l.75-.19V16.82H16.82v251.36h17.68v-21.41c0-4.38,2.46-8.37,6.35-10.33l.38-.18h0l37.77-17.42.58-.27v-42.97ZM180.2,120.66l-.75-.19c-21.51-5.5-37.47-25.06-37.47-48.26s15.9-42.68,37.35-48.22h.88v-7.17h-77.46v61.89l.75.19c21.5,5.5,37.46,25.04,37.46,48.25s-15.95,42.75-37.46,48.25l-.75.19v32.3l1.42-.66,37.31-17.2.61-.28-.03-.68c-.05-.96-.08-1.92-.08-2.87,0-23.21,15.96-42.76,37.47-48.25l.75-.19v-17.1Z"/>
  </g>
</svg>