<?xml version="1.0" encoding="UTF-8"?>
<svg id="Layer_2" data-name="Layer 2" xmlns="http://www.w3.org/2000/svg" viewBox="0 0 3000 430.42">
  <defs>
    <style>
      .cls-1 {
        fill: #f1f1f1;
        opacity: .88;
      }
    </style>
  </defs>
  <g id="Layer_2-2" data-name="Layer 2">
    <g id="Layer_2-2" data-name="Layer 2-2">
      <g id="Layer_1-2" data-name="Layer 1-2">
        <path class="cls-1" d="M66.12,95.45c52.08,4.54,64.66,9.21,95.72,8.69,23.38-.39,24.32-3.51,93.49-17.55,71.33-14.48,99.42-16.69,126.58-16.7,30.74-.02,47.26,3.21,60.31,7.37,29.26,9.33,27.37,19.02,49.04,26.52,44.37,15.36,72.99-18.06,137.85-10.32,27.39,3.27,39.89,3.77,64.9,4.78,9.75.39,17.6-.07,21.05-.32,2.51-.18,4.75-.39,6.68-.6,0,0,19.92-1.48,39.41-5.29,53.89-10.57,82.77-26.33,107.78-36.38,83.07-33.37,213.95-30.98,266.97-5.4,5.8,2.8,23.43,12.03,51.14,20.14,13.73,4.02,32.4,9.35,58.22,10.81,4.42.25,24.76,1.27,53.5-2.95,27.57-4.05,40.33-9.6,66.09-17.19,42.9-12.63,68.72-20.24,101.49-20.63,38.18-.45,54.45,10.45,92.05,19.65,82.73,20.24,166.16,5.57,200.62-.49,105.1-18.48,101.79-51.31,188.03-58.45,64.51-5.33,119.47,8.97,169.94,22.1,64.4,16.76,80.58,31.24,118.8,43.94,23.38,7.77,36.06,10.84,50.35,12.53,46.15,5.49,69.95-7.39,131.37-16.67,18.75-2.83,66.83-9.87,121.44-6.9,71.01,3.86,69.73,20.11,127.98,22.92,87.44,4.23,117.42-31.06,179.38-15.71,29.92,7.42,31.64,17.8,70.28,24.22,35.85,5.96,83.42,4.58,83.42,4.58v338.27H0V92.15c34.79-.02,52.33,2.1,66.12,3.31h0Z"/>
      </g>
    </g>
  </g>
</svg>