<?xml version="1.0" encoding="utf-8"?>
<!-- Generator: Adobe Illustrator 24.3.0, SVG Export Plug-In . SVG Version: 6.00 Build 0)  -->
<svg version="1.1" id="Layer_1" xmlns="http://www.w3.org/2000/svg" xmlns:xlink="http://www.w3.org/1999/xlink" x="0px" y="0px"
	 viewBox="0 0 61 61" style="enable-background:new 0 0 61 61;" xml:space="preserve">
<style type="text/css">
	.st0{fill:#FFFFFF;}
</style>
<circle cx="30.5" cy="30.5" r="30.5"/>
<path class="st0" d="M26,41.6c0,0.4,0.1,0.7,0.3,1l1,1.4c0.3,0.5,0.9,0.8,1.5,0.8h3.4c0.6,0,1.2-0.3,1.5-0.8l1-1.4
	c0.2-0.3,0.3-0.6,0.3-1v-2.1h-9C26,39.4,26,41.6,26,41.6z M20.7,26c0,2.5,0.9,4.7,2.4,6.5c0.9,1.1,2.4,3.3,2.9,5.1l0,0h9l0,0
	c0.6-1.9,2-4.1,2.9-5.1c1.5-1.7,2.4-4,2.4-6.5c0-5.4-4.4-9.8-9.9-9.8C24.8,16.2,20.7,20.8,20.7,26z M30.5,21.6c-2.5,0-4.5,2-4.5,4.5
	c0,0.5-0.4,0.9-0.9,0.9s-0.9-0.4-0.9-0.9c0-3.4,2.8-6.3,6.3-6.3c0.5,0,0.9,0.4,0.9,0.9C31.4,21.2,31,21.6,30.5,21.6z"/>
</svg>
