<?xml version="1.0" encoding="utf-8"?>
<!-- Generator: Adobe Illustrator 24.3.0, SVG Export Plug-In . SVG Version: 6.00 Build 0)  -->
<svg version="1.1" id="Layer_1" xmlns="http://www.w3.org/2000/svg" xmlns:xlink="http://www.w3.org/1999/xlink" x="0px" y="0px"
	 viewBox="0 0 61 61" style="enable-background:new 0 0 61 61;" xml:space="preserve">
<style type="text/css">
	.st0{fill:#FFFFFF;}
</style>
<circle cx="30.5" cy="30.5" r="30.5"/>
<path class="st0" d="M43,41l-5.3-5.3c-0.2-0.2-0.6-0.4-0.9-0.4h-0.9c1.5-1.9,2.3-4.2,2.3-6.8c0-6.1-4.9-11-11-11s-11,4.9-11,11
	s4.9,11,11,11c2.6,0,4.9-0.9,6.8-2.3v0.9c0,0.3,0.1,0.7,0.4,0.9l5.3,5.3c0.5,0.5,1.3,0.5,1.8,0l1.5-1.5C43.5,42.3,43.5,41.5,43,41z
	 M27.2,35.4c-3.7,0-6.8-3-6.8-6.8c0-3.7,3-6.8,6.8-6.8c3.7,0,6.8,3,6.8,6.8C34,32.3,31,35.4,27.2,35.4z"/>
</svg>
