<?xml version="1.0" encoding="UTF-8"?>
<svg id="Layer_2" data-name="Layer 2" xmlns="http://www.w3.org/2000/svg" viewBox="0 0 307.22 230.64">
  <defs>
    <style>
      .cls-1 {
        stroke-width: 9px;
      }

      .cls-1, .cls-2 {
        fill: none;
        stroke: #f2f1f1;
        stroke-miterlimit: 10;
      }

      .cls-2 {
        stroke-linecap: round;
        stroke-width: 6px;
      }

      .cls-3 {
        fill: #f2f1f1;
      }
    </style>
  </defs>
  <g id="Layer_2-2" data-name="Layer 2">
    <rect class="cls-1" x="4.5" y="4.5" width="298.22" height="173.3" rx="12.22" ry="12.22"/>
    <g>
      <path class="cls-3" d="M69.68,128.24c-3.36,0-6.3-.52-8.82-1.55s-4.65-2.58-6.37-4.62c-1.73-2.04-3.02-4.58-3.89-7.6-.86-3.02-1.3-6.5-1.3-10.42v-32.84c0-1.18.25-2.06.76-2.65.5-.59,1.24-.88,2.2-.88s1.69.29,2.2.88c.5.59.76,1.47.76,2.65v32.51c0,6.16,1.22,10.77,3.67,13.82,2.45,3.05,6.05,4.58,10.8,4.58s8.33-1.53,10.73-4.58c2.4-3.05,3.6-7.66,3.6-13.82v-32.51c0-1.18.26-2.06.79-2.65.53-.59,1.27-.88,2.23-.88s1.62.29,2.12.88c.5.59.76,1.47.76,2.65v32.84c0,5.21-.76,9.63-2.27,13.27-1.51,3.64-3.78,6.37-6.81,8.19-3.03,1.82-6.75,2.73-11.16,2.73Z"/>
      <path class="cls-3" d="M105.05,128.07c-.96,0-1.69-.32-2.2-.97s-.76-1.53-.76-2.65v-53.17c0-1.18.25-2.07.76-2.69.5-.62,1.24-.92,2.2-.92s1.69.31,2.2.92c.5.62.76,1.51.76,2.69v53.17c0,1.12-.24,2-.72,2.65-.48.64-1.22.97-2.23.97Z"/>
    </g>
    <g>
      <path class="cls-3" d="M203.03,128.58c-3.36,0-6.29-.52-8.81-1.55-2.52-1.04-4.64-2.58-6.37-4.62-1.73-2.04-3.02-4.58-3.88-7.6-.86-3.02-1.29-6.5-1.29-10.42v-32.84c0-1.18.25-2.06.76-2.65.5-.59,1.23-.88,2.19-.88s1.69.29,2.19.88c.5.59.76,1.47.76,2.65v32.51c0,6.16,1.22,10.77,3.67,13.82,2.45,3.05,6.04,4.58,10.79,4.58s8.32-1.53,10.72-4.58c2.4-3.05,3.6-7.66,3.6-13.82v-32.51c0-1.18.26-2.06.79-2.65.53-.59,1.27-.88,2.23-.88s1.62.29,2.12.88c.5.59.76,1.47.76,2.65v32.84c0,5.21-.76,9.63-2.27,13.27-1.51,3.64-3.78,6.37-6.8,8.19-3.02,1.82-6.74,2.73-11.15,2.73Z"/>
      <path class="cls-3" d="M234.11,128.41c-.82,0-1.47-.25-1.98-.76s-.79-1.12-.86-1.85c-.07-.73.15-1.46.68-2.18l17.41-27.38v2.6l-16.4-25.87c-.53-.84-.77-1.62-.72-2.35.05-.73.32-1.34.83-1.85.5-.5,1.12-.76,1.83-.76.67,0,1.25.17,1.73.5.48.34.98.92,1.51,1.76l14.75,23.6h-1.87l14.67-23.6c.48-.84.96-1.43,1.44-1.76.48-.34,1.05-.5,1.73-.5.77,0,1.4.24,1.91.71.5.48.78,1.09.83,1.85.05.76-.19,1.55-.72,2.39l-16.4,25.87v-2.6l17.41,27.38c.48.73.68,1.46.61,2.18-.07.73-.35,1.34-.83,1.85-.48.5-1.13.76-1.94.76-.62,0-1.19-.18-1.69-.55s-1.02-.94-1.55-1.72l-15.75-25.12h2.3l-15.75,25.12c-.48.79-.98,1.36-1.51,1.72-.53.36-1.08.55-1.65.55Z"/>
    </g>
    <rect class="cls-3" x="140.67" y="173.97" width="25.35" height="37.78"/>
    <path class="cls-3" d="M108.72,209.46h89.79c10.9,0,19.74,8.85,19.74,19.74h0c0,.8-.65,1.44-1.44,1.44h-126.38c-.8,0-1.44-.65-1.44-1.44h0c0-10.9,8.85-19.74,19.74-19.74Z"/>
    <line class="cls-2" x1="153.61" y1="34.2" x2="153.61" y2="158.13"/>
    <path class="cls-3" d="M109.77,139.59c-.84,0-1.54-.31-2.1-.93-.56-.62-.84-1.36-.84-2.21s.24-1.59.71-2.21c.48-.62,1.11-.93,1.89-.93h4.2c1.18,0,2.07-.36,2.69-1.08s.92-1.83.92-3.34v-22.47c0-1.96.34-3.74,1.01-5.35.67-1.6,1.57-2.86,2.69-3.78,1.12-.92,2.44-1.37,3.95-1.37v.39c-1.51,0-2.83-.46-3.95-1.37-1.12-.92-2.02-2.17-2.69-3.78-.67-1.6-1.01-3.39-1.01-5.35v-22.37c0-1.5-.31-2.62-.92-3.34-.62-.72-1.51-1.08-2.69-1.08h-4.2c-.78,0-1.41-.31-1.89-.93-.48-.62-.71-1.36-.71-2.21,0-.91.28-1.67.84-2.26.56-.59,1.26-.88,2.1-.88h5.8c2.74,0,4.84.85,6.3,2.55,1.46,1.7,2.18,4.19,2.18,7.46v22.27c0,2.68.46,4.65,1.39,5.89.92,1.24,2.56,1.9,4.91,1.96.73.07,1.32.39,1.76.98.45.59.67,1.34.67,2.26,0,.85-.22,1.6-.67,2.26-.45.65-1.04.98-1.76.98-2.35.07-3.99.72-4.91,1.96-.92,1.24-1.39,3.24-1.39,5.99v22.27c0,2.16-.32,3.99-.97,5.5-.64,1.5-1.6,2.63-2.86,3.39-1.26.75-2.81,1.13-4.66,1.13h-5.8Z"/>
    <path class="cls-3" d="M46.36,139.59c.84,0,1.54-.31,2.1-.93.56-.62.84-1.36.84-2.21s-.24-1.59-.71-2.21c-.48-.62-1.11-.93-1.89-.93h-4.2c-1.18,0-2.07-.36-2.69-1.08s-.92-1.83-.92-3.34v-22.47c0-1.96-.34-3.74-1.01-5.35-.67-1.6-1.57-2.86-2.69-3.78-1.12-.92-2.44-1.37-3.95-1.37v.39c1.51,0,2.83-.46,3.95-1.37,1.12-.92,2.02-2.17,2.69-3.78.67-1.6,1.01-3.39,1.01-5.35v-22.37c0-1.5.31-2.62.92-3.34.62-.72,1.51-1.08,2.69-1.08h4.2c.78,0,1.41-.31,1.89-.93.48-.62.71-1.36.71-2.21,0-.91-.28-1.67-.84-2.26-.56-.59-1.26-.88-2.1-.88h-5.8c-2.74,0-4.84.85-6.3,2.55-1.46,1.7-2.18,4.19-2.18,7.46v22.27c0,2.68-.46,4.65-1.39,5.89-.92,1.24-2.56,1.9-4.91,1.96-.73.07-1.32.39-1.76.98-.45.59-.67,1.34-.67,2.26,0,.85.22,1.6.67,2.26.45.65,1.04.98,1.76.98,2.35.07,3.99.72,4.91,1.96.92,1.24,1.39,3.24,1.39,5.99v22.27c0,2.16.32,3.99.97,5.5.64,1.5,1.6,2.63,2.86,3.39,1.26.75,2.81,1.13,4.66,1.13h5.8Z"/>
    <path class="cls-3" d="M171.67,138.31c-.84,0-1.55-.33-2.14-.98-.59-.65-.88-1.47-.88-2.45V54.9c0-.98.29-1.8.88-2.45.59-.65,1.3-.98,2.14-.98h11.42c.84,0,1.51.29,2.02.88s.76,1.34.76,2.26c0,.85-.25,1.59-.76,2.21-.5.62-1.18.93-2.02.93h-7.64v74.28h7.64c.84,0,1.51.31,2.02.93.5.62.76,1.36.76,2.21s-.25,1.59-.76,2.21c-.5.62-1.18.93-2.02.93h-11.42Z"/>
    <path class="cls-3" d="M283.65,141.29c.84,0,1.55-.33,2.14-.98.59-.65.88-1.47.88-2.45V57.88c0-.98-.29-1.8-.88-2.45-.59-.65-1.3-.98-2.14-.98h-11.42c-.84,0-1.51.29-2.02.88s-.76,1.34-.76,2.26c0,.85.25,1.59.76,2.21.5.62,1.18.93,2.02.93h7.64v74.28h-7.64c-.84,0-1.51.31-2.02.93-.5.62-.76,1.36-.76,2.21s.25,1.59.76,2.21c.5.62,1.18.93,2.02.93h11.42Z"/>
  </g>
</svg>