<?xml version="1.0" encoding="utf-8"?>
<!-- Generator: Adobe Illustrator 24.3.0, SVG Export Plug-In . SVG Version: 6.00 Build 0)  -->
<svg version="1.1" id="Layer_1" xmlns="http://www.w3.org/2000/svg" xmlns:xlink="http://www.w3.org/1999/xlink" x="0px" y="0px"
	 viewBox="0 0 61 61" style="enable-background:new 0 0 61 61;" xml:space="preserve">
<style type="text/css">
	.st0{fill:#FFFFFF;}
</style>
<circle cx="30.5" cy="30.5" r="30.5"/>
<path class="st0" d="M24,30.5l6.4-6.4L28.3,22l-2.9,2.9c-0.1,0.1-0.4,0.1-0.5,0l0,0l-0.5-0.5c-0.1-0.1-0.1-0.4,0-0.5l2.9-2.9
	l-1.6-1.6c-0.6-0.6-1.5-0.6-2.1,0l-4.3,4.3c-0.6,0.6-0.6,1.5,0,2.1L24,30.5L24,30.5z M42.5,24.9c0.9-0.9,0.9-2.3,0-3.2l-2.2-2.2
	c-0.9-0.9-2.3-0.9-3.2,0l-2.2,2.2l5.4,5.4L42.5,24.9L42.5,24.9z M33.8,22.8L19.7,37l-0.9,5.1c-0.1,0.7,0.5,1.3,1.2,1.2l5.1-0.9
	l14.2-14.2L33.8,22.8z M42.7,36.4l-1.6-1.6l-2.9,2.9c-0.1,0.1-0.4,0.1-0.5,0l-0.5-0.5c-0.1-0.1-0.1-0.4,0-0.5l2.9-2.9L38,31.7
	L31.5,38l4.8,4.8c0.6,0.6,1.5,0.6,2.1,0l4.3-4.3C43.3,38,43.3,37,42.7,36.4L42.7,36.4z"/>
</svg>
