<?xml version="1.0" encoding="UTF-8"?>
<svg viewBox="0 0 18 18" version="1.1" xmlns="http://www.w3.org/2000/svg" xmlns:xlink="http://www.w3.org/1999/xlink">
  <g stroke="none" stroke-width="1" fill="none" fill-rule="evenodd">
    <path d="M8.98322446,14.4154295 C7.65935429,14.4154295 6.58585891,13.3419341 6.58585891,12.018064 C6.58585891,10.6931192 7.65935429,9.62069843 8.98322446,9.62069843 C10.3070946,9.62069843 11.38059,10.6931192 11.38059,12.018064 C11.38059,13.3419341 10.3070946,14.4154295 8.98322446,14.4154295 Z M2.8055422,8.23774726 C1.48167203,8.23774726 0.408176656,7.16425189 0.408176656,5.84038172 C0.408176656,4.51543698 1.48167203,3.44301617 2.8055422,3.44301617 C4.12941237,3.44301617 5.20290775,4.51543698 5.20290775,5.84038172 C5.20290775,7.16425189 4.12941237,8.23774726 2.8055422,8.23774726 Z M15.1451734,8.25348054 C13.8213033,8.25348054 12.7478079,7.17998516 12.7478079,5.85611499 C12.7478079,4.53117025 13.8213033,3.45874944 15.1451734,3.45874944 C16.4690436,3.45874944 17.542539,4.53117025 17.542539,5.85611499 C17.542539,7.17998516 16.4690436,8.25348054 15.1451734,8.25348054 Z" id="Combined-Shape" fill="#FFB400"></path>
    <path d="M5.07608814,12.0202131 C5.07608814,13.3440833 4.00474191,14.4154295 2.68087174,14.4154295 C1.35700156,14.4154295 0.285655329,13.3440833 0.285655329,12.0202131 C0.285655329,10.6974175 1.35700156,9.62499671 2.68087174,9.62499671 C4.88588926,9.62499671 6.58800805,7.92287792 6.58800805,5.71786039 C6.58800805,4.39399022 7.65935429,3.32264398 8.98429903,3.32264398 C10.3070946,3.32264398 11.3784409,4.39399022 11.3784409,5.71786039 C11.3784409,7.92287792 13.2062843,9.62499671 15.2866518,9.62499671 C16.6094474,9.62499671 17.6807936,10.6974175 17.6807936,12.0202131 C17.6807936,13.3440833 16.6094474,14.4154295 15.2866518,14.4154295 C13.9627816,14.4154295 12.8903608,13.3440833 12.8903608,12.0202131 C12.8903608,9.9398457 11.1893166,8.1130768 8.98429903,8.1130768 C6.90285705,8.1130768 5.07608814,9.9398457 5.07608814,12.0202131 Z" id="Path" fill="#2C2B2B"></path>
  </g>
</svg>
