<svg version="1.1" id="Layer_1" xmlns:x="ns_extend;" xmlns:i="ns_ai;" xmlns:graph="ns_graphs;" xmlns="http://www.w3.org/2000/svg" xmlns:xlink="http://www.w3.org/1999/xlink" x="0px" y="0px" viewBox="0 0 475.6 141.6" style="enable-background:new 0 0 475.6 141.6;" xml:space="preserve">
 <style type="text/css">
  .st0{fill:#03004A;}
	.st1{fill:#3573F6;}
	.st2{fill:#0F1BF5;}
 </style>
 <metadata>
  <sfw xmlns="ns_sfw;">
   <slices>
   </slices>
   <sliceSourceBounds bottomLeftOrigin="true" height="141.6" width="475.6" x="-37.3" y="-271">
   </sliceSourceBounds>
  </sfw>
 </metadata>
 <g>
  <path class="st0" d="M0,70.8l70.8,70.8V70.8H0">
  </path>
  <path class="st1" d="M70.8,0v70.8h70.8L70.8,0">
  </path>
  <path class="st2" d="M70.8,70.8v70.8l70.8-70.8H70.8">
  </path>
  <path class="st1" d="M168.4,98.7V41.8h41.9v11h-27.6v10.4h25.8v11h-25.8v13.4h30v11L168.4,98.7 M234.1,64.2
		c-5.9,0-8.6,5.1-8.6,13.3c0,7,1.6,13.3,8.6,13.3c6.4,0,8.7-6,8.7-14.1C242.8,69,240.6,64.2,234.1,64.2 M255.3,98.7h-12v-4.2h-0.2
		c-2.8,3.4-7,5.4-11.4,5.3c-10.2,0-18.4-6.6-18.6-22c-0.2-16.9,9.5-22.7,18.1-22.7c4.4-0.2,8.6,1.4,11.7,4.5V41.8h12.4V98.7z
		 M288.5,72.3c0.1-4.4-3.4-8.1-7.8-8.2h-0.1h-0.5c-4.5,0.1-8.2,3.6-8.5,8.2H288.5 M271.8,80c0,8.2,5.3,10.7,9.3,10.7
		c4.6,0,6.8-2.4,10.4-7.5l9.3,4.8c-4.3,8-11.1,11.7-20.6,11.7c-13.2,0-20.9-9.1-20.9-21.1c0-15,7.9-23.6,20.9-23.6
		c15.5,0,20.8,11.8,20.9,25H271.8z M305.5,41.8H318v56.9h-12.5V41.8z M325,56.2h12.5V60c3.2-3.8,8.5-4.8,12.3-4.8
		c4.5-0.1,8.7,2,11.2,5.7c3.6-3.7,8.5-5.8,13.7-5.7c4.1,0,13.1,1.4,13.1,11.2v32.4h-12.5v-25c0-6-1.6-8.7-6.4-8.7
		c-4.1,0-6.3,3.1-6.3,7.4v26.1h-12.4V72.1c0-4.2-1.3-7-6.1-7s-6.6,3.2-6.6,7.1v26.5H325V56.2 M418.7,78l-8.4,2.4
		c-3.1,0.9-6,2.1-6,5.5s2.8,4.8,5.8,4.8c4.8,0,8.5-3.2,8.5-9.8L418.7,78 M430.7,89.8c-0.2,3,0.2,6,1.1,8.9h-11.5
		c-0.5-1.4-0.7-2.9-0.8-4.4h-0.2c-2.1,3.4-8.3,5.5-12.8,5.5c-8.1,0-14.2-4.5-14.2-12.6c0-10.2,8.2-13.8,21.8-15.7l4.6-0.6v-3.5
		c0-3.2-2.6-4.6-5.9-4.6c-4,0-5.9,1.4-6.5,5.7h-12c0.4-12.2,11.8-13.3,17.5-13.3c11.6,0,18.9,2.7,18.9,12.3V89.8z M438,56.2h12.4V60
		c3.2-3.8,8.5-4.8,12.3-4.8c10.1,0,12.9,5.8,12.9,12.2v31.4h-12.4V72.1c0-4.2-1.3-7-6.1-7s-6.6,3.2-6.6,7.1v26.5H438V56.2">
  </path>
 </g>
</svg>