<svg version="1.1" id="Layer_1" xmlns="http://www.w3.org/2000/svg" xmlns:xlink="http://www.w3.org/1999/xlink" x="0px" y="0px" viewBox="-489.4 480.7 688.3 120" style="enable-background:new -489.4 480.7 688.3 120;" xml:space="preserve">
 <style type="text/css">
  .st0{fill:#B30000;}
 </style>
 <g>
  <path class="st0" d="M179.3,519.2H70.2c-1.6-3.1-4.2-6.3-6.8-8.6c-4.7-3.8-10.1-5.2-15.4-4.2l-0.9,0.2l0.2-1
		C48,499.9,46,494.7,42,490c-5.1-5.8-12.9-9.3-20.6-9.3c-7.5,0-15.6,3.5-20.6,9.3c-3.8,4.4-5.8,10.5-5.1,15.6l0.2,1l-1-0.2
		c-4.9-1-11,0.5-15.7,4.2c-6.5,5.1-9.8,12.9-9.8,21c0,7.9,3.5,15.9,9.8,21c4.7,3.8,10.8,5.4,15.7,4.2l1-0.2l-0.2,1
		c-0.5,5.1,1.2,11.2,5.1,15.6c5.1,5.8,13.1,9.3,20.6,9.3c7.7,0,15.6-3.7,20.6-9.3c4-4.5,5.9-10,5.2-15.6l-0.2-1l1,0.2
		c5.2,1,10.7-0.3,15.4-4.2c3.5-2.8,5.8-7.2,7.5-11.4h55.8c3.3,0,6.1,2.3,6.1,5.8c0,3.3-2.6,5.9-6.1,5.9h-5.1v29.7H144v-24
		c0-3.3,2.6-5.9,5.9-5.9c3.3,0,6.5,2.6,6.5,5.9v24h22v-29.7h-4.9c-3.3,0-6.1-2.4-6.1-5.9c0-3.3,2.6-5.8,6.1-5.8h5.9
		c6.1,0,11-4.9,11-11C190.3,524.3,185.3,519.2,179.3,519.2 M39.4,542.4c-2.3,0-4.5-0.7-6.5-1.9l-3.5,3.3c1.2,1.7,2.1,3.7,2.1,5.8
		c0,5.8-4.7,10.5-10.5,10.5c-2.8,0-5.4-1-7.3-3.1c-1.9-1.9-3-4.5-3-7.3c0-1.7,0.5-4,1.9-5.8l-3.5-3.3c-2.1,1.2-4.2,1.9-6.1,1.9
		c-2.8,0-5.4-0.9-7.3-3c-1.9-1.9-3.1-4.7-3.1-7.5s1-5.4,3.1-7.3c1.9-1.9,4.5-3,7.3-3c2.4,0,4.5,1,6.1,2.3l3.5-3.3
		c-1-1.4-1.9-3.8-1.9-6.3c0-2.8,1-5.4,3-7.3s4.5-3,7.3-3s5.4,1,7.5,3c1.9,1.9,3,4.5,3,7.3c0,2.1-0.7,4-2.1,6.3l3.5,3.3
		c2.1-1.7,4.2-2.3,6.5-2.3c2.8,0,5.4,1,7.3,3c1.9,1.9,3,4.5,3,7.3C49.7,537.7,45.2,542.4,39.4,542.4">
  </path>
  <path d="M-420,506.1h-24.7l-25,29.2v-29.2h-19.8v76.1h19.8v-23.4l8-8.6l20.5,32h24.7l-31.7-46.2L-420,506.1z M-393.9,525.3
		c-16.3,0-29.9,12.1-29.9,29c0,18.5,12.2,29.4,30.3,29.4c12.4,0,24.1-5.6,27.5-18.4h-17c-1.7,4-5.9,6.1-10.3,6.1
		c-7.7,0-12.1-5.1-12.4-12.6h40.6C-364.3,540.2-374.1,525.3-393.9,525.3z M-405.6,548.7c1-6.6,5.2-11.4,11.7-11.4
		c6.1,0,10.5,5.1,10.7,11.4C-383.2,548.7-405.6,548.7-405.6,548.7z M-338.1,562.9h-0.2l-10.5-36H-368l14.3,38.5
		c1,3,4.5,11.5,4.5,14.5c0,3.8-3.1,6.1-7.2,6.1h-6.3v14.7h8.6c12.2,0,18.7-1.6,23.1-13.6l21.7-60.2h-18.5L-338.1,562.9z
		 M195.2,574.3c0-1.4-0.7-2.1-2.4-2.1h-3v7.7h0.9v-3.5h1.6l2.1,3.5h1l-2.3-3.5C194.4,576.2,195.2,575.5,195.2,574.3L195.2,574.3z
		 M192.1,575.5h-1.2v-2.6h1.7c0.9,0,1.7,0.2,1.7,1.4S193.1,575.5,192.1,575.5z M-253.1,540.5c5.9-3,10-8.6,10-15.4
		c0-15.9-14.3-19.2-27.5-19.1h-35.5v76.1h36.6c16.3,0,29.6-5.6,29.6-23.6C-240,550-245,542.8-253.1,540.5z M-286.3,521.5h15.4
		c4.2,0,8,1.7,8,7.3c0,5.4-4.7,7.2-8,7.2h-15.4C-286.3,536-286.3,521.5-286.3,521.5z M-270.4,566.2h-15.9v-17.5h15.9
		c5.9,0,10.7,2.3,10.7,8.9C-259.7,564.1-264.1,566.2-270.4,566.2z M-53,526.9h-21l-16.4,18.4v-39.2h-18.2v76.1h18.2v-17.7l4.7-4.5
		l13.5,22.2h21.9l-22.7-34.5C-73.1,547.7-53,526.9-53,526.9z M192.3,569.2c-3.8,0-6.6,3-6.6,6.6s3,6.6,6.6,6.6c3.8,0,6.6-3,6.6-6.6
		S195.9,569.2,192.3,569.2z M192.3,581.6c-3.1,0-5.6-2.4-5.6-5.8c0-3.1,2.4-5.8,5.6-5.8c3.1,0,5.6,2.4,5.6,5.8
		S195.4,581.6,192.3,581.6z M-181.4,543.8c0-15.7-12.6-18.5-25.7-18.5c-6.3,0-12.6,1-17.5,3.8c-4.9,2.8-8.2,7.5-8.6,14.9h17
		c0.9-4.7,4-7,9.1-7c3.7,0,8.7,1.6,8.7,5.8c0,3.3-1.7,4.5-4.7,5.1c-12.6,2.6-32.2,1.2-32.2,19.2c0,11.4,8.2,16.8,18.9,16.8
		c6.6,0,13.5-1.9,18.2-6.8c0.2,1.7,0.3,3.5,1,5.2h18.2c-2.1-4.4-2.1-9.4-2.1-14.2v-24.3H-181.4z M-210.1,572.5c-4,0-7.5-1.7-7.5-6.3
		c0-4.4,3.3-6.1,7.5-7c4-1,8.6-1.4,11.2-3C-198.5,567.6-201.3,572.5-210.1,572.5z M-137.3,525.3c-6.6,0-14,3.5-17.3,9.1h-0.2v-7.5
		h-17.5v55.3h18.2v-30.1c0-6.1,3-11.9,9.8-11.9c10,0,9.1,7.7,9.1,15.2v26.8h18.2v-35.5C-117.5,538.8-118.9,525.3-137.3,525.3
		L-137.3,525.3z">
  </path>
 </g>
</svg>