<?xml version="1.0" encoding="utf-8"?>
<!-- Generator: Adobe Illustrator 27.5.0, SVG Export Plug-In . SVG Version: 6.00 Build 0)  -->
<svg version="1.1" id="WORX_x2122_" xmlns="http://www.w3.org/2000/svg" xmlns:xlink="http://www.w3.org/1999/xlink" x="0px"
	 y="0px" viewBox="0 0 360.8 106.2" style="enable-background:new 0 0 360.8 106.2;" xml:space="preserve">
<style type="text/css">
	.st0{fill:#231F20;}
	.st1{fill:#F2672A;}
	.st2{fill:#82642D;}
</style>
<g>
	<g>
		<path class="st0" d="M23.7,94.1h5.1c1.2,0,2.2,0.3,2.8,1c0.5,0.5,0.7,1.1,0.7,1.9l0,0c0,1.2-0.7,1.9-1.4,2.4c1.3,0.5,2,1.2,2,2.7
			l0,0c0,2-1.6,3-4.1,3h-5.2L23.7,94.1L23.7,94.1z M28.2,98.5c1.1,0,1.7-0.3,1.7-1.2l0,0c0-0.7-0.6-1.1-1.6-1.1H26v2.3
			C26,98.5,28.2,98.5,28.2,98.5z M28.8,102.9c1.1,0,1.7-0.4,1.7-1.2l0,0c0-0.7-0.5-1.2-1.8-1.2H26v2.4
			C26,102.9,28.8,102.9,28.8,102.9z"/>
		<path class="st0" d="M35.7,94.1h5c1.4,0,2.5,0.4,3.2,1.1c0.6,0.6,0.9,1.5,0.9,2.5l0,0c0,1.8-1,2.9-2.3,3.4l2.7,3.9h-2.8l-2.3-3.5
			l0,0h-1.9v3.5h-2.4V94.1H35.7z M40.5,99.4c1.2,0,1.8-0.6,1.8-1.5l0,0c0-1-0.7-1.6-1.9-1.6H38v3.1H40.5z"/>
		<path class="st0" d="M51.5,94h2.2l4.7,11h-2.5l-1-2.4h-4.6l-1,2.4h-2.4L51.5,94z M54,100.4l-1.4-3.5l-1.4,3.5H54z"/>
		<path class="st0" d="M60.8,94.1H63l5.1,6.7v-6.7h2.4V105h-2l-5.3-6.9v6.9h-2.4V94.1z"/>
		<path class="st0" d="M73.9,94.1h4.3c3.4,0,5.8,2.4,5.8,5.4l0,0c0,3.1-2.4,5.4-5.8,5.4h-4.3V94.1z M78.1,102.8c2,0,3.3-1.3,3.3-3.3
			l0,0c0-1.9-1.3-3.3-3.3-3.3h-1.9v6.6C76.2,102.8,78.1,102.8,78.1,102.8z"/>
		<path class="st0" d="M87,94.1h2.4V105H87V94.1z"/>
		<path class="st0" d="M92.9,94.1h2.2l5.1,6.7v-6.7h2.4V105h-2l-5.3-6.9v6.9h-2.4C92.9,105,92.9,94.1,92.9,94.1z"/>
		<path class="st0" d="M105.5,99.6L105.5,99.6c0-3.1,2.4-5.7,5.7-5.7c2,0,3.1,0.5,4.3,1.5l-1.5,1.8c-0.8-0.7-1.6-1.1-2.8-1.1
			c-1.7,0-3.1,1.5-3.1,3.4l0,0c0,2,1.4,3.5,3.3,3.5c0.9,0,1.7-0.2,2.3-0.7v-1.6h-2.4v-2.1h4.7v4.7c-1.1,0.9-2.7,1.7-4.7,1.7
			C107.8,105.2,105.5,102.8,105.5,99.6z"/>
		<path class="st0" d="M140.8,94.1h4.3c3.4,0,5.8,2.4,5.8,5.4l0,0c0,3.1-2.4,5.4-5.8,5.4h-4.3V94.1z M145,102.8c2,0,3.3-1.3,3.3-3.3
			l0,0c0-1.9-1.3-3.3-3.3-3.3h-1.9v6.6C143.1,102.8,145,102.8,145,102.8z"/>
		<path class="st0" d="M153.8,94.1h2.4V105h-2.4V94.1z"/>
		<path class="st0" d="M159.2,99.6L159.2,99.6c0-3.1,2.4-5.7,5.7-5.7c2,0,3.1,0.5,4.3,1.5l-1.5,1.8c-0.8-0.7-1.6-1.1-2.8-1.1
			c-1.7,0-3.1,1.5-3.1,3.4l0,0c0,2,1.4,3.5,3.3,3.5c0.9,0,1.7-0.2,2.3-0.7v-1.6H165v-2.1h4.7v4.7c-1.1,0.9-2.7,1.7-4.7,1.7
			C161.6,105.2,159.2,102.8,159.2,99.6z"/>
		<path class="st0" d="M172.8,94.1h2.4V105h-2.4V94.1z"/>
		<path class="st0" d="M181.3,96.3H178v-2.2h9v2.2h-3.3v8.7h-2.4V96.3z"/>
		<path class="st0" d="M191.9,94h2.2l4.7,11h-2.5l-1-2.4h-4.6l-1,2.4h-2.4L191.9,94z M194.5,100.4l-1.4-3.5l-1.4,3.5H194.5z"/>
		<path class="st0" d="M201.3,94.1h2.4v8.7h5.4v2.2h-7.8L201.3,94.1L201.3,94.1z"/>
		<path class="st0" d="M233.5,94.1h2.6l2.9,4.6l2.9-4.6h2.6V105H242v-7.1l-3.1,4.7h-0.1l-3-4.6v7.1h-2.4v-11H233.5z"/>
		<path class="st0" d="M251.6,94h2.2l4.7,11H256l-1-2.4h-4.6l-1,2.4H247L251.6,94z M254.1,100.4l-1.4-3.5l-1.4,3.5H254.1z"/>
		<path class="st0" d="M260.9,94.1h5c1.4,0,2.5,0.4,3.2,1.1c0.6,0.6,0.9,1.5,0.9,2.5l0,0c0,1.8-1,2.9-2.3,3.4l2.7,3.9h-2.8l-2.3-3.5
			l0,0h-1.9v3.5H261V94.1H260.9z M265.7,99.4c1.2,0,1.8-0.6,1.8-1.5l0,0c0-1-0.7-1.6-1.9-1.6h-2.4v3.1H265.7z"/>
		<path class="st0" d="M272.9,94.1h2.4v4.8l4.4-4.8h2.9l-4.4,4.6l4.6,6.3H280l-3.4-4.6l-1.3,1.3v3.3h-2.4L272.9,94.1L272.9,94.1z"/>
		<path class="st0" d="M285.1,94.1h8.2v2.1h-5.8v2.2h5.1v2.1h-5.1v2.3h5.9v2.1h-8.3L285.1,94.1L285.1,94.1z"/>
		<path class="st0" d="M298.8,96.3h-3.3v-2.2h9v2.2h-3.3v8.7h-2.4L298.8,96.3L298.8,96.3z"/>
		<path class="st0" d="M307.3,94.1h2.4V105h-2.4V94.1z"/>
		<path class="st0" d="M313.2,94.1h2.2l5.1,6.7v-6.7h2.4V105h-2l-5.3-6.9v6.9h-2.4L313.2,94.1L313.2,94.1z"/>
		<path class="st0" d="M325.8,99.6L325.8,99.6c0-3.1,2.4-5.7,5.7-5.7c2,0,3.1,0.5,4.3,1.5l-1.5,1.8c-0.8-0.7-1.6-1.1-2.8-1.1
			c-1.7,0-3.1,1.5-3.1,3.4l0,0c0,2,1.4,3.5,3.3,3.5c0.9,0,1.7-0.2,2.3-0.7v-1.6h-2.4v-2.1h4.7v4.7c-1.1,0.9-2.7,1.7-4.7,1.7
			C328.1,105.2,325.8,102.8,325.8,99.6z"/>
	</g>
	<polygon class="st1" points="124.8,105 128.9,99.5 124.9,94.1 127.5,94.1 131.4,99.5 127.4,105 	"/>
	<polygon class="st1" points="217.4,105 221.5,99.5 217.5,94.1 220.1,94.1 224.1,99.5 220,105 	"/>
</g>
<path class="st1" d="M142.5,0l6.6,9l-6.4,8.7c10.6,0.8,19,9.6,19,20.5c0,11.3-9.2,20.5-20.5,20.5s-20.5-9.2-20.6-20.5
	c0-9.8,6.9-18,16.1-20.1l6.7-9.1L137,0.2c-19.1,2.1-34,18.3-34,38c0,21.1,17.1,38.2,38.2,38.2s38.2-17.1,38.2-38.2
	C179.5,17.5,163,0.7,142.5,0z"/>
<polygon class="st2" points="40,74.3 54.1,33.4 68.2,74.3 83.8,74.3 108.2,2.2 88.8,2.2 75.9,44.4 62,2.1 46.6,2.1 32.7,44.4 
	19.8,2.2 0,2.2 24.4,74.3 "/>
<polygon class="st2" points="334.6,74.3 304.9,39.9 333.9,2 310.1,2 292.3,25.2 272.3,2 248.9,2 281.3,39.6 254.6,74.3 278.4,74.3 
	293.9,54.2 311.3,74.3 "/>
<path class="st2" d="M233.1,74.3H255l-20.8-27L235,47c9.3-3.9,14.4-11.5,14.4-21.3v-0.2c0-6.6-2.3-12.3-6.7-16.3
	C237.6,4.5,229.8,2,220.3,2h-35v72.3H204V50.5h10.9L233.1,74.3z M204,17.7h15c7.5,0,11.6,3.1,11.6,8.7v0.2c0,5.4-4.2,8.6-11.3,8.6
	H204V17.7z"/>
<path class="st2" d="M346.5,67.5H344v-0.8h5.9v0.8h-2.5v6.8h-0.9V67.5z M352.3,66.7h0.9l3,4.5l3-4.5h0.9v7.6h-0.9v-6.1l-2.9,4.4
	h-0.1l-2.9-4.4v6.1h-0.9v-7.6H352.3z"/>
</svg>
