<svg version="1.1" id="Layer_1" xmlns="http://www.w3.org/2000/svg" xmlns:xlink="http://www.w3.org/1999/xlink" x="0px" y="0px" viewBox="0 0 166.9 45.7" style="enable-background:new 0 0 166.9 45.7;" xml:space="preserve">
 <style type="text/css">
  .st0{fill:#4FA600;}
	.st1{fill:#FFFFFF;}
	.st2{fill:#4D4D5A;}
 </style>
 <g>
  <path class="st0" d="M22.8,45.7C10.3,45.7,0,35.4,0,22.8C0,10.3,10.3,0,22.8,0c12.6,0,22.8,10.3,22.8,22.8
		C45.7,35.4,35.4,45.7,22.8,45.7L22.8,45.7z M22.8,45.7">
  </path>
  <path class="st1" d="M43.1,30.4c0.1-0.3,0.2-0.6,0.3-0.9H25.3l0.9-1.1h12.6c0.3,0,0.5-0.2,0.5-0.5c0-0.3-0.2-0.5-0.5-0.5H26.9
		l0.9-1.1h6.4c0.2,0,0.4-0.2,0.4-0.5c0-0.3-0.2-0.5-0.4-0.5h-17l10.4-13.6H10.5v3.7h9.1l-9.5,12.4l-2,2.5c0,0,5.9,0,5.9,0h1.6
		c0.6-1.6,2.2-2.7,4-2.7c1.8,0,3.4,1.1,4,2.7H43.1z M43.1,30.4">
  </path>
  <path class="st2" d="M23,32.1c0,1.8-1.5,3.3-3.3,3.3c-1.8,0-3.3-1.5-3.3-3.3c0-1.8,1.5-3.3,3.3-3.3C21.5,28.7,23,30.2,23,32.1
		L23,32.1z M23,32.1">
  </path>
  <path class="st2" d="M60.5,29.2L71,15.4h-9.9v-3.7h15V15L65.6,28.6h10.5v4H60.5L60.5,29.2z M60.5,29.2">
  </path>
  <path class="st2" d="M80.9,11.6h4.2v20.9h-4.2V11.6z M80.9,3.2h4.2v4.2h-4.2V3.2z M80.9,3.2">
  </path>
  <path class="st2" d="M99.6,28.6c-3.9,0-4.1-3.5-4.1-6.5c0-3,0.2-6.5,4.1-6.5c4,0,4.2,3.3,4.2,6.5C103.8,25.3,103.6,28.6,99.6,28.6
		L99.6,28.6z M91.3,41h4.2V30.3c1.6,1.5,3.3,2.5,5.4,2.5c2.6,0,4.4-1.2,5.6-2.7c1.2-1.5,1.5-2.8,1.5-7.9c0-5.1-0.3-6.5-1.5-8
		c-1.2-1.6-3-2.7-5.6-2.7c-2.1,0-4.1,1-5.4,2.4v-2.2h-4.2V41z M91.3,41">
  </path>
  <path class="st2" d="M128.7,29.2c-1.8,2.1-4.3,3.6-7.5,3.6c-4.8,0-9.5-3-9.5-10.7c0-7.7,4.7-10.7,9.5-10.7c3.2,0,5.7,1.5,7.5,3.6
		l-3.1,2.8c-1-1.3-2.5-2.2-4.2-2.2c-3.4,0-5.4,1.9-5.4,6.5c0,4.5,2,6.5,5.4,6.5c1.7,0,3.2-0.9,4.2-2.2L128.7,29.2z M128.7,29.2">
  </path>
  <path class="st2" d="M143.2,25.2c0,3.3-1.2,3.6-4.7,3.6c-2.8,0-4-1.2-4-2.6c0-1.5,1.2-2.5,3.6-2.5h5L143.2,25.2z M143.2,32.5h4.2
		V18.3c0-5.1-3.5-6.9-8.7-6.9c-3.1,0-5.4,0.8-7,3L135,17c0.7-1.2,1.8-1.6,4-1.6c3,0,4.3,0.7,4.3,2.7v2.2h-5.8
		c-4.5,0-6.8,2.8-6.8,6.2c0,3.6,2.7,6.4,7.4,6.4c2.8,0,4.3-0.7,5.1-2.1h0.1V32.5z M143.2,32.5">
  </path>
  <path class="st2" d="M152.8,11.6h4.2v2.2h0.1c1.3-1.6,3.2-2.5,5.4-2.5c1.7,0,3.1,0.6,4.4,1.6l-3,3.6c-1-0.7-1.7-1-2.8-1
		c-2.1,0-4.1,1.3-4.1,4.4v12.6h-4.2L152.8,11.6z M152.8,11.6">
  </path>
  <path class="st2" d="M166.1,31.2c0,0.8-0.7,1.5-1.5,1.5c-0.8,0-1.5-0.7-1.5-1.5c0-0.8,0.7-1.5,1.5-1.5
		C165.4,29.7,166.1,30.4,166.1,31.2L166.1,31.2z M162.9,31.2c0,1,0.8,1.8,1.8,1.8c1,0,1.8-0.8,1.8-1.8c0-1-0.8-1.8-1.8-1.8
		C163.7,29.4,162.9,30.2,162.9,31.2L162.9,31.2z M165.1,32.2h0.4l-0.6-0.9c0.3,0,0.5-0.2,0.5-0.6c0-0.4-0.2-0.6-0.7-0.6H164v2h0.3
		v-0.9h0.3L165.1,32.2z M164.3,31.1v-0.6h0.4c0.3,0,0.5,0.1,0.5,0.3c0,0.2-0.1,0.3-0.5,0.3L164.3,31.1z M164.3,31.1">
  </path>
 </g>
</svg>