<?xml version="1.0" encoding="UTF-8"?>
<svg id="Layer_2" data-name="Layer 2" xmlns="http://www.w3.org/2000/svg" viewBox="0 0 301.49 217.07">
  <defs>
    <style>
      .cls-1 {
        fill: #f2f1f1;
      }
    </style>
  </defs>
  <g id="Layer_3" data-name="Layer 3">
    <g>
      <path class="cls-1" d="M215.59,56.11l-15.98-8.02c-.61-.31-.87-1.07-.57-1.71l2.56-5.54c1.5-3.24,5.23-4.6,8.34-3.04l6.93,3.48c3.11,1.56,4.42,5.45,2.92,8.7l-2.56,5.54c-.29.64-1.03.9-1.64.6Z"/>
      <path class="cls-1" d="M164.8,168.26l-.67-1.99-2.31.84c-.29.1-.6-.05-.7-.35l-.8-2.38-2.28.83c-.29.1-.6-.05-.7-.35l-.78-2.31-2.23.81c-.14.05-.29.04-.42-.02s-.23-.18-.28-.33l-.76-2.25-2.15.78c-.29.1-.6-.05-.7-.35l-.76-2.26-2.08.76c-.07.03-.15.04-.22.03,0,.02,0,.04,0,.06,1.91,26.96-3.49,24.41,17.69,8.84.08-.07.15-.15.23-.23-.03-.05-.07-.09-.09-.15Z"/>
      <g>
        <path class="cls-1" d="M200.29,51.9l-.1-.05c-1.64-.82-3.47-.38-4.1.98l-48.56,105.09,2.16-.79c.29-.1.6.05.7.35l.47,1.4,49.44-106.98Z"/>
        <path class="cls-1" d="M205.89,54.71l-4.61-2.31-49.5,107.12,1.52-.55c.29-.1.6.05.7.35l.76,2.25,2.12-.77,49.02-106.08Z"/>
        <path class="cls-1" d="M211.53,57.54l-4.66-2.34-49.09,106.22.67,1.98,2.28-.83c.29-.1.6.05.7.35l.59,1.75,49.51-107.13Z"/>
        <path class="cls-1" d="M212.51,58.04l-49.42,106.94,1.45-.53c.29-.1.6.05.7.35l.61,1.81,48.38-104.68c.62-1.33-.15-3.05-1.71-3.89Z"/>
      </g>
    </g>
    <path class="cls-1" d="M292.57,0H8.91C3.99,0,0,4.16,0,9.29v198.49c0,5.13,3.99,9.29,8.91,9.29h283.66c4.92,0,8.91-4.16,8.91-9.29V9.29c0-5.13-3.99-9.29-8.91-9.29ZM20.95,22.75c0-2.45,1.91-4.44,4.26-4.44h10.37c2.35,0,4.26,1.99,4.26,4.44v33.11c0,2.45-1.91,4.44-4.26,4.44h-10.37c-2.35,0-4.26-1.99-4.26-4.44V22.75ZM39.84,193.72c0,2.45-1.91,4.44-4.26,4.44h-10.37c-2.35,0-4.26-1.99-4.26-4.44v-33.11c0-2.45,1.91-4.44,4.26-4.44h10.37c2.35,0,4.26,1.99,4.26,4.44v33.11ZM30.39,129.23c-11.12,0-20.14-9.4-20.14-20.99s9.02-20.99,20.14-20.99,20.14,9.4,20.14,20.99-9.02,20.99-20.14,20.99ZM294.12,198c0,5.73-4.46,10.38-9.96,10.38H69.16c-5.5,0-9.96-4.65-9.96-10.38V19.07c0-5.73,4.46-10.38,9.96-10.38h215c5.5,0,9.96,4.65,9.96,10.38v178.92Z"/>
  </g>
</svg>