<?xml version="1.0" encoding="UTF-8"?>
<svg id="Layer_2" data-name="Layer 2" xmlns="http://www.w3.org/2000/svg" viewBox="0 0 1831.55 811.68">
  <defs>
    <style>
      .cls-1, .cls-2 {
        fill: none;
        stroke: #231f20;
        stroke-miterlimit: 10;
        stroke-width: 3px;
      }

      .cls-2 {
        stroke-dasharray: 15.04 15.04;
      }
    </style>
  </defs>
  <g id="Layer_1-2" data-name="Layer 1">
    <g>
      <path class="cls-1" d="M1.18.93s1.63,2.08,4.73,5.82"/>
      <path class="cls-2" d="M15.63,18.21c52.23,60.3,235.85,253.53,383.02,175.12,173.42-92.41,91.14-148.1,46.84-132.91-44.3,15.19-62.03,132.91,82.28,202.53,162.3,78.3,392.62-132.73,534.33-25.57,37.64,28.46,71.88,84.05,62.87,132.28-18.47,98.9-208.45,111.38-223.66,220.6-5,35.91,11.27,65.19,14.32,70.47,56.16,97.32,259.02,85.31,433.44,76.05,98.78-5.25,211.22-33.32,232.18,6.58,11.58,22.04,3.29,40.44,3.29,40.44-8.81,19.55-33.76,24.77-37.79,25.53-42.32,7.97-93.49-40.49-114.89-80.17-52.05-96.51-6.83-258.33,104.55-330.35,75.44-48.79,183.87-54.15,238.95-16.09,28.96,20.01,43.48,47.39,50.04,63.85"/>
      <path class="cls-1" d="M1827.98,453.62c1.5,4.49,2.09,7.17,2.1,7.2h0"/>
    </g>
  </g>
</svg>