<?xml version="1.0" encoding="UTF-8"?>
<svg id="Layer_2" data-name="Layer 2" xmlns="http://www.w3.org/2000/svg" viewBox="0 0 307.61 222.8">
  <defs>
    <style>
      .cls-1 {
        fill: none;
        stroke: #f2f1f1;
        stroke-miterlimit: 10;
        stroke-width: 6px;
      }

      .cls-2 {
        fill: #f2f1f1;
      }
    </style>
  </defs>
  <g id="Layer_4" data-name="Layer 4">
    <path class="cls-1" d="M304.57,139.78l-16.2-38.66c-.25-.6-.38-1.27-.38-1.94V28.93c0-14.32-10.05-25.93-22.44-25.93h-108.71c-12.39,0-22.44,11.61-22.44,25.93v66.19c0,14.32,10.05,25.93,22.44,25.93h112.41c.59,0,1.18.16,1.71.46l33.04,18.94c.37.21.76-.24.58-.66Z"/>
    <path class="cls-2" d="M90.63,158.49c-.89,0-1.58-.29-2.06-.87-.48-.58-.72-1.39-.72-2.42,0-2.4.29-4.64.87-6.73.58-2.09,1.51-4.23,2.78-6.42,1.27-2.19,3-4.56,5.19-7.09,1.71-2.06,3.08-3.87,4.11-5.45,1.03-1.58,1.76-3.1,2.21-4.57.44-1.47.67-2.96.67-4.47,0-2.88-1.03-5.16-3.08-6.84-2.06-1.68-4.9-2.52-8.53-2.52-3.15,0-6.05.46-8.69,1.39-2.64.93-5.19,2.31-7.66,4.16-1.03.69-1.97,1.03-2.83,1.03s-1.56-.24-2.11-.72c-.55-.48-.91-1.1-1.08-1.85-.17-.75-.07-1.54.31-2.36.38-.82,1.04-1.58,2-2.26,2.67-2.12,5.82-3.8,9.46-5.04,3.63-1.23,7.3-1.85,11-1.85,3.91,0,7.35.67,10.33,2,2.98,1.34,5.29,3.22,6.94,5.65,1.64,2.43,2.47,5.29,2.47,8.58,0,2.12-.31,4.16-.93,6.12-.62,1.95-1.59,3.92-2.93,5.91-1.34,1.99-3.2,4.25-5.6,6.78-2.12,2.19-3.84,4.23-5.14,6.12-1.3,1.89-2.28,3.7-2.93,5.45-.65,1.75-1.08,3.58-1.28,5.5-.07.82-.34,1.49-.82,2-.48.51-1.13.77-1.95.77ZM90.53,177.41c-1.71,0-3.1-.53-4.16-1.59-1.06-1.06-1.59-2.42-1.59-4.06s.53-3,1.59-4.06c1.06-1.06,2.45-1.59,4.16-1.59s3.07.53,4.06,1.59c.99,1.06,1.49,2.42,1.49,4.06s-.5,3-1.49,4.06c-.99,1.06-2.35,1.59-4.06,1.59Z"/>
    <path class="cls-2" d="M210.43,101.64c-1.76,0-3.17-.55-4.23-1.64-1.06-1.09-1.59-2.48-1.59-4.18s.53-3.08,1.59-4.18c1.06-1.09,2.47-1.64,4.23-1.64s3.15.55,4.18,1.64c1.02,1.09,1.53,2.48,1.53,4.18s-.51,3.08-1.53,4.18c-1.02,1.09-2.42,1.64-4.18,1.64ZM210.43,82.29c-.85,0-1.53-.28-2.06-.85-.53-.56-.83-1.41-.9-2.54l-2.11-47.37c-.07-1.69.33-3.05,1.22-4.07.88-1.02,2.17-1.53,3.86-1.53s2.85.51,3.7,1.53c.85,1.02,1.23,2.38,1.16,4.07l-2.11,47.37c0,1.13-.25,1.97-.74,2.54-.49.56-1.16.85-2.01.85Z"/>
    <path class="cls-1" d="M3.05,219.08l16.2-38.66c.25-.6.38-1.27.38-1.94v-70.26c0-14.32,10.05-25.93,22.44-25.93h108.71c12.39,0,22.44,11.61,22.44,25.93v66.19c0,14.32-10.05,25.93-22.44,25.93H38.37c-.59,0-1.18.16-1.71.46L3.62,219.74c-.37.21-.76-.24-.58-.66Z"/>
  </g>
</svg>