<?xml version="1.0" encoding="UTF-8"?>
<svg id="Layer_1" data-name="Layer 1" xmlns="http://www.w3.org/2000/svg" viewBox="0 0 381 142">
  <path d="M138.000977,72.689941h-5.560059l-.919922,2.660156h-2.939941l5.02002-13.97998h3.259766l5.02002,13.97998h-2.959961l-.919922-2.660156ZM137.241211,70.450195l-2.02002-5.840332-2.02002,5.840332h4.040039Z"/>
  <path d="M143.940918,66.800293c.466797-.860352,1.113281-1.526855,1.939941-2s1.773438-.709961,2.840332-.709961c1.373047,0,2.509766.343262,3.409668,1.029785.900391.687012,1.503418,1.649902,1.810059,2.890137h-3.02002c-.159668-.47998-.429688-.856934-.810059-1.130371-.379883-.272949-.849609-.409668-1.409668-.409668-.800293,0-1.433594.290039-1.899902.870117-.467285.57959-.700195,1.40332-.700195,2.469727,0,1.053711.23291,1.870117.700195,2.450195.466309.580078,1.099609.869629,1.899902.869629,1.132812,0,1.873047-.506348,2.219727-1.52002h3.02002c-.306641,1.200195-.913086,2.153809-1.819824,2.860352s-2.040039,1.060059-3.399902,1.060059c-1.066895,0-2.013672-.236816-2.840332-.709961s-1.473145-1.140137-1.939941-2c-.466797-.860352-.699707-1.863281-.699707-3.010254,0-1.146484.23291-2.149902.699707-3.009766Z"/>
  <path d="M156.180176,66.800293c.466797-.860352,1.113281-1.526855,1.939941-2s1.773438-.709961,2.840332-.709961c1.373047,0,2.509766.343262,3.409668,1.029785.900391.687012,1.503418,1.649902,1.810059,2.890137h-3.02002c-.159668-.47998-.429688-.856934-.810059-1.130371-.379883-.272949-.849609-.409668-1.409668-.409668-.800293,0-1.433594.290039-1.899902.870117-.467285.57959-.700195,1.40332-.700195,2.469727,0,1.053711.23291,1.870117.700195,2.450195.466309.580078,1.099609.869629,1.899902.869629,1.132812,0,1.873047-.506348,2.219727-1.52002h3.02002c-.306641,1.200195-.913086,2.153809-1.819824,2.860352s-2.040039,1.060059-3.399902,1.060059c-1.066895,0-2.013672-.236816-2.840332-.709961s-1.473145-1.140137-1.939941-2c-.466797-.860352-.699707-1.863281-.699707-3.010254,0-1.146484.23291-2.149902.699707-3.009766Z"/>
  <path d="M178.660645,70.649902h-8.100098c.066406.800293.34668,1.427246.839844,1.880371s1.100098.679688,1.820312.679688c1.040039,0,1.779785-.446289,2.219727-1.339844h3.02002c-.319824,1.066895-.933105,1.943359-1.839844,2.629883-.906738.687012-2.02002,1.030273-3.339844,1.030273-1.066895,0-2.023438-.236816-2.870117-.709961-.847168-.473145-1.506836-1.143555-1.97998-2.010254-.473633-.866699-.709961-1.866699-.709961-3,0-1.146484.23291-2.15332.699707-3.02002s1.120117-1.533203,1.959961-2c.840332-.466309,1.806641-.699707,2.900391-.699707,1.052734,0,1.996582.226562,2.82959.679688.833496.453613,1.47998,1.097168,1.94043,1.930176.459961.833496.689941,1.790039.689941,2.870117,0,.399902-.026855.759766-.080078,1.07959ZM175.840332,68.77002c-.013184-.719727-.273438-1.296387-.779785-1.72998-.506836-.433105-1.126953-.649902-1.859863-.649902-.693359,0-1.276855.209961-1.75.629883-.473633.419922-.763672,1.003418-.870117,1.75h5.259766Z"/>
  <path d="M185.27002,64.600098c.633301-.339844,1.356445-.509766,2.169922-.509766.946777,0,1.803223.233398,2.570312.699707.766602.466797,1.373047,1.129883,1.819824,1.990234.446777.859863.669922,1.856934.669922,2.989746,0,1.133301-.223145,2.136719-.669922,3.010254-.446777.873047-1.053223,1.549805-1.819824,2.029785-.76709.47998-1.623535.720215-2.570312.720215-.813477,0-1.529785-.166992-2.149902-.5-.620117-.333496-1.123535-.753418-1.509766-1.260254v6.859863h-2.800293v-16.359863h2.800293v1.600098c.359863-.506348.856445-.930176,1.489746-1.27002ZM189.22998,68.040039c-.273438-.486328-.633301-.856445-1.080078-1.109863s-.929688-.379883-1.449707-.379883c-.506836,0-.983398.129883-1.430176.389648-.446777.260254-.806641.637207-1.080078,1.130371s-.409668,1.073242-.409668,1.739746c0,.666992.13623,1.24707.409668,1.740234s.633301.869629,1.080078,1.129883c.446777.259766.92334.390137,1.430176.390137.52002,0,1.00293-.133301,1.449707-.400391.446777-.266602.806641-.646484,1.080078-1.139648s.410156-1.080078.410156-1.760254c0-.666504-.136719-1.243164-.410156-1.72998Z"/>
  <path d="M198.000488,66.570312v5.359863c0,.373535.089844.643555.27002.810059.179688.166504.48291.25.909668.25h1.300293v2.359863h-1.760254c-2.359863,0-3.540039-1.146484-3.540039-3.439941v-5.339844h-1.319824v-2.300293h1.319824v-2.739746h2.820312v2.739746h2.47998v2.300293h-2.47998Z"/>
  <path d="M202.650391,66.790039c.446289-.866699,1.053223-1.533203,1.819824-2,.766602-.466309,1.623047-.699707,2.570312-.699707.826172,0,1.549805.166504,2.169922.5.619629.333008,1.116211.753418,1.489746,1.259766v-1.580078h2.820312v11.080078h-2.820312v-1.620117c-.359863.52002-.856934.950195-1.489746,1.290039-.633789.339844-1.36377.510254-2.189941.510254-.933594,0-1.783691-.240234-2.550293-.720215s-1.373535-1.156738-1.819824-2.029785c-.446777-.873535-.669922-1.876953-.669922-3.010254,0-1.120117.223145-2.113281.669922-2.97998ZM210.300293,68.060059c-.26709-.486328-.626953-.859863-1.080078-1.120117-.453125-.259766-.939941-.389648-1.459961-.389648s-1,.126465-1.439941.379883-.796875.623535-1.069824,1.109863c-.273438.486816-.410156,1.063477-.410156,1.72998,0,.666992.136719,1.25.410156,1.75.272949.5.632812.883301,1.07959,1.149902.446777.26709.92334.400391,1.430176.400391.52002,0,1.006836-.130371,1.459961-.390137.453125-.260254.812988-.633301,1.080078-1.120117.266602-.486328.399902-1.069824.399902-1.75s-.133301-1.263184-.399902-1.75Z"/>
  <path d="M225.799805,65.359863c.813477.833496,1.219727,1.99707,1.219727,3.490234v6.5h-2.799805v-6.120117c0-.879883-.219727-1.556641-.660156-2.029785-.439453-.473145-1.040039-.709961-1.799805-.709961-.773438,0-1.383789.236816-1.830078.709961s-.669434,1.149902-.669434,2.029785v6.120117h-2.800293v-11.080078h2.800293v1.379883c.373047-.47998.849121-.856445,1.429199-1.129883.580078-.272949,1.216797-.410156,1.910156-.410156,1.320312,0,2.386719.416992,3.200195,1.25Z"/>
  <path d="M229.859375,66.800293c.466797-.860352,1.113281-1.526855,1.94043-2,.826172-.473145,1.773438-.709961,2.839844-.709961,1.373047,0,2.509766.343262,3.410156,1.029785.900391.687012,1.50293,1.649902,1.80957,2.890137h-3.019531c-.160156-.47998-.429688-.856934-.810547-1.130371-.379883-.272949-.849609-.409668-1.40918-.409668-.800781,0-1.433594.290039-1.900391.870117-.466797.57959-.700195,1.40332-.700195,2.469727,0,1.053711.233398,1.870117.700195,2.450195s1.099609.869629,1.900391.869629c1.132812,0,1.873047-.506348,2.219727-1.52002h3.019531c-.306641,1.200195-.913086,2.153809-1.819336,2.860352-.907227.706543-2.040039,1.060059-3.400391,1.060059-1.066406,0-2.013672-.236816-2.839844-.709961-.827148-.473145-1.473633-1.140137-1.94043-2-.466797-.860352-.699219-1.863281-.699219-3.010254,0-1.146484.232422-2.149902.699219-3.009766Z"/>
  <path d="M252.338867,70.649902h-8.099609c.066406.800293.34668,1.427246.839844,1.880371s1.100586.679688,1.820312.679688c1.040039,0,1.780273-.446289,2.219727-1.339844h3.020508c-.320312,1.066895-.933594,1.943359-1.84082,2.629883-.90625.687012-2.019531,1.030273-3.339844,1.030273-1.066406,0-2.023438-.236816-2.870117-.709961s-1.505859-1.143555-1.979492-2.010254-.709961-1.866699-.709961-3c0-1.146484.233398-2.15332.700195-3.02002s1.119141-1.533203,1.959961-2c.839844-.466309,1.806641-.699707,2.899414-.699707,1.053711,0,1.99707.226562,2.830078.679688.833008.453613,1.480469,1.097168,1.94043,1.930176.459961.833496.689453,1.790039.689453,2.870117,0,.399902-.026367.759766-.080078,1.07959ZM249.519531,68.77002c-.013672-.719727-.273438-1.296387-.780273-1.72998-.506836-.433105-1.126953-.649902-1.860352-.649902-.693359,0-1.276367.209961-1.75.629883-.472656.419922-.762695,1.003418-.870117,1.75h5.260742Z"/>
</svg>