<?xml version="1.0" encoding="UTF-8"?>
<svg id="Layer_1" data-name="Layer 1" xmlns="http://www.w3.org/2000/svg" viewBox="0 0 381 142">
  <path d="M142.580811,72.77002c.506348.640137.759766,1.373535.759766,2.200195,0,.746582-.183594,1.40332-.549805,1.969727-.367188.566895-.896973,1.010254-1.590332,1.330078s-1.513184.47998-2.459961.47998h-6.02002v-13.959961h5.760254c.946289,0,1.763184.15332,2.449707.459961s1.206543.733398,1.560059,1.279785c.353027.546875.530273,1.166992.530273,1.860352,0,.813477-.217285,1.493164-.650391,2.040039s-1.009766.933105-1.72998,1.159668c.786621.146973,1.433105.540039,1.94043,1.180176ZM135.520752,70.549805h2.560059c.666504,0,1.179688-.149902,1.539551-.449707.360352-.300293.540039-.72998.540039-1.290039s-.179688-.993164-.540039-1.300293c-.359863-.306152-.873047-.459961-1.539551-.459961h-2.560059v3.5ZM139.93042,75.990234c.380371-.320312.570312-.773438.570312-1.360352,0-.600098-.200195-1.069824-.600098-1.409668-.399902-.340332-.939941-.510254-1.620117-.510254h-2.759766v3.760254h2.819824c.680176,0,1.209961-.160156,1.589844-.47998Z"/>
  <path d="M147.820557,78.220215c-.853516-.473145-1.523438-1.143555-2.009766-2.010254-.486816-.866699-.72998-1.866699-.72998-3s.25-2.133301.75-3,1.183105-1.536621,2.049805-2.009766,1.833008-.709961,2.899902-.709961,2.033203.236816,2.899902.709961,1.550293,1.143066,2.050293,2.009766.75,1.866699.75,3-.256836,2.133301-.77002,3c-.513672.866699-1.207031,1.537109-2.080078,2.010254-.873535.473145-1.850098.709961-2.930176.709961-1.066895,0-2.026855-.236816-2.879883-.709961ZM152.130615,76.120117c.446777-.246582.803223-.616699,1.069824-1.110352.266602-.492676.400391-1.092773.400391-1.799805,0-1.053223-.276855-1.863281-.830078-2.430176-.553711-.566406-1.22998-.849609-2.030273-.849609-.799805,0-1.469727.283203-2.009766.849609-.540039.566895-.810059,1.376953-.810059,2.430176,0,1.053711.263184,1.863281.790039,2.430176.526367.566895,1.189941.850098,1.989746.850098.506836,0,.983398-.123535,1.430176-.370117Z"/>
  <path d="M169.199951,67.669922v11.080078h-2.819824v-1.399902c-.359863.47998-.830078.856934-1.410156,1.129883s-1.209961.410156-1.889648.410156c-.867188,0-1.633789-.183105-2.300293-.550293-.666992-.366211-1.189941-.90625-1.569824-1.619629s-.570312-1.563477-.570312-2.550293v-6.5h2.800293v6.100098c0,.879883.219727,1.556641.660156,2.029785.439941.473633,1.039551.709961,1.799805.709961.772949,0,1.379883-.236328,1.819824-.709961.439941-.473145.660156-1.149902.660156-2.029785v-6.100098h2.819824Z"/>
  <path d="M181.500244,68.759766c.812988.833496,1.219727,1.99707,1.219727,3.490234v6.5h-2.799805v-6.120117c0-.879883-.220215-1.556641-.660156-2.029785s-1.040039-.709961-1.799805-.709961c-.773438,0-1.383789.236816-1.830078.709961-.446777.473145-.669922,1.149902-.669922,2.029785v6.120117h-2.800293v-11.080078h2.800293v1.379883c.373047-.47998.849609-.856445,1.429688-1.129883.580078-.272949,1.216797-.410156,1.910156-.410156,1.319824,0,2.386719.416992,3.200195,1.25Z"/>
  <path d="M185.529541,70.189941c.446289-.866699,1.056641-1.533203,1.830078-2,.772949-.466309,1.632812-.699707,2.580078-.699707.719727,0,1.40625.156738,2.05957.469727.65332.313477,1.17334.72998,1.560059,1.25v-5.259766h2.840332v14.799805h-2.840332v-1.640137c-.34668.546875-.833496.986816-1.459961,1.320312-.626953.333008-1.353516.5-2.179688.5-.933594,0-1.787109-.240234-2.560059-.720215-.773438-.47998-1.383789-1.156738-1.830078-2.029785-.446777-.873535-.669922-1.876953-.669922-3.010254,0-1.120117.223145-2.113281.669922-2.97998ZM193.179443,71.459961c-.26709-.486328-.626953-.859863-1.080078-1.120117-.453125-.259766-.939941-.389648-1.459961-.389648s-1,.126465-1.439941.379883-.796875.623535-1.069824,1.109863c-.273438.486816-.410156,1.063477-.410156,1.72998,0,.666992.136719,1.25.410156,1.75.272949.5.632812.883301,1.07959,1.149902.446777.26709.92334.400391,1.430176.400391.52002,0,1.006836-.130371,1.459961-.390137.453125-.260254.812988-.633301,1.080078-1.120117.266602-.486328.399902-1.069824.399902-1.75s-.133301-1.263184-.399902-1.75Z"/>
  <path d="M199.289795,70.189941c.446289-.866699,1.053223-1.533203,1.819824-2,.766602-.466309,1.623047-.699707,2.570312-.699707.826172,0,1.549805.166504,2.169922.5.619629.333008,1.116211.753418,1.489746,1.259766v-1.580078h2.820312v11.080078h-2.820312v-1.620117c-.359863.52002-.856934.950195-1.489746,1.290039-.633789.339844-1.36377.510254-2.189941.510254-.933594,0-1.783691-.240234-2.550293-.720215s-1.373535-1.156738-1.819824-2.029785c-.446777-.873535-.669922-1.876953-.669922-3.010254,0-1.120117.223145-2.113281.669922-2.97998ZM206.939697,71.459961c-.26709-.486328-.626953-.859863-1.080078-1.120117-.453125-.259766-.939941-.389648-1.459961-.389648s-1,.126465-1.439941.379883-.796875.623535-1.069824,1.109863c-.273438.486816-.410156,1.063477-.410156,1.72998,0,.666992.136719,1.25.410156,1.75.272949.5.632812.883301,1.07959,1.149902.446777.26709.92334.400391,1.430176.400391.52002,0,1.006836-.130371,1.459961-.390137.453125-.260254.812988-.633301,1.080078-1.120117.266602-.486328.399902-1.069824.399902-1.75s-.133301-1.263184-.399902-1.75Z"/>
  <path d="M217.309814,68.009766c.580078-.333008,1.243164-.5,1.990234-.5v2.94043h-.740234c-.879883,0-1.543457.206543-1.989746.619629-.446777.413574-.669922,1.133789-.669922,2.160156v5.52002h-2.800293v-11.080078h2.800293v1.720215c.359863-.586914.82959-1.046875,1.409668-1.380371Z"/>
  <path d="M221.569092,65.879883c-.32666-.312988-.489746-.703125-.489746-1.169922,0-.466309.163086-.856445.489746-1.169922.32666-.312988.736816-.470215,1.22998-.470215s.90332.157227,1.229492.470215c.327148.313477.490234.703613.490234,1.169922,0,.466797-.163086.856934-.490234,1.169922-.326172.313477-.736328.470215-1.229492.470215s-.90332-.156738-1.22998-.470215ZM224.178955,67.669922v11.080078h-2.799805v-11.080078h2.799805Z"/>
  <path d="M237.359619,74.049805h-8.100586c.066406.800293.34668,1.427246.839844,1.880371s1.100586.679688,1.820312.679688c1.040039,0,1.780273-.446289,2.219727-1.339844h3.020508c-.320312,1.066895-.933594,1.943359-1.839844,2.629883-.907227.687012-2.020508,1.030273-3.339844,1.030273-1.067383,0-2.023438-.236816-2.870117-.709961-.847656-.473145-1.506836-1.143555-1.980469-2.010254s-.709961-1.866699-.709961-3c0-1.146484.233398-2.15332.700195-3.02002s1.120117-1.533203,1.959961-2c.839844-.466309,1.806641-.699707,2.900391-.699707,1.052734,0,1.996094.226562,2.829102.679688.833984.453613,1.480469,1.097168,1.94043,1.930176.459961.833496.69043,1.790039.69043,2.870117,0,.399902-.027344.759766-.080078,1.07959ZM234.539307,72.169922c-.013672-.719727-.273438-1.296387-.780273-1.72998-.506836-.433105-1.126953-.649902-1.859375-.649902-.693359,0-1.277344.209961-1.75.629883-.473633.419922-.763672,1.003418-.870117,1.75h5.259766Z"/>
  <path d="M241.47876,78.439941c-.719727-.32666-1.290039-.77002-1.709961-1.330078s-.650391-1.179688-.69043-1.859863h2.820312c.053711.426758.263672.779785.629883,1.060059.367188.279785.823242.419922,1.370117.419922.533203,0,.950195-.106445,1.25-.319824s.450195-.486816.450195-.820312c0-.359863-.183594-.629883-.549805-.810059-.367188-.179688-.950195-.376465-1.75-.589844-.827148-.199707-1.503906-.406738-2.030273-.620117-.526367-.212891-.979492-.540039-1.360352-.97998-.379883-.439941-.569336-1.033203-.569336-1.779785,0-.613281.176758-1.17334.529297-1.680176.353516-.506348.860352-.90625,1.520508-1.199707s1.436523-.439941,2.330078-.439941c1.320312,0,2.373047.32959,3.160156.989746.785156.660156,1.21875,1.549805,1.298828,2.669922h-2.678711c-.040039-.439941-.223633-.790039-.550781-1.049805-.326172-.260254-.762695-.390137-1.30957-.390137-.506836,0-.896484.093262-1.169922.280273-.273438.186523-.410156.446777-.410156.779785,0,.373535.186523.656738.55957.850098.374023.193359.953125.389648,1.740234.589844.799805.200195,1.459961.406738,1.980469.620117.519531.213379.969727.543457,1.348633.989746.380859.447266.578125,1.037109.591797,1.77002,0,.640137-.177734,1.213379-.53125,1.720215s-.859375.90332-1.519531,1.189941-1.429688.430176-2.30957.430176c-.907227,0-1.720703-.163574-2.44043-.490234Z"/>
</svg>