<?xml version="1.0" encoding="UTF-8"?>
<svg id="Layer_1" data-name="Layer 1" xmlns="http://www.w3.org/2000/svg" viewBox="0 0 381 142">
  <path d="M142.669922,67.049805v3.5h4.700195v2.220215h-4.700195v3.700195h5.300781v2.279785h-8.100586v-13.97998h8.100586v2.279785h-5.300781Z"/>
  <path d="M150.660156,70.189941c.447266-.866699,1.056641-1.533203,1.830078-2,.773438-.466309,1.632812-.699707,2.580078-.699707.720703,0,1.40625.156738,2.060547.469727.652344.313477,1.172852.72998,1.55957,1.25v-5.259766h2.84082v14.799805h-2.84082v-1.640137c-.34668.546875-.833008.986816-1.459961,1.320312-.626953.333008-1.353516.5-2.179688.5-.933594,0-1.787109-.240234-2.560547-.720215s-1.382812-1.156738-1.830078-2.029785c-.446289-.873535-.669922-1.876953-.669922-3.010254,0-1.120117.223633-2.113281.669922-2.97998ZM158.310547,71.459961c-.267578-.486328-.626953-.859863-1.080078-1.120117-.453125-.259766-.939453-.389648-1.459961-.389648s-1,.126465-1.44043.379883c-.439453.253418-.796875.623535-1.069336,1.109863-.273438.486816-.410156,1.063477-.410156,1.72998,0,.666992.136719,1.25.410156,1.75.272461.5.632812.883301,1.079102,1.149902.447266.26709.923828.400391,1.430664.400391.520508,0,1.006836-.130371,1.459961-.390137.453125-.260254.8125-.633301,1.080078-1.120117.266602-.486328.400391-1.069824.400391-1.75s-.133789-1.263184-.400391-1.75Z"/>
  <path d="M174.929688,67.669922v11.080078h-2.819336v-1.399902c-.360352.47998-.830078.856934-1.410156,1.129883s-1.209961.410156-1.889648.410156c-.867188,0-1.633789-.183105-2.300781-.550293-.666016-.366211-1.189453-.90625-1.569336-1.619629s-.570312-1.563477-.570312-2.550293v-6.5h2.799805v6.100098c0,.879883.220703,1.556641.660156,2.029785.44043.473633,1.040039.709961,1.800781.709961.772461,0,1.378906-.236328,1.819336-.709961.44043-.473145.660156-1.149902.660156-2.029785v-6.100098h2.819336Z"/>
  <path d="M177.870117,70.200195c.466797-.860352,1.113281-1.526855,1.94043-2,.826172-.473145,1.773438-.709961,2.839844-.709961,1.373047,0,2.509766.343262,3.410156,1.029785.900391.687012,1.50293,1.649902,1.80957,2.890137h-3.020508c-.15918-.47998-.429688-.856934-.80957-1.130371-.379883-.272949-.849609-.409668-1.40918-.409668-.800781,0-1.433594.290039-1.900391.870117-.466797.57959-.700195,1.40332-.700195,2.469727,0,1.053711.233398,1.870117.700195,2.450195s1.099609.869629,1.900391.869629c1.132812,0,1.873047-.506348,2.21875-1.52002h3.020508c-.306641,1.200195-.913086,2.153809-1.819336,2.860352-.907227.706543-2.041016,1.060059-3.400391,1.060059-1.066406,0-2.013672-.236816-2.839844-.709961-.827148-.473145-1.473633-1.140137-1.94043-2-.466797-.860352-.700195-1.863281-.700195-3.010254,0-1.146484.233398-2.149902.700195-3.009766Z"/>
  <path d="M190.080078,70.189941c.446289-.866699,1.052734-1.533203,1.820312-2,.765625-.466309,1.623047-.699707,2.570312-.699707.826172,0,1.548828.166504,2.169922.5.619141.333008,1.115234.753418,1.489258,1.259766v-1.580078h2.820312v11.080078h-2.820312v-1.620117c-.360352.52002-.856445.950195-1.489258,1.290039-.634766.339844-1.364258.510254-2.19043.510254-.933594,0-1.78418-.240234-2.549805-.720215-.767578-.47998-1.374023-1.156738-1.820312-2.029785-.447266-.873535-.669922-1.876953-.669922-3.010254,0-1.120117.222656-2.113281.669922-2.97998ZM197.730469,71.459961c-.267578-.486328-.626953-.859863-1.080078-1.120117-.453125-.259766-.94043-.389648-1.460938-.389648-.519531,0-1,.126465-1.439453.379883s-.796875.623535-1.070312,1.109863c-.273438.486816-.410156,1.063477-.410156,1.72998,0,.666992.136719,1.25.410156,1.75s.632812.883301,1.080078,1.149902c.447266.26709.923828.400391,1.429688.400391.520508,0,1.007812-.130371,1.460938-.390137.453125-.260254.8125-.633301,1.080078-1.120117.265625-.486328.399414-1.069824.399414-1.75s-.133789-1.263184-.399414-1.75Z"/>
  <path d="M207.150391,69.970215v5.359863c0,.373535.089844.643555.269531.810059s.483398.25.910156.25h1.300781v2.359863h-1.760742c-2.360352,0-3.540039-1.146484-3.540039-3.439941v-5.339844h-1.320312v-2.300293h1.320312v-2.739746h2.820312v2.739746h2.480469v2.300293h-2.480469Z"/>
  <path d="M212.040039,65.879883c-.327148-.312988-.489258-.703125-.489258-1.169922,0-.466309.162109-.856445.489258-1.169922.327148-.312988.737305-.470215,1.229492-.470215.494141,0,.904297.157227,1.230469.470215.326172.313477.490234.703613.490234,1.169922,0,.466797-.164062.856934-.490234,1.169922-.326172.313477-.736328.470215-1.230469.470215-.492188,0-.902344-.156738-1.229492-.470215ZM214.650391,67.669922v11.080078h-2.800781v-11.080078h2.800781Z"/>
  <path d="M219.650391,78.220215c-.853516-.473145-1.523438-1.143555-2.009766-2.010254-.487305-.866699-.730469-1.866699-.730469-3s.25-2.133301.75-3,1.183594-1.536621,2.049805-2.009766,1.833008-.709961,2.899414-.709961c1.067383,0,2.033203.236816,2.900391.709961s1.550781,1.143066,2.050781,2.009766.75,1.866699.75,3-.257812,2.133301-.770508,3c-.513672.866699-1.207031,1.537109-2.080078,2.010254-.874023.473145-1.850586.709961-2.930664.709961-1.066406,0-2.026367-.236816-2.878906-.709961ZM223.959961,76.120117c.446289-.246582.803711-.616699,1.069336-1.110352.267578-.492676.400391-1.092773.400391-1.799805,0-1.053223-.276367-1.863281-.830078-2.430176-.552734-.566406-1.229492-.849609-2.029297-.849609-.800781,0-1.470703.283203-2.009766.849609-.541016.566895-.810547,1.376953-.810547,2.430176,0,1.053711.263672,1.863281.790039,2.430176s1.19043.850098,1.989258.850098c.507812,0,.984375-.123535,1.430664-.370117Z"/>
  <path d="M239.910156,68.759766c.8125.833496,1.219727,1.99707,1.219727,3.490234v6.5h-2.799805v-6.120117c0-.879883-.220703-1.556641-.660156-2.029785s-1.040039-.709961-1.799805-.709961c-.773438,0-1.383789.236816-1.830078.709961s-.669922,1.149902-.669922,2.029785v6.120117h-2.799805v-11.080078h2.799805v1.379883c.373047-.47998.849609-.856445,1.429688-1.129883.580078-.272949,1.216797-.410156,1.910156-.410156,1.319336,0,2.386719.416992,3.200195,1.25Z"/>
</svg>