<?xml version="1.0" encoding="UTF-8"?>
<svg id="Layer_1" data-name="Layer 1" xmlns="http://www.w3.org/2000/svg" viewBox="0 0 381 142">
  <path d="M68.060791,64.5v3.5h4.699707v2.220215h-4.699707v3.700195h5.299805v2.279785h-8.100098v-13.97998h8.100098v2.279785h-5.299805Z"/>
  <path d="M93.151123,66.209961c.833008.833496,1.25,1.99707,1.25,3.490234v6.5h-2.800293v-6.120117c0-.866211-.219727-1.529785-.659668-1.989746-.44043-.459961-1.040039-.689941-1.800293-.689941-.759766,0-1.363281.22998-1.810059.689941s-.669922,1.123535-.669922,1.989746v6.120117h-2.799805v-6.120117c0-.866211-.220215-1.529785-.660156-1.989746s-1.040039-.689941-1.799805-.689941c-.773438,0-1.383789.22998-1.830078.689941-.446777.459961-.669922,1.123535-.669922,1.989746v6.120117h-2.800293v-11.080078h2.800293v1.339844c.359863-.466309.822754-.833008,1.389648-1.099609s1.189941-.400391,1.870117-.400391c.866699,0,1.640137.183594,2.319824.550293.680176.366699,1.207031.890137,1.580078,1.569824.360352-.639648.883301-1.152832,1.570312-1.540039.686523-.38623,1.429688-.580078,2.22998-.580078,1.359863,0,2.456543.416992,3.290039,1.25Z"/>
  <path d="M99.300537,75.67041c-.853516-.473145-1.523438-1.143555-2.009766-2.010254-.486816-.866699-.72998-1.866699-.72998-3s.25-2.133301.75-3,1.183105-1.536621,2.049805-2.009766,1.833008-.709961,2.899902-.709961,2.033203.236816,2.899902.709961,1.550293,1.143066,2.050293,2.009766.75,1.866699.75,3-.256836,2.133301-.77002,3c-.513672.866699-1.207031,1.537109-2.080078,2.010254-.873535.473145-1.850098.709961-2.930176.709961-1.066895,0-2.026855-.236816-2.879883-.709961ZM103.610596,73.570312c.446777-.246582.803223-.616699,1.069824-1.110352.266602-.492676.400391-1.092773.400391-1.799805,0-1.053223-.276855-1.863281-.830078-2.430176-.553711-.566406-1.22998-.849609-2.030273-.849609-.799805,0-1.469727.283203-2.009766.849609-.540039.566895-.810059,1.376953-.810059,2.430176,0,1.053711.263184,1.863281.790039,2.430176.526367.566895,1.189941.850098,1.989746.850098.506836,0,.983398-.123535,1.430176-.370117Z"/>
  <path d="M113.480713,67.42041v5.359863c0,.373535.089844.643555.27002.810059.179688.166504.48291.25.909668.25h1.300293v2.359863h-1.760254c-2.359863,0-3.540039-1.146484-3.540039-3.439941v-5.339844h-1.319824v-2.300293h1.319824v-2.739746h2.820312v2.739746h2.47998v2.300293h-2.47998Z"/>
  <path d="M118.369873,63.330078c-.32666-.312988-.489746-.703125-.489746-1.169922,0-.466309.163086-.856445.489746-1.169922.32666-.312988.736816-.470215,1.22998-.470215s.90332.157227,1.22998.470215c.32666.313477.490234.703613.490234,1.169922,0,.466797-.163574.856934-.490234,1.169922-.32666.313477-.736816.470215-1.22998.470215s-.90332-.156738-1.22998-.470215ZM120.980225,65.120117v11.080078h-2.800293v-11.080078h2.800293Z"/>
  <path d="M125.980225,75.67041c-.853516-.473145-1.523438-1.143555-2.009766-2.010254-.486816-.866699-.72998-1.866699-.72998-3s.25-2.133301.75-3,1.183105-1.536621,2.049805-2.009766,1.833008-.709961,2.899902-.709961,2.033203.236816,2.899902.709961,1.550293,1.143066,2.050293,2.009766.75,1.866699.75,3-.256836,2.133301-.77002,3c-.513672.866699-1.207031,1.537109-2.080078,2.010254-.873535.473145-1.850098.709961-2.930176.709961-1.066895,0-2.026855-.236816-2.879883-.709961ZM130.290283,73.570312c.446777-.246582.803223-.616699,1.069824-1.110352.266602-.492676.400391-1.092773.400391-1.799805,0-1.053223-.276855-1.863281-.830078-2.430176-.553711-.566406-1.22998-.849609-2.030273-.849609-.799805,0-1.469727.283203-2.009766.849609-.540039.566895-.810059,1.376953-.810059,2.430176,0,1.053711.263184,1.863281.790039,2.430176.526367.566895,1.189941.850098,1.989746.850098.506836,0,.983398-.123535,1.430176-.370117Z"/>
  <path d="M146.240479,66.209961c.812988.833496,1.219727,1.99707,1.219727,3.490234v6.5h-2.799805v-6.120117c0-.879883-.220215-1.556641-.660156-2.029785s-1.040039-.709961-1.799805-.709961c-.773438,0-1.383789.236816-1.830078.709961-.446777.473145-.669922,1.149902-.669922,2.029785v6.120117h-2.800293v-11.080078h2.800293v1.379883c.373047-.47998.849609-.856445,1.429688-1.129883.580078-.272949,1.216797-.410156,1.910156-.410156,1.319824,0,2.386719.416992,3.200195,1.25Z"/>
  <path d="M150.269775,67.640137c.446289-.866699,1.053223-1.533203,1.819824-2,.766602-.466309,1.623047-.699707,2.570312-.699707.826172,0,1.549805.166504,2.169922.5.619629.333008,1.116211.753418,1.489746,1.259766v-1.580078h2.820312v11.080078h-2.820312v-1.620117c-.359863.52002-.856934.950195-1.489746,1.290039-.633789.339844-1.36377.510254-2.189941.510254-.933594,0-1.783691-.240234-2.550293-.720215s-1.373535-1.156738-1.819824-2.029785c-.446777-.873535-.669922-1.876953-.669922-3.010254,0-1.120117.223145-2.113281.669922-2.97998ZM157.919678,68.910156c-.26709-.486328-.626953-.859863-1.080078-1.120117-.453125-.259766-.939941-.389648-1.459961-.389648s-1,.126465-1.439941.379883-.796875.623535-1.069824,1.109863c-.273438.486816-.410156,1.063477-.410156,1.72998,0,.666992.136719,1.25.410156,1.75.272949.5.632812.883301,1.07959,1.149902.446777.26709.92334.400391,1.430176.400391.52002,0,1.006836-.130371,1.459961-.390137.453125-.260254.812988-.633301,1.080078-1.120117.266602-.486328.399902-1.069824.399902-1.75s-.133301-1.263184-.399902-1.75Z"/>
  <path d="M166.880127,61.400391v14.799805h-2.799805v-14.799805h2.799805Z"/>
  <path d="M184.450439,68.660156c-.353516.65332-.907227,1.180176-1.660156,1.580078-.753906.399902-1.703125.600098-2.850586.600098h-2.339844v5.359863h-2.799805v-13.959961h5.139648c1.080078,0,2,.187012,2.760742.560059.759766.373535,1.330078.886719,1.709961,1.540039s.569336,1.393066.569336,2.219727c0,.74707-.176758,1.446777-.529297,2.100098ZM181.540283,68.050293c.373047-.353027.55957-.850098.55957-1.490234,0-1.359863-.759766-2.040039-2.279297-2.040039h-2.220703v4.060059h2.220703c.772461,0,1.345703-.17627,1.719727-.529785Z"/>
  <path d="M191.370361,65.459961c.580078-.333008,1.243164-.5,1.990234-.5v2.94043h-.740234c-.879883,0-1.542969.206543-1.990234.619629-.446289.413574-.669922,1.133789-.669922,2.160156v5.52002h-2.799805v-11.080078h2.799805v1.720215c.360352-.586914.830078-1.046875,1.410156-1.380371Z"/>
  <path d="M205.6604,71.5h-8.099609c.066406.800293.34668,1.427246.839844,1.880371s1.100586.679688,1.820312.679688c1.040039,0,1.780273-.446289,2.219727-1.339844h3.020508c-.320312,1.066895-.933594,1.943359-1.84082,2.629883-.90625.687012-2.019531,1.030273-3.339844,1.030273-1.066406,0-2.023438-.236816-2.870117-.709961s-1.506836-1.143555-1.979492-2.010254c-.473633-.866699-.709961-1.866699-.709961-3,0-1.146484.233398-2.15332.700195-3.02002.46582-.866699,1.120117-1.533203,1.959961-2,.839844-.466309,1.806641-.699707,2.899414-.699707,1.053711,0,1.99707.226562,2.830078.679688.833008.453613,1.480469,1.097168,1.94043,1.930176.459961.833496.689453,1.790039.689453,2.870117,0,.399902-.026367.759766-.080078,1.07959ZM202.841064,69.620117c-.013672-.719727-.273438-1.296387-.780273-1.72998-.506836-.433105-1.126953-.649902-1.860352-.649902-.693359,0-1.276367.209961-1.75.629883-.472656.419922-.762695,1.003418-.870117,1.75h5.260742Z"/>
  <path d="M212.269775,65.450195c.632812-.339844,1.356445-.509766,2.169922-.509766.946289,0,1.803711.233398,2.570312.699707.766602.466797,1.373047,1.129883,1.820312,1.990234.446289.859863.669922,1.856934.669922,2.989746,0,1.133301-.223633,2.136719-.669922,3.010254-.447266.873047-1.053711,1.549805-1.820312,2.029785s-1.624023.720215-2.570312.720215c-.813477,0-1.530273-.166992-2.149414-.5-.620117-.333496-1.124023-.753418-1.510742-1.260254v6.859863h-2.799805v-16.359863h2.799805v1.600098c.360352-.506348.856445-.930176,1.490234-1.27002ZM216.229736,68.890137c-.273438-.486328-.633789-.856445-1.080078-1.109863s-.929688-.379883-1.450195-.379883c-.506836,0-.983398.129883-1.429688.389648-.447266.260254-.806641.637207-1.080078,1.130371s-.410156,1.073242-.410156,1.739746c0,.666992.136719,1.24707.410156,1.740234s.632812.869629,1.080078,1.129883c.446289.259766.922852.390137,1.429688.390137.520508,0,1.003906-.133301,1.450195-.400391.446289-.266602.806641-.646484,1.080078-1.139648s.410156-1.080078.410156-1.760254c0-.666504-.136719-1.243164-.410156-1.72998Z"/>
  <path d="M221.689697,67.640137c.446289-.866699,1.052734-1.533203,1.820312-2,.766602-.466309,1.623047-.699707,2.569336-.699707.827148,0,1.549805.166504,2.169922.5.620117.333008,1.117188.753418,1.490234,1.259766v-1.580078h2.820312v11.080078h-2.820312v-1.620117c-.360352.52002-.856445.950195-1.490234,1.290039-.632812.339844-1.363281.510254-2.189453.510254-.933594,0-1.783203-.240234-2.549805-.720215-.767578-.47998-1.374023-1.156738-1.820312-2.029785-.447266-.873535-.669922-1.876953-.669922-3.010254,0-1.120117.222656-2.113281.669922-2.97998ZM229.340088,68.910156c-.267578-.486328-.626953-.859863-1.080078-1.120117-.454102-.259766-.94043-.389648-1.459961-.389648-.520508,0-1,.126465-1.44043.379883s-.796875.623535-1.070312,1.109863c-.273438.486816-.410156,1.063477-.410156,1.72998,0,.666992.136719,1.25.410156,1.75s.633789.883301,1.080078,1.149902c.447266.26709.923828.400391,1.430664.400391.519531,0,1.005859-.130371,1.459961-.390137.453125-.260254.8125-.633301,1.080078-1.120117.265625-.486328.399414-1.069824.399414-1.75s-.133789-1.263184-.399414-1.75Z"/>
  <path d="M239.709229,65.459961c.580078-.333008,1.243164-.5,1.990234-.5v2.94043h-.740234c-.879883,0-1.542969.206543-1.990234.619629-.446289.413574-.669922,1.133789-.669922,2.160156v5.52002h-2.799805v-11.080078h2.799805v1.720215c.360352-.586914.830078-1.046875,1.410156-1.380371Z"/>
  <path d="M253.999268,71.5h-8.099609c.066406.800293.34668,1.427246.839844,1.880371s1.100586.679688,1.820312.679688c1.040039,0,1.780273-.446289,2.219727-1.339844h3.020508c-.320312,1.066895-.933594,1.943359-1.84082,2.629883-.90625.687012-2.019531,1.030273-3.339844,1.030273-1.066406,0-2.023438-.236816-2.870117-.709961s-1.506836-1.143555-1.979492-2.010254c-.473633-.866699-.709961-1.866699-.709961-3,0-1.146484.233398-2.15332.700195-3.02002.46582-.866699,1.120117-1.533203,1.959961-2,.839844-.466309,1.806641-.699707,2.899414-.699707,1.053711,0,1.99707.226562,2.830078.679688.833008.453613,1.480469,1.097168,1.94043,1.930176.459961.833496.689453,1.790039.689453,2.870117,0,.399902-.026367.759766-.080078,1.07959ZM251.179932,69.620117c-.013672-.719727-.273438-1.296387-.780273-1.72998-.506836-.433105-1.126953-.649902-1.860352-.649902-.693359,0-1.276367.209961-1.75.629883-.472656.419922-.762695,1.003418-.870117,1.75h5.260742Z"/>
  <path d="M256.269775,67.640137c.446289-.866699,1.056641-1.533203,1.830078-2,.773438-.466309,1.632812-.699707,2.580078-.699707.719727,0,1.40625.156738,2.05957.469727.65332.313477,1.172852.72998,1.560547,1.25v-5.259766h2.839844v14.799805h-2.839844v-1.640137c-.347656.546875-.833984.986816-1.459961,1.320312-.626953.333008-1.353516.5-2.180664.5-.933594,0-1.786133-.240234-2.55957-.720215s-1.383789-1.156738-1.830078-2.029785c-.447266-.873535-.669922-1.876953-.669922-3.010254,0-1.120117.222656-2.113281.669922-2.97998ZM263.920166,68.910156c-.267578-.486328-.626953-.859863-1.080078-1.120117-.454102-.259766-.94043-.389648-1.459961-.389648-.520508,0-1,.126465-1.44043.379883s-.796875.623535-1.070312,1.109863c-.273438.486816-.410156,1.063477-.410156,1.72998,0,.666992.136719,1.25.410156,1.75s.633789.883301,1.080078,1.149902c.447266.26709.923828.400391,1.430664.400391.519531,0,1.005859-.130371,1.459961-.390137.453125-.260254.8125-.633301,1.080078-1.120117.265625-.486328.399414-1.069824.399414-1.75s-.133789-1.263184-.399414-1.75Z"/>
  <path d="M279.418213,66.209961c.813477.833496,1.220703,1.99707,1.220703,3.490234v6.5h-2.800781v-6.120117c0-.879883-.219727-1.556641-.65918-2.029785-.44043-.473145-1.040039-.709961-1.800781-.709961-.773438,0-1.382812.236816-1.830078.709961-.446289.473145-.669922,1.149902-.669922,2.029785v6.120117h-2.799805v-11.080078h2.799805v1.379883c.373047-.47998.850586-.856445,1.430664-1.129883.580078-.272949,1.21582-.410156,1.90918-.410156,1.320312,0,2.386719.416992,3.200195,1.25Z"/>
  <path d="M293.718018,71.5h-8.099609c.066406.800293.34668,1.427246.839844,1.880371s1.100586.679688,1.820312.679688c1.040039,0,1.780273-.446289,2.219727-1.339844h3.020508c-.320312,1.066895-.933594,1.943359-1.84082,2.629883-.90625.687012-2.019531,1.030273-3.339844,1.030273-1.066406,0-2.023438-.236816-2.870117-.709961s-1.506836-1.143555-1.979492-2.010254c-.473633-.866699-.709961-1.866699-.709961-3,0-1.146484.233398-2.15332.700195-3.02002.46582-.866699,1.120117-1.533203,1.959961-2,.839844-.466309,1.806641-.699707,2.899414-.699707,1.053711,0,1.99707.226562,2.830078.679688.833008.453613,1.480469,1.097168,1.94043,1.930176.459961.833496.689453,1.790039.689453,2.870117,0,.399902-.026367.759766-.080078,1.07959ZM290.898682,69.620117c-.013672-.719727-.273438-1.296387-.780273-1.72998-.506836-.433105-1.126953-.649902-1.860352-.649902-.693359,0-1.276367.209961-1.75.629883-.472656.419922-.762695,1.003418-.870117,1.75h5.260742Z"/>
  <path d="M297.838135,75.890137c-.719727-.32666-1.290039-.77002-1.709961-1.330078s-.649414-1.179688-.689453-1.859863h2.819336c.053711.426758.263672.779785.630859,1.060059.366211.279785.822266.419922,1.369141.419922.533203,0,.950195-.106445,1.25-.319824.300781-.213379.450195-.486816.450195-.820312,0-.359863-.183594-.629883-.549805-.810059-.367188-.179688-.950195-.376465-1.75-.589844-.827148-.199707-1.503906-.406738-2.030273-.620117-.526367-.212891-.979492-.540039-1.359375-.97998s-.570312-1.033203-.570312-1.779785c0-.613281.176758-1.17334.530273-1.680176.352539-.506348.859375-.90625,1.519531-1.199707s1.436523-.439941,2.330078-.439941c1.320312,0,2.373047.32959,3.160156.989746.786133.660156,1.219727,1.549805,1.299805,2.669922h-2.679688c-.040039-.439941-.223633-.790039-.549805-1.049805-.327148-.260254-.763672-.390137-1.310547-.390137-.506836,0-.896484.093262-1.169922.280273-.273438.186523-.410156.446777-.410156.779785,0,.373535.186523.656738.560547.850098.373047.193359.953125.389648,1.739258.589844.800781.200195,1.459961.406738,1.980469.620117.519531.213379.969727.543457,1.349609.989746.379883.447266.577148,1.037109.59082,1.77002,0,.640137-.177734,1.213379-.530273,1.720215-.353516.506836-.860352.90332-1.520508,1.189941s-1.429688.430176-2.30957.430176c-.907227,0-1.719727-.163574-2.44043-.490234Z"/>
  <path d="M308.938721,75.890137c-.719727-.32666-1.290039-.77002-1.709961-1.330078s-.649414-1.179688-.689453-1.859863h2.819336c.053711.426758.263672.779785.630859,1.060059.366211.279785.822266.419922,1.369141.419922.533203,0,.950195-.106445,1.25-.319824.300781-.213379.450195-.486816.450195-.820312,0-.359863-.183594-.629883-.549805-.810059-.367188-.179688-.950195-.376465-1.75-.589844-.827148-.199707-1.503906-.406738-2.030273-.620117-.526367-.212891-.979492-.540039-1.359375-.97998s-.570312-1.033203-.570312-1.779785c0-.613281.176758-1.17334.530273-1.680176.352539-.506348.859375-.90625,1.519531-1.199707s1.436523-.439941,2.330078-.439941c1.320312,0,2.373047.32959,3.160156.989746.786133.660156,1.219727,1.549805,1.299805,2.669922h-2.679688c-.040039-.439941-.223633-.790039-.549805-1.049805-.327148-.260254-.763672-.390137-1.310547-.390137-.506836,0-.896484.093262-1.169922.280273-.273438.186523-.410156.446777-.410156.779785,0,.373535.186523.656738.560547.850098.373047.193359.953125.389648,1.739258.589844.800781.200195,1.459961.406738,1.980469.620117.519531.213379.969727.543457,1.349609.989746.379883.447266.577148,1.037109.59082,1.77002,0,.640137-.177734,1.213379-.530273,1.720215-.353516.506836-.860352.90332-1.520508,1.189941s-1.429688.430176-2.30957.430176c-.907227,0-1.719727-.163574-2.44043-.490234Z"/>
</svg>