<?xml version="1.0" encoding="UTF-8"?>
<svg id="Layer_1" data-name="Layer 1" xmlns="http://www.w3.org/2000/svg" viewBox="0 0 381 142">
  <path d="M85.301514,73.889893h4.599609v2.220215h-7.399902v-13.959961h2.800293v11.739746Z"/>
  <path d="M102.101807,71.409912h-8.100098c.066406.800293.34668,1.427246.839844,1.880371s1.100098.679688,1.820312.679688c1.040039,0,1.779785-.446289,2.219727-1.339844h3.02002c-.319824,1.066895-.933105,1.943359-1.839844,2.629883-.906738.687012-2.02002,1.030273-3.339844,1.030273-1.066895,0-2.023438-.236816-2.870117-.709961-.847168-.473145-1.506836-1.143555-1.97998-2.010254-.473633-.866699-.709961-1.866699-.709961-3,0-1.146484.23291-2.15332.699707-3.02002s1.120117-1.533203,1.959961-2c.840332-.466309,1.806641-.699707,2.900391-.699707,1.052734,0,1.996582.226562,2.82959.679688.833496.453613,1.47998,1.097168,1.94043,1.930176.459961.833496.689941,1.790039.689941,2.870117,0,.399902-.026855.759766-.080078,1.07959ZM99.281494,69.530029c-.013184-.719727-.273438-1.296387-.779785-1.72998-.506836-.433105-1.126953-.649902-1.859863-.649902-.693359,0-1.276855.209961-1.75.629883-.473633.419922-.763672,1.003418-.870117,1.75h5.259766Z"/>
  <path d="M110.941162,65.340088c.626465.32666,1.120117.75,1.47998,1.27002v-1.580078h2.820312v11.160156c0,1.026367-.207031,1.942871-.620117,2.75-.413574.806641-1.033691,1.446289-1.859863,1.919922-.827148.473145-1.827148.709961-3,.709961-1.57373,0-2.86377-.366699-3.870117-1.100098-1.006836-.733398-1.577148-1.733398-1.709961-3h2.779785c.146484.506836.463379.910156.950195,1.209961.486328.300293,1.07666.450195,1.77002.450195.812988,0,1.473145-.243652,1.97998-.72998.506348-.486816.759766-1.223633.759766-2.209961v-1.720215c-.359863.52002-.856934.953613-1.489746,1.300293-.633789.346191-1.356934.52002-2.169922.52002-.933594,0-1.787109-.240234-2.560059-.720215-.773438-.47998-1.383789-1.156738-1.830078-2.029785-.446777-.873535-.669922-1.876953-.669922-3.010254,0-1.120117.223145-2.113281.669922-2.97998.446289-.866699,1.053223-1.533203,1.819824-2,.766602-.466309,1.623047-.699707,2.570312-.699707.826172,0,1.552734.163086,2.179688.489746ZM112.02124,68.820068c-.26709-.486328-.626953-.859863-1.080078-1.120117-.453125-.259766-.939941-.389648-1.459961-.389648s-1,.126465-1.439941.379883-.796875.623535-1.069824,1.109863c-.273438.486816-.410156,1.063477-.410156,1.72998,0,.666992.136719,1.25.410156,1.75.272949.5.632812.883301,1.07959,1.149902.446777.26709.92334.400391,1.430176.400391.52002,0,1.006836-.130371,1.459961-.390137.453125-.260254.812988-.633301,1.080078-1.120117.266602-.486328.399902-1.069824.399902-1.75s-.133301-1.263184-.399902-1.75Z"/>
  <path d="M118.131592,67.550049c.446289-.866699,1.053223-1.533203,1.819824-2,.766602-.466309,1.623047-.699707,2.570312-.699707.826172,0,1.549805.166504,2.169922.5.619629.333008,1.116211.753418,1.489746,1.259766v-1.580078h2.820312v11.080078h-2.820312v-1.620117c-.359863.52002-.856934.950195-1.489746,1.290039-.633789.339844-1.36377.510254-2.189941.510254-.933594,0-1.783691-.240234-2.550293-.720215s-1.373535-1.156738-1.819824-2.029785c-.446777-.873535-.669922-1.876953-.669922-3.010254,0-1.120117.223145-2.113281.669922-2.97998ZM125.781494,68.820068c-.26709-.486328-.626953-.859863-1.080078-1.120117-.453125-.259766-.939941-.389648-1.459961-.389648s-1,.126465-1.439941.379883-.796875.623535-1.069824,1.109863c-.273438.486816-.410156,1.063477-.410156,1.72998,0,.666992.136719,1.25.410156,1.75.272949.5.632812.883301,1.07959,1.149902.446777.26709.92334.400391,1.430176.400391.52002,0,1.006836-.130371,1.459961-.390137.453125-.260254.812988-.633301,1.080078-1.120117.266602-.486328.399902-1.069824.399902-1.75s-.133301-1.263184-.399902-1.75Z"/>
  <path d="M134.741455,61.310303v14.799805h-2.800293v-14.799805h2.800293Z"/>
  <path d="M142.911377,65.420166c.620117-1.086426,1.466797-1.933105,2.540039-2.540039,1.073242-.606445,2.276855-.910156,3.609863-.910156,1.560059,0,2.926758.399902,4.100098,1.200195,1.17334.799805,1.993164,1.906738,2.459961,3.319824h-3.219727c-.320312-.666504-.77002-1.166504-1.350098-1.5-.580078-.333008-1.25-.5-2.010254-.5-.812988,0-1.536621.189941-2.169922.570312-.633301.379883-1.126953.916504-1.47998,1.609863-.353516.693359-.529785,1.506836-.529785,2.439941,0,.919922.17627,1.72998.529785,2.430176.353027.699707.84668,1.239746,1.47998,1.619629.633301.380371,1.356934.570312,2.169922.570312.760254,0,1.430176-.169922,2.010254-.510254.580078-.339844,1.029785-.842773,1.350098-1.509766h3.219727c-.466797,1.426758-1.283203,2.536621-2.449707,3.330078-1.166992.793457-2.537109,1.189941-4.110352,1.189941-1.333008,0-2.536621-.303223-3.609863-.910156-1.073242-.606445-1.919922-1.450195-2.540039-2.529785-.620117-1.080078-.929688-2.306641-.929688-3.680176,0-1.373047.30957-2.603027.929688-3.689941Z"/>
  <path d="M160.260986,75.580322c-.853516-.473145-1.523438-1.143555-2.009766-2.010254-.486816-.866699-.72998-1.866699-.72998-3s.25-2.133301.75-3,1.183105-1.536621,2.049805-2.009766,1.833008-.709961,2.899902-.709961,2.033203.236816,2.899902.709961,1.550293,1.143066,2.050293,2.009766.75,1.866699.75,3-.256836,2.133301-.77002,3c-.513672.866699-1.207031,1.537109-2.080078,2.010254-.873535.473145-1.850098.709961-2.930176.709961-1.066895,0-2.026855-.236816-2.879883-.709961ZM164.571045,73.480225c.446777-.246582.803223-.616699,1.069824-1.110352.266602-.492676.400391-1.092773.400391-1.799805,0-1.053223-.276855-1.863281-.830078-2.430176-.553711-.566406-1.22998-.849609-2.030273-.849609-.799805,0-1.469727.283203-2.009766.849609-.540039.566895-.810059,1.376953-.810059,2.430176,0,1.053711.263184,1.863281.790039,2.430176.526367.566895,1.189941.850098,1.989746.850098.506836,0,.983398-.123535,1.430176-.370117Z"/>
  <path d="M180.52124,66.119873c.812988.833496,1.219727,1.99707,1.219727,3.490234v6.5h-2.799805v-6.120117c0-.879883-.220215-1.556641-.660156-2.029785s-1.040039-.709961-1.799805-.709961c-.773438,0-1.383789.236816-1.830078.709961-.446777.473145-.669922,1.149902-.669922,2.029785v6.120117h-2.800293v-11.080078h2.800293v1.379883c.373047-.47998.849609-.856445,1.429688-1.129883.580078-.272949,1.216797-.410156,1.910156-.410156,1.319824,0,2.386719.416992,3.200195,1.25Z"/>
  <path d="M186.400635,75.800049c-.720215-.32666-1.290039-.77002-1.709961-1.330078-.42041-.560059-.650391-1.179688-.69043-1.859863h2.820312c.053223.426758.263184.779785.629883,1.060059.366699.279785.823242.419922,1.370117.419922.533203,0,.949707-.106445,1.25-.319824.299805-.213379.449707-.486816.449707-.820312,0-.359863-.183105-.629883-.549805-.810059-.366699-.179688-.950195-.376465-1.75-.589844-.82666-.199707-1.503418-.406738-2.029785-.620117-.526855-.212891-.97998-.540039-1.360352-.97998-.379883-.439941-.569824-1.033203-.569824-1.779785,0-.613281.176758-1.17334.529785-1.680176.353516-.506348.860352-.90625,1.52002-1.199707.660156-.293457,1.436523-.439941,2.330078-.439941,1.320312,0,2.373047.32959,3.160156.989746.786621.660156,1.219727,1.549805,1.299805,2.669922h-2.679688c-.040039-.439941-.223633-.790039-.550293-1.049805-.32666-.260254-.763184-.390137-1.310059-.390137-.506836,0-.896484.093262-1.169922.280273-.273438.186523-.410156.446777-.410156.779785,0,.373535.187012.656738.560059.850098.373535.193359.953125.389648,1.740234.589844.799805.200195,1.459961.406738,1.97998.620117s.969727.543457,1.350098.989746c.379883.447266.57666,1.037109.589844,1.77002,0,.640137-.176758,1.213379-.529785,1.720215-.353516.506836-.860352.90332-1.52002,1.189941-.660156.286621-1.430176.430176-2.310059.430176-.907227,0-1.720215-.163574-2.439941-.490234Z"/>
  <path d="M195.890381,63.23999c-.32666-.312988-.489746-.703125-.489746-1.169922,0-.466309.163086-.856445.489746-1.169922.32666-.312988.736816-.470215,1.22998-.470215s.90332.157227,1.230469.470215c.326172.313477.489258.703613.489258,1.169922,0,.466797-.163086.856934-.489258,1.169922-.327148.313477-.737305.470215-1.230469.470215s-.90332-.156738-1.22998-.470215ZM198.500244,65.030029v11.080078h-2.799805v-11.080078h2.799805Z"/>
  <path d="M201.4104,67.550049c.446289-.866699,1.056641-1.533203,1.830078-2,.773438-.466309,1.632812-.699707,2.580078-.699707.719727,0,1.40625.156738,2.05957.469727.65332.313477,1.172852.72998,1.560547,1.25v-5.259766h2.839844v14.799805h-2.839844v-1.640137c-.347656.546875-.833984.986816-1.459961,1.320312-.626953.333008-1.353516.5-2.180664.5-.933594,0-1.786133-.240234-2.55957-.720215s-1.383789-1.156738-1.830078-2.029785c-.447266-.873535-.669922-1.876953-.669922-3.010254,0-1.120117.222656-2.113281.669922-2.97998ZM209.060791,68.820068c-.267578-.486328-.626953-.859863-1.080078-1.120117-.454102-.259766-.94043-.389648-1.459961-.389648-.520508,0-1,.126465-1.44043.379883s-.796875.623535-1.070312,1.109863c-.273438.486816-.410156,1.063477-.410156,1.72998,0,.666992.136719,1.25.410156,1.75s.633789.883301,1.080078,1.149902c.447266.26709.923828.400391,1.430664.400391.519531,0,1.005859-.130371,1.459961-.390137.453125-.260254.8125-.633301,1.080078-1.120117.265625-.486328.399414-1.069824.399414-1.75s-.133789-1.263184-.399414-1.75Z"/>
  <path d="M225.439697,71.409912h-8.099609c.066406.800293.34668,1.427246.839844,1.880371s1.100586.679688,1.820312.679688c1.040039,0,1.780273-.446289,2.219727-1.339844h3.020508c-.320312,1.066895-.933594,1.943359-1.84082,2.629883-.90625.687012-2.019531,1.030273-3.339844,1.030273-1.066406,0-2.023438-.236816-2.870117-.709961s-1.506836-1.143555-1.979492-2.010254c-.473633-.866699-.709961-1.866699-.709961-3,0-1.146484.233398-2.15332.700195-3.02002.46582-.866699,1.120117-1.533203,1.959961-2,.839844-.466309,1.806641-.699707,2.899414-.699707,1.053711,0,1.99707.226562,2.830078.679688.833008.453613,1.480469,1.097168,1.94043,1.930176.459961.833496.689453,1.790039.689453,2.870117,0,.399902-.026367.759766-.080078,1.07959ZM222.620361,69.530029c-.013672-.719727-.273438-1.296387-.780273-1.72998-.506836-.433105-1.126953-.649902-1.860352-.649902-.693359,0-1.276367.209961-1.75.629883-.472656.419922-.762695,1.003418-.870117,1.75h5.260742Z"/>
  <path d="M231.968994,65.369873c.580078-.333008,1.243164-.5,1.990234-.5v2.94043h-.740234c-.879883,0-1.542969.206543-1.990234.619629-.446289.413574-.669922,1.133789-.669922,2.160156v5.52002h-2.799805v-11.080078h2.799805v1.720215c.360352-.586914.830078-1.046875,1.410156-1.380371Z"/>
  <path d="M235.989502,67.550049c.446289-.866699,1.052734-1.533203,1.820312-2,.766602-.466309,1.623047-.699707,2.569336-.699707.827148,0,1.549805.166504,2.169922.5.620117.333008,1.117188.753418,1.490234,1.259766v-1.580078h2.820312v11.080078h-2.820312v-1.620117c-.360352.52002-.856445.950195-1.490234,1.290039-.632812.339844-1.363281.510254-2.189453.510254-.933594,0-1.783203-.240234-2.549805-.720215-.767578-.47998-1.374023-1.156738-1.820312-2.029785-.447266-.873535-.669922-1.876953-.669922-3.010254,0-1.120117.222656-2.113281.669922-2.97998ZM243.639893,68.820068c-.267578-.486328-.626953-.859863-1.080078-1.120117-.454102-.259766-.94043-.389648-1.459961-.389648-.520508,0-1,.126465-1.44043.379883s-.796875.623535-1.070312,1.109863c-.273438.486816-.410156,1.063477-.410156,1.72998,0,.666992.136719,1.25.410156,1.75s.633789.883301,1.080078,1.149902c.447266.26709.923828.400391,1.430664.400391.519531,0,1.005859-.130371,1.459961-.390137.453125-.260254.8125-.633301,1.080078-1.120117.265625-.486328.399414-1.069824.399414-1.75s-.133789-1.263184-.399414-1.75Z"/>
  <path d="M253.059326,67.330322v5.359863c0,.373535.09082.643555.270508.810059s.483398.25.910156.25h1.299805v2.359863h-1.759766c-2.360352,0-3.540039-1.146484-3.540039-3.439941v-5.339844h-1.320801v-2.300293h1.320801v-2.739746h2.819336v2.739746h2.480469v2.300293h-2.480469Z"/>
  <path d="M257.949951,63.23999c-.327148-.312988-.490234-.703125-.490234-1.169922,0-.466309.163086-.856445.490234-1.169922.326172-.312988.736328-.470215,1.229492-.470215s.90332.157227,1.230469.470215c.326172.313477.489258.703613.489258,1.169922,0,.466797-.163086.856934-.489258,1.169922-.327148.313477-.737305.470215-1.230469.470215s-.90332-.156738-1.229492-.470215ZM260.559326,65.030029v11.080078h-2.799805v-11.080078h2.799805Z"/>
  <path d="M265.559326,75.580322c-.853516-.473145-1.523438-1.143555-2.009766-2.010254-.487305-.866699-.730469-1.866699-.730469-3s.25-2.133301.75-3,1.183594-1.536621,2.050781-2.009766c.866211-.473145,1.833008-.709961,2.899414-.709961s2.033203.236816,2.900391.709961c.866211.473145,1.549805,1.143066,2.049805,2.009766s.75,1.866699.75,3-.256836,2.133301-.770508,3c-.512695.866699-1.206055,1.537109-2.079102,2.010254-.874023.473145-1.850586.709961-2.930664.709961-1.066406,0-2.026367-.236816-2.879883-.709961ZM269.869873,73.480225c.446289-.246582.802734-.616699,1.069336-1.110352.266602-.492676.400391-1.092773.400391-1.799805,0-1.053223-.277344-1.863281-.830078-2.430176-.553711-.566406-1.230469-.849609-2.030273-.849609s-1.469727.283203-2.009766.849609c-.540039.566895-.810547,1.376953-.810547,2.430176,0,1.053711.263672,1.863281.790039,2.430176.527344.566895,1.19043.850098,1.990234.850098.506836,0,.983398-.123535,1.430664-.370117Z"/>
  <path d="M285.818115,66.119873c.813477.833496,1.220703,1.99707,1.220703,3.490234v6.5h-2.800781v-6.120117c0-.879883-.219727-1.556641-.65918-2.029785-.44043-.473145-1.040039-.709961-1.800781-.709961-.773438,0-1.382812.236816-1.830078.709961-.446289.473145-.669922,1.149902-.669922,2.029785v6.120117h-2.799805v-11.080078h2.799805v1.379883c.373047-.47998.850586-.856445,1.430664-1.129883.580078-.272949,1.21582-.410156,1.90918-.410156,1.320312,0,2.386719.416992,3.200195,1.25Z"/>
  <path d="M291.697998,75.800049c-.719727-.32666-1.290039-.77002-1.709961-1.330078s-.649414-1.179688-.689453-1.859863h2.819336c.053711.426758.263672.779785.630859,1.060059.366211.279785.822266.419922,1.369141.419922.533203,0,.950195-.106445,1.25-.319824.300781-.213379.450195-.486816.450195-.820312,0-.359863-.183594-.629883-.549805-.810059-.367188-.179688-.950195-.376465-1.75-.589844-.827148-.199707-1.503906-.406738-2.030273-.620117-.526367-.212891-.979492-.540039-1.359375-.97998s-.570312-1.033203-.570312-1.779785c0-.613281.176758-1.17334.530273-1.680176.352539-.506348.859375-.90625,1.519531-1.199707s1.436523-.439941,2.330078-.439941c1.320312,0,2.373047.32959,3.160156.989746.786133.660156,1.219727,1.549805,1.299805,2.669922h-2.679688c-.040039-.439941-.223633-.790039-.549805-1.049805-.327148-.260254-.763672-.390137-1.310547-.390137-.506836,0-.896484.093262-1.169922.280273-.273438.186523-.410156.446777-.410156.779785,0,.373535.186523.656738.560547.850098.373047.193359.953125.389648,1.739258.589844.800781.200195,1.459961.406738,1.980469.620117.519531.213379.969727.543457,1.349609.989746.379883.447266.577148,1.037109.59082,1.77002,0,.640137-.177734,1.213379-.530273,1.720215-.353516.506836-.860352.90332-1.520508,1.189941s-1.429688.430176-2.30957.430176c-.907227,0-1.719727-.163574-2.44043-.490234Z"/>
</svg>