<?xml version="1.0" encoding="UTF-8"?>
<svg id="Layer_1" data-name="Layer 1" xmlns="http://www.w3.org/2000/svg" viewBox="0 0 381 142">
  <path d="M66.960938,75.749756c-.779785-.333008-1.396484-.8125-1.849609-1.439453-.453613-.626953-.687012-1.367188-.700195-2.220703h3c.040039.574219.243164,1.027344.609863,1.360352s.870117.5,1.510254.5c.652832,0,1.166504-.15625,1.540039-.469727.373047-.313477.560059-.722656.560059-1.230469,0-.412109-.126953-.75293-.380371-1.019531s-.569824-.476562-.949707-.629883c-.380371-.15332-.903809-.323242-1.570312-.510742-.906738-.265625-1.643066-.529297-2.209961-.789062s-1.053223-.65332-1.459961-1.180664c-.406738-.526367-.609863-1.229492-.609863-2.110352,0-.826172.206543-1.545898.620117-2.15918.413086-.613281.993164-1.083008,1.739746-1.410156.746582-.32666,1.600098-.490234,2.560059-.490234,1.439941,0,2.609863.350098,3.510254,1.049805.899902.700195,1.396484,1.677734,1.489746,2.929688h-3.080078c-.026855-.479492-.22998-.875977-.609863-1.189453-.379883-.3125-.883301-.469727-1.510254-.469727-.546875,0-.983398.139648-1.30957.419922-.327148.280273-.490234.686523-.490234,1.219727,0,.373047.123047.683594.370117.929688.246582.248047.553223.447266.919922.600586s.883301.330078,1.549805.530273c.906738.266602,1.646973.533203,2.220215.799805s1.066406.666992,1.47998,1.200195c.413086.533203.620117,1.232422.620117,2.099609,0,.74707-.193359,1.439453-.580078,2.080078s-.953613,1.150391-1.700195,1.529297c-.746582.380859-1.633301.570312-2.659668.570312-.973633,0-1.850098-.166016-2.630371-.5Z"/>
  <path d="M77.101074,67.550537c.446289-.867188,1.053223-1.533203,1.819824-2s1.623047-.700195,2.570312-.700195c.826172,0,1.549805.166992,2.169922.5.619629.333008,1.116211.75293,1.489746,1.259766v-1.580078h2.820312v11.080078h-2.820312v-1.620117c-.359863.519531-.856934.950195-1.489746,1.290039-.633789.339844-1.36377.510742-2.189941.510742-.933594,0-1.783691-.240234-2.550293-.720703s-1.373535-1.15625-1.819824-2.029297c-.446777-.874023-.669922-1.876953-.669922-3.010742,0-1.120117.223145-2.113281.669922-2.979492ZM84.750977,68.820068c-.26709-.486328-.626953-.859375-1.080078-1.120117-.453125-.259766-.939941-.389648-1.459961-.389648s-1,.126953-1.439941.379883-.796875.624023-1.069824,1.110352c-.273438.486328-.410156,1.0625-.410156,1.729492s.136719,1.25.410156,1.75c.272949.5.632812.883789,1.07959,1.149414.446777.267578.92334.400391,1.430176.400391.52002,0,1.006836-.129883,1.459961-.389648.453125-.260742.812988-.633789,1.080078-1.120117.266602-.486328.399902-1.070312.399902-1.75s-.133301-1.263672-.399902-1.75Z"/>
  <path d="M95.990723,67.329834h-1.939941v8.780273h-2.839844v-8.780273h-1.260254v-2.299805h1.260254v-.55957c0-1.360352.38623-2.360352,1.159668-3.000488.773438-.639648,1.939941-.939941,3.5-.899902v2.359375c-.679688-.012695-1.15332.100586-1.419922.34082-.266602.239258-.399902.672852-.399902,1.299805v.459961h1.939941v2.299805Z"/>
  <path d="M108.230469,71.409912h-8.100098c.066406.800781.34668,1.427734.839844,1.880859s1.100098.679688,1.820312.679688c1.040039,0,1.779785-.447266,2.219727-1.339844h3.02002c-.319824,1.066406-.933105,1.943359-1.839844,2.628906-.906738.6875-2.02002,1.03125-3.339844,1.03125-1.066895,0-2.023438-.237305-2.870117-.710938-.847168-.472656-1.506836-1.142578-1.97998-2.009766-.473633-.867188-.709961-1.867188-.709961-3,0-1.146484.23291-2.15332.699707-3.019531.466797-.867188,1.120117-1.533203,1.959961-2,.840332-.466797,1.806641-.700195,2.900391-.700195,1.052734,0,1.996582.226562,2.82959.679688.833496.454102,1.47998,1.09668,1.94043,1.930664.459961.833008.689941,1.789062.689941,2.869141,0,.400391-.026855.759766-.080078,1.080078ZM105.410156,69.530029c-.013184-.719727-.273438-1.295898-.779785-1.729492-.506836-.433594-1.126953-.650391-1.859863-.650391-.693359,0-1.276855.209961-1.75.629883-.473633.419922-.763672,1.00293-.870117,1.75h5.259766Z"/>
  <path d="M113.810547,67.329834v5.360352c0,.374023.089844.643555.27002.80957.179688.166992.48291.25.909668.25h1.300293v2.360352h-1.760254c-2.359863,0-3.540039-1.146484-3.540039-3.44043v-5.339844h-1.319824v-2.299805h1.319824v-2.739746h2.820312v2.739746h2.47998v2.299805h-2.47998Z"/>
  <path d="M129.109863,65.030029l-6.859863,16.320312h-2.97998l2.399902-5.520508-4.439941-10.799805h3.140137l2.859863,7.740234,2.899902-7.740234h2.97998Z"/>
  <path d="M146.509766,76.110107l-1.52002-1.5c-1.293457,1.160156-2.873535,1.740234-4.740234,1.740234-1.026855,0-1.929688-.176758-2.709961-.530273-.779785-.353516-1.383301-.853516-1.810059-1.5s-.639648-1.396484-.639648-2.25c0-.919922.259766-1.746094.779785-2.480469.52002-.732422,1.286621-1.326172,2.299805-1.779297-.359863-.44043-.619629-.863281-.779785-1.269531-.160156-.407227-.240234-.84375-.240234-1.310547,0-.640625.166992-1.216797.5-1.730469.333496-.512695.810059-.916016,1.430176-1.209473s1.343262-.439941,2.169922-.439941c.840332,0,1.560059.159668,2.160156.479492.600098.320312,1.046387.74707,1.339844,1.280273s.419922,1.126953.380371,1.780273h-2.720215c.013184-.44043-.093262-.777344-.319824-1.009766-.227051-.233398-.533691-.350586-.92041-.350586-.373047,0-.683105.110352-.929688.330078-.24707.219727-.370117.50293-.370117.850586,0,.333008.100098.663086.299805.989258.200195.327148.526855.729492.97998,1.209961l3.52002,3.480469c.026855-.027344.046875-.052734.060059-.080078s.026855-.052734.040039-.080078l1.140137-1.900391h2.919922l-1.399902,2.460938c-.26709.519531-.553711,1.012695-.859863,1.479492l3.379883,3.339844h-3.439941ZM143.229492,72.869873l-3.439941-3.399414c-1.293457.573242-1.939941,1.386719-1.939941,2.439453,0,.599609.226562,1.103516.680176,1.509766.453125.407227,1.053223.610352,1.799805.610352,1.093262,0,2.060059-.386719,2.899902-1.160156Z"/>
  <path d="M165.109863,62.150146v2.259766h-5.819824v3.580078h4.459961v2.220703h-4.459961v5.899414h-2.800293v-13.959961h8.620117Z"/>
  <path d="M177.749512,65.030029v11.080078h-2.819824v-1.399414c-.359863.479492-.830078.856445-1.410156,1.128906-.580078.273438-1.209961.410156-1.889648.410156-.867188,0-1.633789-.182617-2.300293-.549805-.666992-.366211-1.189941-.90625-1.569824-1.620117-.379883-.712891-.570312-1.5625-.570312-2.549805v-6.5h2.800293v6.100586c0,.878906.219727,1.556641.660156,2.029297.439941.473633,1.039551.709961,1.799805.709961.772949,0,1.379883-.236328,1.819824-.709961.439941-.472656.660156-1.150391.660156-2.029297v-6.100586h2.819824Z"/>
  <path d="M183.969238,67.329834v5.360352c0,.374023.09082.643555.270508.80957.179688.166992.483398.25.910156.25h1.300293v2.360352h-1.760254c-2.360352,0-3.540039-1.146484-3.540039-3.44043v-5.339844h-1.320312v-2.299805h1.320312v-2.739746h2.819336v2.739746h2.480957v2.299805h-2.480957Z"/>
  <path d="M199.129883,65.030029v11.080078h-2.820312v-1.399414c-.359375.479492-.829102.856445-1.40918,1.128906-.580078.273438-1.209961.410156-1.890625.410156-.866211,0-1.632812-.182617-2.299805-.549805-.666992-.366211-1.189453-.90625-1.570312-1.620117-.379883-.712891-.569336-1.5625-.569336-2.549805v-6.5h2.799805v6.100586c0,.878906.219727,1.556641.660156,2.029297.439453.473633,1.040039.709961,1.799805.709961.773438,0,1.379883-.236328,1.820312-.709961.439453-.472656.65918-1.150391.65918-2.029297v-6.100586h2.820312Z"/>
  <path d="M206.299805,65.369873c.580078-.333008,1.243164-.5,1.990234-.5v2.94043h-.740234c-.879883,0-1.542969.207031-1.990234.619141-.446289.414062-.669922,1.134766-.669922,2.160156v5.520508h-2.799805v-11.080078h2.799805v1.719727c.360352-.585938.830078-1.046875,1.410156-1.379883Z"/>
  <path d="M220.588867,71.409912h-8.099609c.066406.800781.34668,1.427734.839844,1.880859s1.100586.679688,1.820312.679688c1.040039,0,1.780273-.447266,2.219727-1.339844h3.020508c-.320312,1.066406-.933594,1.943359-1.84082,2.628906-.90625.6875-2.019531,1.03125-3.339844,1.03125-1.066406,0-2.023438-.237305-2.870117-.710938-.84668-.472656-1.506836-1.142578-1.979492-2.009766-.473633-.867188-.709961-1.867188-.709961-3,0-1.146484.233398-2.15332.700195-3.019531.46582-.867188,1.120117-1.533203,1.959961-2s1.806641-.700195,2.899414-.700195c1.053711,0,1.99707.226562,2.830078.679688.833008.454102,1.480469,1.09668,1.94043,1.930664.459961.833008.689453,1.789062.689453,2.869141,0,.400391-.026367.759766-.080078,1.080078ZM217.769531,69.530029c-.013672-.719727-.273438-1.295898-.780273-1.729492s-1.126953-.650391-1.860352-.650391c-.693359,0-1.276367.209961-1.75.629883-.472656.419922-.762695,1.00293-.870117,1.75h5.260742Z"/>
  <path d="M237.519531,68.570068c-.353516.65332-.907227,1.179688-1.660156,1.580078-.753906.400391-1.703125.599609-2.850586.599609h-2.339844v5.360352h-2.799805v-13.959961h5.139648c1.080078,0,2,.1875,2.760742.560547.759766.373047,1.330078.886719,1.709961,1.539062.379883.654297.569336,1.393555.569336,2.220703,0,.746094-.176758,1.446289-.529297,2.099609ZM234.609375,67.960693c.373047-.353516.55957-.850586.55957-1.490234,0-1.360352-.759766-2.041016-2.279297-2.041016h-2.220703v4.060547h2.220703c.772461,0,1.345703-.175781,1.719727-.529297Z"/>
  <path d="M243.02832,61.310303v14.799805h-2.799805v-14.799805h2.799805Z"/>
  <path d="M245.938477,67.550537c.446289-.867188,1.052734-1.533203,1.820312-2,.766602-.466797,1.623047-.700195,2.569336-.700195.827148,0,1.549805.166992,2.169922.5s1.117188.75293,1.490234,1.259766v-1.580078h2.820312v11.080078h-2.820312v-1.620117c-.360352.519531-.856445.950195-1.490234,1.290039-.632812.339844-1.363281.510742-2.189453.510742-.933594,0-1.783203-.240234-2.549805-.720703-.767578-.480469-1.374023-1.15625-1.820312-2.029297-.447266-.874023-.669922-1.876953-.669922-3.010742,0-1.120117.222656-2.113281.669922-2.979492ZM253.588867,68.820068c-.267578-.486328-.626953-.859375-1.080078-1.120117-.454102-.259766-.94043-.389648-1.459961-.389648-.520508,0-1,.126953-1.44043.379883s-.796875.624023-1.070312,1.110352-.410156,1.0625-.410156,1.729492.136719,1.25.410156,1.75.633789.883789,1.080078,1.149414c.447266.267578.923828.400391,1.430664.400391.519531,0,1.005859-.129883,1.459961-.389648.453125-.260742.8125-.633789,1.080078-1.120117.265625-.486328.399414-1.070312.399414-1.75s-.133789-1.263672-.399414-1.75Z"/>
  <path d="M269.088867,66.119873c.813477.833008,1.220703,1.99707,1.220703,3.490234v6.5h-2.800781v-6.120117c0-.879883-.219727-1.556641-.65918-2.029297-.44043-.473633-1.040039-.710938-1.800781-.710938-.773438,0-1.382812.237305-1.830078.710938-.446289.472656-.669922,1.149414-.669922,2.029297v6.120117h-2.799805v-11.080078h2.799805v1.379883c.373047-.480469.850586-.856445,1.430664-1.129883.580078-.272461,1.21582-.410156,1.90918-.410156,1.320312,0,2.386719.416992,3.200195,1.25Z"/>
  <path d="M282.507812,66.119873c.813477.833008,1.220703,1.99707,1.220703,3.490234v6.5h-2.800781v-6.120117c0-.879883-.219727-1.556641-.65918-2.029297-.44043-.473633-1.040039-.710938-1.800781-.710938-.773438,0-1.382812.237305-1.830078.710938-.446289.472656-.669922,1.149414-.669922,2.029297v6.120117h-2.799805v-11.080078h2.799805v1.379883c.373047-.480469.850586-.856445,1.430664-1.129883.580078-.272461,1.21582-.410156,1.90918-.410156,1.320312,0,2.386719.416992,3.200195,1.25Z"/>
  <path d="M286.77832,63.23999c-.327148-.3125-.490234-.703125-.490234-1.169922,0-.466309.163086-.856445.490234-1.169922.326172-.312988.736328-.470215,1.229492-.470215s.90332.157227,1.230469.470215c.326172.313477.489258.703613.489258,1.169922,0,.466797-.163086.857422-.489258,1.169922-.327148.313477-.737305.470703-1.230469.470703s-.90332-.157227-1.229492-.470703ZM289.387695,65.030029v11.080078h-2.799805v-11.080078h2.799805Z"/>
  <path d="M301.688477,66.119873c.813477.833008,1.220703,1.99707,1.220703,3.490234v6.5h-2.800781v-6.120117c0-.879883-.219727-1.556641-.65918-2.029297-.44043-.473633-1.040039-.710938-1.800781-.710938-.773438,0-1.382812.237305-1.830078.710938-.446289.472656-.669922,1.149414-.669922,2.029297v6.120117h-2.799805v-11.080078h2.799805v1.379883c.373047-.480469.850586-.856445,1.430664-1.129883.580078-.272461,1.21582-.410156,1.90918-.410156,1.320312,0,2.386719.416992,3.200195,1.25Z"/>
  <path d="M312.289062,65.3396c.625977.327148,1.119141.75,1.479492,1.270508v-1.580078h2.820312v11.160156c0,1.026367-.207031,1.942383-.620117,2.75-.413086.806641-1.033203,1.446289-1.860352,1.919922-.826172.473633-1.826172.709961-3,.709961-1.573242,0-2.863281-.367188-3.870117-1.099609-1.006836-.734375-1.576172-1.734375-1.709961-3h2.780273c.146484.505859.462891.910156.950195,1.208984.486328.300781,1.076172.451172,1.769531.451172.813477,0,1.473633-.244141,1.980469-.730469s.759766-1.223633.759766-2.209961v-1.719727c-.360352.519531-.856445.953125-1.490234,1.299805-.632812.34668-1.356445.520508-2.169922.520508-.933594,0-1.786133-.240234-2.55957-.720703s-1.383789-1.15625-1.830078-2.029297c-.447266-.874023-.669922-1.876953-.669922-3.010742,0-1.120117.222656-2.113281.669922-2.979492.446289-.867188,1.052734-1.533203,1.820312-2,.766602-.466797,1.623047-.700195,2.569336-.700195.827148,0,1.553711.163086,2.180664.489258ZM313.369141,68.820068c-.267578-.486328-.626953-.859375-1.080078-1.120117-.454102-.259766-.94043-.389648-1.459961-.389648-.520508,0-1,.126953-1.44043.379883s-.796875.624023-1.070312,1.110352-.410156,1.0625-.410156,1.729492.136719,1.25.410156,1.75.633789.883789,1.080078,1.149414c.447266.267578.923828.400391,1.430664.400391.519531,0,1.005859-.129883,1.459961-.389648.453125-.260742.8125-.633789,1.080078-1.120117.265625-.486328.399414-1.070312.399414-1.75s-.133789-1.263672-.399414-1.75Z"/>
</svg>