<?xml version="1.0" encoding="UTF-8"?>
<svg id="Layer_1" data-name="Layer 1" xmlns="http://www.w3.org/2000/svg" viewBox="0 0 381 142">
  <path d="M147.550781,78.321835c-.780273-.333496-1.396484-.813477-1.849609-1.439941-.454102-.626953-.6875-1.366699-.701172-2.220215h3c.041016.573242.244141,1.026855.610352,1.359863.366211.333496.870117.5,1.510742.5.652344,0,1.166016-.15625,1.539062-.469727s.560547-.723145.560547-1.22998c0-.413086-.126953-.753418-.380859-1.02002-.25293-.266602-.569336-.476562-.949219-.629883-.380859-.15332-.904297-.323242-1.570312-.510254-.90625-.266602-1.642578-.529785-2.209961-.790039-.567383-.259766-1.053711-.652832-1.459961-1.180176-.40625-.526367-.609375-1.22998-.609375-2.109863,0-.82666.206055-1.546387.619141-2.159668.414062-.613281.994141-1.083496,1.740234-1.410156s1.599609-.490234,2.560547-.490234c1.439453,0,2.609375.350098,3.509766,1.050293.900391.699707,1.396484,1.676758,1.490234,2.929688h-3.080078c-.027344-.47998-.230469-.876465-.610352-1.189941-.379883-.312988-.883789-.469727-1.510742-.469727-.546875,0-.982422.139648-1.308594.419922-.328125.279785-.490234.687012-.490234,1.219727,0,.373535.123047.683594.369141.930176.24707.24707.553711.446777.919922.600098.367188.15332.883789.330078,1.550781.529785.90625.26709,1.646484.533691,2.219727.800293s1.066406.666504,1.479492,1.199707c.414062.533691.621094,1.233398.621094,2.100098,0,.74707-.193359,1.439941-.580078,2.080078s-.954102,1.149902-1.701172,1.529785c-.746094.380371-1.632812.570312-2.65918.570312-.973633,0-1.850586-.166504-2.629883-.5Z"/>
  <path d="M167.960938,73.981503h-8.100586c.066406.800293.34668,1.427246.839844,1.880371s1.100586.679688,1.820312.679688c1.040039,0,1.780273-.446289,2.219727-1.339844h3.019531c-.319336,1.066895-.932617,1.943359-1.839844,2.629883-.90625.687012-2.019531,1.030273-3.339844,1.030273-1.066406,0-2.023438-.236816-2.869141-.709961-.847656-.473145-1.507812-1.143555-1.980469-2.010254-.473633-.866699-.709961-1.866699-.709961-3,0-1.146484.233398-2.15332.700195-3.02002s1.119141-1.533203,1.958984-2c.84082-.466309,1.806641-.699707,2.900391-.699707,1.052734,0,1.99707.226562,2.830078.679688.833984.453613,1.480469,1.097168,1.94043,1.930176.459961.833496.69043,1.790039.69043,2.870117,0,.399902-.027344.759766-.080078,1.07959ZM165.140625,72.10162c-.013672-.719727-.273438-1.296387-.780273-1.72998-.506836-.433105-1.126953-.649902-1.860352-.649902-.693359,0-1.276367.209961-1.75.629883-.472656.419922-.763672,1.003418-.869141,1.75h5.259766Z"/>
  <path d="M173.080078,63.881893v14.799805h-2.800781v-14.799805h2.800781Z"/>
  <path d="M181.120117,69.901913h-1.94043v8.779785h-2.839844v-8.779785h-1.259766v-2.300293h1.259766v-.560059c0-1.359863.386719-2.359863,1.160156-3,.773438-.639648,1.939453-.939941,3.5-.899902v2.359863c-.679688-.013184-1.15332.100098-1.419922.340332-.266602.239746-.400391.67334-.400391,1.299805v.459961h1.94043v2.300293Z"/>
  <path d="M188.349609,67.991757c.620117-1.086426,1.466797-1.933105,2.540039-2.540039,1.073242-.606445,2.276367-.910156,3.610352-.910156,1.55957,0,2.925781.399902,4.099609,1.200195,1.173828.799805,1.993164,1.906738,2.459961,3.319824h-3.219727c-.320312-.666504-.769531-1.166504-1.349609-1.5-.580078-.333008-1.25-.5-2.010742-.5-.813477,0-1.536133.189941-2.169922.570312-.633789.379883-1.126953.916504-1.479492,1.609863-.353516.693359-.530273,1.506836-.530273,2.439941,0,.919922.176758,1.72998.530273,2.430176.352539.699707.845703,1.239746,1.479492,1.619629.633789.380371,1.356445.570312,2.169922.570312.760742,0,1.430664-.169922,2.010742-.510254.580078-.339844,1.029297-.842773,1.349609-1.509766h3.219727c-.466797,1.426758-1.283203,2.536621-2.450195,3.330078-1.166016.793457-2.537109,1.189941-4.109375,1.189941-1.333984,0-2.537109-.303223-3.610352-.910156-1.073242-.606445-1.919922-1.450195-2.540039-2.529785-.620117-1.080078-.929688-2.306641-.929688-3.680176,0-1.373047.30957-2.603027.929688-3.689941Z"/>
  <path d="M203.609375,70.12164c.447266-.866699,1.053711-1.533203,1.820312-2,.766602-.466309,1.623047-.699707,2.570312-.699707.826172,0,1.549805.166504,2.169922.5.619141.333008,1.116211.753418,1.490234,1.259766v-1.580078h2.820312v11.080078h-2.820312v-1.620117c-.360352.52002-.857422.950195-1.490234,1.290039-.633789.339844-1.363281.510254-2.189453.510254-.933594,0-1.78418-.240234-2.550781-.720215s-1.373047-1.156738-1.820312-2.029785c-.446289-.873535-.669922-1.876953-.669922-3.010254,0-1.120117.223633-2.113281.669922-2.97998ZM211.259766,71.391659c-.267578-.486328-.626953-.859863-1.080078-1.120117-.453125-.259766-.939453-.389648-1.459961-.389648s-1,.126465-1.44043.379883c-.439453.253418-.796875.623535-1.069336,1.109863-.273438.486816-.410156,1.063477-.410156,1.72998,0,.666992.136719,1.25.410156,1.75.272461.5.632812.883301,1.079102,1.149902.447266.26709.923828.400391,1.430664.400391.520508,0,1.006836-.130371,1.459961-.390137.453125-.260254.8125-.633301,1.080078-1.120117.266602-.486328.400391-1.069824.400391-1.75s-.133789-1.263184-.400391-1.75Z"/>
  <path d="M221.628906,67.941464c.580078-.333008,1.244141-.5,1.990234-.5v2.94043h-.740234c-.878906,0-1.542969.206543-1.989258.619629-.446289.413574-.669922,1.133789-.669922,2.160156v5.52002h-2.799805v-11.080078h2.799805v1.720215c.360352-.586914.829102-1.046875,1.40918-1.380371Z"/>
  <path d="M235.919922,73.981503h-8.099609c.066406.800293.345703,1.427246.839844,1.880371.492188.453125,1.099609.679688,1.820312.679688,1.039062,0,1.779297-.446289,2.21875-1.339844h3.020508c-.319336,1.066895-.932617,1.943359-1.839844,2.629883-.907227.687012-2.020508,1.030273-3.339844,1.030273-1.067383,0-2.023438-.236816-2.870117-.709961-.847656-.473145-1.506836-1.143555-1.980469-2.010254-.472656-.866699-.708984-1.866699-.708984-3,0-1.146484.232422-2.15332.699219-3.02002s1.120117-1.533203,1.959961-2c.84082-.466309,1.806641-.699707,2.900391-.699707,1.052734,0,1.99707.226562,2.829102.679688.833984.453613,1.480469,1.097168,1.941406,1.930176.458984.833496.689453,1.790039.689453,2.870117,0,.399902-.027344.759766-.080078,1.07959ZM233.099609,72.10162c-.013672-.719727-.273438-1.296387-.779297-1.72998-.507812-.433105-1.126953-.649902-1.860352-.649902-.693359,0-1.276367.209961-1.75.629883s-.763672,1.003418-.870117,1.75h5.259766Z"/>
</svg>