<?xml version="1.0" encoding="UTF-8"?>
<svg id="Layer_1" data-name="Layer 1" xmlns="http://www.w3.org/2000/svg" viewBox="0 0 381 142">
  <path d="M111.84082,75.080322c-.779785-.333496-1.396484-.813477-1.849609-1.439941-.453613-.626953-.687012-1.366699-.700195-2.220215h3c.040039.573242.243164,1.026855.609863,1.359863.366699.333496.870117.5,1.510254.5.652832,0,1.166504-.15625,1.540039-.469727.373047-.313477.560059-.723145.560059-1.22998,0-.413086-.126953-.753418-.380371-1.02002s-.569824-.476562-.949707-.629883c-.380371-.15332-.903809-.323242-1.570312-.510254-.906738-.266602-1.643066-.529785-2.209961-.790039-.566895-.259766-1.053223-.652832-1.459961-1.180176-.406738-.526367-.609863-1.22998-.609863-2.109863,0-.82666.206543-1.546387.620117-2.159668.413086-.613281.993164-1.083496,1.739746-1.410156s1.600098-.490234,2.560059-.490234c1.439941,0,2.609863.350098,3.510254,1.050293.899902.699707,1.396484,1.676758,1.489746,2.929688h-3.080078c-.026855-.47998-.22998-.876465-.609863-1.189941-.379883-.312988-.883301-.469727-1.510254-.469727-.546875,0-.983398.139648-1.30957.419922-.327148.279785-.490234.687012-.490234,1.219727,0,.373535.123047.683594.370117.930176.246582.24707.553223.446777.919922.600098s.883301.330078,1.549805.529785c.906738.26709,1.646973.533691,2.220215.800293s1.066406.666504,1.47998,1.199707c.413086.533691.620117,1.233398.620117,2.100098,0,.74707-.193359,1.439941-.580078,2.080078s-.953613,1.149902-1.700195,1.529785c-.746582.380371-1.633301.570312-2.659668.570312-.973633,0-1.850098-.166504-2.630371-.5Z"/>
  <path d="M132.490723,64.360107v11.080078h-2.819824v-1.399902c-.359863.47998-.830078.856934-1.410156,1.129883s-1.209961.410156-1.889648.410156c-.867188,0-1.633789-.183105-2.300293-.550293-.666992-.366211-1.189941-.90625-1.569824-1.619629s-.570312-1.563477-.570312-2.550293v-6.5h2.800293v6.100098c0,.879883.219727,1.556641.660156,2.029785.439941.473633,1.039551.709961,1.799805.709961.772949,0,1.379883-.236328,1.819824-.709961.439941-.473145.660156-1.149902.660156-2.029785v-6.100098h2.819824Z"/>
  <path d="M139.740234,64.690186c.633301-.339844,1.356445-.509766,2.169922-.509766.946777,0,1.803223.233398,2.570312.699707.766602.466797,1.373047,1.129883,1.819824,1.990234.446777.859863.669922,1.856934.669922,2.989746,0,1.133301-.223145,2.136719-.669922,3.010254-.446777.873047-1.053223,1.549805-1.819824,2.029785-.76709.47998-1.623535.720215-2.570312.720215-.813477,0-1.529785-.166992-2.149902-.5-.620117-.333496-1.123535-.753418-1.509766-1.260254v6.859863h-2.800293v-16.359863h2.800293v1.600098c.359863-.506348.856445-.930176,1.489746-1.27002ZM143.700195,68.130127c-.273438-.486328-.633301-.856445-1.080078-1.109863s-.929688-.379883-1.449707-.379883c-.506836,0-.983398.129883-1.430176.389648-.446777.260254-.806641.637207-1.080078,1.130371s-.409668,1.073242-.409668,1.739746c0,.666992.13623,1.24707.409668,1.740234s.633301.869629,1.080078,1.129883c.446777.259766.92334.390137,1.430176.390137.52002,0,1.00293-.133301,1.449707-.400391.446777-.266602.806641-.646484,1.080078-1.139648s.410156-1.080078.410156-1.760254c0-.666504-.136719-1.243164-.410156-1.72998Z"/>
  <path d="M153.500488,64.690186c.633301-.339844,1.356445-.509766,2.169922-.509766.946777,0,1.803223.233398,2.570312.699707.766602.466797,1.373047,1.129883,1.819824,1.990234.446777.859863.669922,1.856934.669922,2.989746,0,1.133301-.223145,2.136719-.669922,3.010254-.446777.873047-1.053223,1.549805-1.819824,2.029785-.76709.47998-1.623535.720215-2.570312.720215-.813477,0-1.529785-.166992-2.149902-.5-.620117-.333496-1.123535-.753418-1.509766-1.260254v6.859863h-2.800293v-16.359863h2.800293v1.600098c.359863-.506348.856445-.930176,1.489746-1.27002ZM157.460449,68.130127c-.273438-.486328-.633301-.856445-1.080078-1.109863s-.929688-.379883-1.449707-.379883c-.506836,0-.983398.129883-1.430176.389648-.446777.260254-.806641.637207-1.080078,1.130371s-.409668,1.073242-.409668,1.739746c0,.666992.13623,1.24707.409668,1.740234s.633301.869629,1.080078,1.129883c.446777.259766.92334.390137,1.430176.390137.52002,0,1.00293-.133301,1.449707-.400391.446777-.266602.806641-.646484,1.080078-1.139648s.410156-1.080078.410156-1.760254c0-.666504-.136719-1.243164-.410156-1.72998Z"/>
  <path d="M165.010254,74.9104c-.853516-.473145-1.523438-1.143555-2.009766-2.010254-.486816-.866699-.72998-1.866699-.72998-3s.25-2.133301.75-3,1.183105-1.536621,2.049805-2.009766,1.833008-.709961,2.899902-.709961,2.033203.236816,2.899902.709961,1.550293,1.143066,2.050293,2.009766.75,1.866699.75,3-.256836,2.133301-.77002,3c-.513672.866699-1.207031,1.537109-2.080078,2.010254-.873535.473145-1.850098.709961-2.930176.709961-1.066895,0-2.026855-.236816-2.879883-.709961ZM169.320312,72.810303c.446777-.246582.803223-.616699,1.069824-1.110352.266602-.492676.400391-1.092773.400391-1.799805,0-1.053223-.276855-1.863281-.830078-2.430176-.553711-.566406-1.22998-.849609-2.030273-.849609-.799805,0-1.469727.283203-2.009766.849609-.540039.566895-.810059,1.376953-.810059,2.430176,0,1.053711.263184,1.863281.790039,2.430176.526367.566895,1.189941.850098,1.989746.850098.506836,0,.983398-.123535,1.430176-.370117Z"/>
  <path d="M180.140137,64.699951c.580078-.333008,1.243164-.5,1.990234-.5v2.94043h-.740234c-.879883,0-1.543457.206543-1.989746.619629-.446777.413574-.669922,1.133789-.669922,2.160156v5.52002h-2.800293v-11.080078h2.800293v1.720215c.359863-.586914.82959-1.046875,1.409668-1.380371Z"/>
  <path d="M187.470703,66.6604v5.359863c0,.373535.089844.643555.27002.810059.179688.166504.48291.25.909668.25h1.300293v2.359863h-1.760254c-2.359863,0-3.540039-1.146484-3.540039-3.439941v-5.339844h-1.319824v-2.300293h1.319824v-2.739746h2.820312v2.739746h2.47998v2.300293h-2.47998Z"/>
  <path d="M199.319824,75.080322c-.779785-.333496-1.396484-.813477-1.849609-1.439941-.453613-.626953-.687012-1.366699-.700195-2.220215h3c.040039.573242.243164,1.026855.609863,1.359863.366699.333496.870117.5,1.510254.5.652832,0,1.166504-.15625,1.540527-.469727.373047-.313477.55957-.723145.55957-1.22998,0-.413086-.126953-.753418-.379883-1.02002-.253906-.266602-.570312-.476562-.950195-.629883-.380371-.15332-.903809-.323242-1.570312-.510254-.906738-.266602-1.643066-.529785-2.209961-.790039-.566895-.259766-1.053223-.652832-1.459961-1.180176-.406738-.526367-.609863-1.22998-.609863-2.109863,0-.82666.206543-1.546387.620117-2.159668.413086-.613281.993164-1.083496,1.739746-1.410156s1.600098-.490234,2.560059-.490234c1.439941,0,2.609863.350098,3.510254,1.050293.900391.699707,1.396484,1.676758,1.490234,2.929688h-3.080078c-.027344-.47998-.230469-.876465-.610352-1.189941-.379883-.312988-.883301-.469727-1.510254-.469727-.546875,0-.983398.139648-1.30957.419922-.327148.279785-.490234.687012-.490234,1.219727,0,.373535.123047.683594.370117.930176.246582.24707.553223.446777.919922.600098s.883301.330078,1.549805.529785c.906738.26709,1.646973.533691,2.220215.800293s1.066406.666504,1.480469,1.199707c.413086.533691.620117,1.233398.620117,2.100098,0,.74707-.193359,1.439941-.580078,2.080078s-.954102,1.149902-1.700195,1.529785c-.74707.380371-1.633789.570312-2.660156.570312-.973633,0-1.850098-.166504-2.630371-.5Z"/>
  <path d="M220.109375,64.360107l-6.859375,16.320312h-2.980469l2.400391-5.52002-4.44043-10.800293h3.140625l2.859375,7.740234,2.900391-7.740234h2.979492Z"/>
  <path d="M223.609375,75.130127c-.719727-.32666-1.289062-.77002-1.708984-1.330078-.420898-.560059-.650391-1.179688-.69043-1.859863h2.819336c.054688.426758.263672.779785.630859,1.060059.367188.279785.822266.419922,1.369141.419922.533203,0,.951172-.106445,1.25-.319824.300781-.213379.451172-.486816.451172-.820312,0-.359863-.183594-.629883-.550781-.810059-.367188-.179688-.949219-.376465-1.75-.589844-.826172-.199707-1.503906-.406738-2.029297-.620117-.527344-.212891-.980469-.540039-1.360352-.97998s-.570312-1.033203-.570312-1.779785c0-.613281.176758-1.17334.530273-1.680176.353516-.506348.860352-.90625,1.519531-1.199707.660156-.293457,1.4375-.439941,2.330078-.439941,1.320312,0,2.373047.32959,3.160156.989746s1.220703,1.549805,1.300781,2.669922h-2.679688c-.041016-.439941-.224609-.790039-.550781-1.049805-.326172-.260254-.763672-.390137-1.310547-.390137-.505859,0-.896484.093262-1.169922.280273-.273438.186523-.410156.446777-.410156.779785,0,.373535.1875.656738.560547.850098s.953125.389648,1.740234.589844c.800781.200195,1.458984.406738,1.980469.620117.519531.213379.96875.543457,1.349609.989746.378906.447266.576172,1.037109.589844,1.77002,0,.640137-.177734,1.213379-.529297,1.720215-.353516.506836-.861328.90332-1.521484,1.189941s-1.429688.430176-2.308594.430176c-.908203,0-1.720703-.163574-2.441406-.490234Z"/>
  <path d="M236.169922,66.6604v5.359863c0,.373535.09082.643555.270508.810059s.483398.25.910156.25h1.299805v2.359863h-1.759766c-2.360352,0-3.540039-1.146484-3.540039-3.439941v-5.339844h-1.320312v-2.300293h1.320312v-2.739746h2.819336v2.739746h2.480469v2.300293h-2.480469Z"/>
  <path d="M251.089844,70.73999h-8.099609c.066406.800293.34668,1.427246.839844,1.880371s1.100586.679688,1.820312.679688c1.040039,0,1.780273-.446289,2.219727-1.339844h3.020508c-.320312,1.066895-.933594,1.943359-1.84082,2.629883-.90625.687012-2.019531,1.030273-3.339844,1.030273-1.066406,0-2.023438-.236816-2.870117-.709961s-1.506836-1.143555-1.979492-2.010254c-.473633-.866699-.709961-1.866699-.709961-3,0-1.146484.233398-2.15332.700195-3.02002.46582-.866699,1.120117-1.533203,1.959961-2,.839844-.466309,1.806641-.699707,2.899414-.699707,1.053711,0,1.99707.226562,2.830078.679688.833008.453613,1.480469,1.097168,1.94043,1.930176.459961.833496.689453,1.790039.689453,2.870117,0,.399902-.026367.759766-.080078,1.07959ZM248.270508,68.860107c-.013672-.719727-.273438-1.296387-.780273-1.72998-.506836-.433105-1.126953-.649902-1.860352-.649902-.693359,0-1.276367.209961-1.75.629883-.472656.419922-.762695,1.003418-.870117,1.75h5.260742Z"/>
  <path d="M270.458984,65.449951c.833008.833496,1.25,1.99707,1.25,3.490234v6.5h-2.799805v-6.120117c0-.866211-.219727-1.529785-.660156-1.989746-.439453-.459961-1.040039-.689941-1.799805-.689941s-1.363281.22998-1.80957.689941c-.447266.459961-.669922,1.123535-.669922,1.989746v6.120117h-2.800781v-6.120117c0-.866211-.219727-1.529785-.65918-1.989746-.44043-.459961-1.040039-.689941-1.800781-.689941-.773438,0-1.382812.22998-1.830078.689941-.446289.459961-.669922,1.123535-.669922,1.989746v6.120117h-2.799805v-11.080078h2.799805v1.339844c.360352-.466309.823242-.833008,1.390625-1.099609.566406-.266602,1.189453-.400391,1.870117-.400391.866211,0,1.639648.183594,2.319336.550293.680664.366699,1.207031.890137,1.580078,1.569824.360352-.639648.882812-1.152832,1.570312-1.540039.686523-.38623,1.429688-.580078,2.229492-.580078,1.360352,0,2.457031.416992,3.290039,1.25Z"/>
</svg>