<?xml version="1.0" encoding="UTF-8"?>
<svg id="Layer_1" data-name="Layer 1" xmlns="http://www.w3.org/2000/svg" viewBox="0 0 381 142">
  <path d="M166.040039,62.150146v2.259766h-3.719727v11.700195h-2.800781v-11.700195h-3.719727v-2.259766h10.240234Z"/>
  <path d="M168.469727,63.23999c-.326172-.312988-.489258-.703125-.489258-1.169922,0-.466309.163086-.856445.489258-1.169922.327148-.312988.737305-.470215,1.230469-.470215s.90332.157227,1.229492.470215c.327148.313477.490234.703613.490234,1.169922,0,.466797-.163086.856934-.490234,1.169922-.326172.313477-.736328.470215-1.229492.470215s-.90332-.156738-1.230469-.470215ZM171.080078,65.030029v11.080078h-2.799805v-11.080078h2.799805Z"/>
  <path d="M191.089844,66.119873c.833008.833496,1.25,1.99707,1.25,3.490234v6.5h-2.799805v-6.120117c0-.866211-.219727-1.529785-.660156-1.989746s-1.040039-.689941-1.799805-.689941-1.363281.22998-1.810547.689941c-.446289.459961-.669922,1.123535-.669922,1.989746v6.120117h-2.799805v-6.120117c0-.866211-.219727-1.529785-.660156-1.989746-.439453-.459961-1.040039-.689941-1.799805-.689941-.773438,0-1.383789.22998-1.830078.689941s-.669922,1.123535-.669922,1.989746v6.120117h-2.799805v-11.080078h2.799805v1.339844c.360352-.466309.823242-.833008,1.389648-1.099609.567383-.266602,1.19043-.400391,1.870117-.400391.867188,0,1.640625.183594,2.320312.550293s1.207031.890137,1.580078,1.569824c.360352-.639648.882812-1.152832,1.570312-1.540039.686523-.38623,1.429688-.580078,2.229492-.580078,1.360352,0,2.457031.416992,3.290039,1.25Z"/>
  <path d="M195.389648,63.23999c-.326172-.312988-.489258-.703125-.489258-1.169922,0-.466309.163086-.856445.489258-1.169922.327148-.312988.737305-.470215,1.230469-.470215s.90332.157227,1.229492.470215c.327148.313477.490234.703613.490234,1.169922,0,.466797-.163086.856934-.490234,1.169922-.326172.313477-.736328.470215-1.229492.470215s-.90332-.156738-1.230469-.470215ZM198,65.030029v11.080078h-2.799805v-11.080078h2.799805Z"/>
  <path d="M210.299805,66.119873c.813477.833496,1.219727,1.99707,1.219727,3.490234v6.5h-2.799805v-6.120117c0-.879883-.219727-1.556641-.660156-2.029785-.439453-.473145-1.040039-.709961-1.799805-.709961-.773438,0-1.383789.236816-1.830078.709961s-.669922,1.149902-.669922,2.029785v6.120117h-2.799805v-11.080078h2.799805v1.379883c.373047-.47998.849609-.856445,1.429688-1.129883.580078-.272949,1.216797-.410156,1.910156-.410156,1.320312,0,2.386719.416992,3.200195,1.25Z"/>
  <path d="M220.899414,65.340088c.626953.32666,1.120117.75,1.480469,1.27002v-1.580078h2.820312v11.160156c0,1.026367-.207031,1.942871-.620117,2.75-.414062.806641-1.03418,1.446289-1.860352,1.919922-.827148.473145-1.827148.709961-3,.709961-1.573242,0-2.863281-.366699-3.870117-1.100098s-1.577148-1.733398-1.709961-3h2.780273c.146484.506836.462891.910156.950195,1.209961.486328.300293,1.076172.450195,1.769531.450195.813477,0,1.473633-.243652,1.980469-.72998.505859-.486816.759766-1.223633.759766-2.209961v-1.720215c-.360352.52002-.857422.953613-1.490234,1.300293-.633789.346191-1.356445.52002-2.169922.52002-.933594,0-1.787109-.240234-2.55957-.720215-.773438-.47998-1.383789-1.156738-1.830078-2.029785-.447266-.873535-.669922-1.876953-.669922-3.010254,0-1.120117.222656-2.113281.669922-2.97998.446289-.866699,1.052734-1.533203,1.819336-2,.766602-.466309,1.623047-.699707,2.570312-.699707.826172,0,1.552734.163086,2.179688.489746ZM221.979492,68.820068c-.266602-.486328-.626953-.859863-1.080078-1.120117-.453125-.259766-.939453-.389648-1.459961-.389648-.519531,0-1,.126465-1.439453.379883-.44043.253418-.796875.623535-1.070312,1.109863-.273438.486816-.410156,1.063477-.410156,1.72998,0,.666992.136719,1.25.410156,1.75s.632812.883301,1.080078,1.149902c.446289.26709.922852.400391,1.429688.400391.520508,0,1.006836-.130371,1.459961-.390137.453125-.260254.813477-.633301,1.080078-1.120117.266602-.486328.400391-1.069824.400391-1.75s-.133789-1.263184-.400391-1.75Z"/>
</svg>