<svg version="1.1" id="Layer_1" xmlns:x="ns_extend;" xmlns:i="ns_ai;" xmlns:graph="ns_graphs;" xmlns="http://www.w3.org/2000/svg" xmlns:xlink="http://www.w3.org/1999/xlink" x="0px" y="0px" viewBox="0 0 996.1 229.2" style="enable-background:new 0 0 996.1 229.2;" xml:space="preserve">
 <style type="text/css">
  .st0{fill:#BABCBC;}
	.st1{fill:url(#SVGID_1_);}
	.st2{fill:url(#SVGID_2_);}
	.st3{fill:url(#SVGID_3_);}
	.st4{fill:url(#SVGID_4_);}
	.st5{fill:url(#SVGID_5_);}
	.st6{fill:url(#SVGID_6_);}
	.st7{fill:url(#SVGID_7_);}
	.st8{fill:url(#SVGID_8_);}
	.st9{fill:url(#SVGID_9_);}
	.st10{fill:url(#SVGID_10_);}
	.st11{fill:url(#SVGID_11_);}
	.st12{fill:url(#SVGID_12_);}
	.st13{fill:url(#SVGID_13_);}
	.st14{fill:url(#SVGID_14_);}
	.st15{fill:url(#SVGID_15_);}
	.st16{fill:url(#SVGID_16_);}
	.st17{fill:url(#SVGID_17_);}
	.st18{fill:url(#SVGID_18_);}
	.st19{fill:url(#SVGID_19_);}
	.st20{fill:url(#SVGID_20_);}
	.st21{fill:url(#SVGID_21_);}
	.st22{fill:url(#SVGID_22_);}
	.st23{fill:url(#SVGID_23_);}
	.st24{fill:url(#SVGID_24_);}
	.st25{fill:url(#SVGID_25_);}
	.st26{fill:url(#SVGID_26_);}
	.st27{fill:url(#SVGID_27_);}
	.st28{fill:url(#SVGID_28_);}
	.st29{fill:url(#SVGID_29_);}
	.st30{fill:url(#SVGID_30_);}
	.st31{fill:url(#SVGID_31_);}
	.st32{fill:url(#SVGID_32_);}
	.st33{fill:url(#SVGID_33_);}
	.st34{fill:url(#SVGID_34_);}
	.st35{fill:url(#SVGID_35_);}
	.st36{fill:url(#SVGID_36_);}
	.st37{fill:url(#SVGID_37_);}
	.st38{fill:url(#SVGID_38_);}
	.st39{fill:url(#SVGID_39_);}
	.st40{fill:url(#SVGID_40_);}
	.st41{fill:url(#SVGID_41_);}
	.st42{fill:url(#SVGID_42_);}
	.st43{fill:url(#SVGID_43_);}
	.st44{fill:url(#SVGID_44_);}
	.st45{fill:url(#SVGID_45_);}
	.st46{fill:url(#SVGID_46_);}
	.st47{fill:url(#SVGID_47_);}
	.st48{fill:url(#SVGID_48_);}
	.st49{fill:#002584;}
 </style>
 <metadata>
  <sfw xmlns="ns_sfw;">
   <slices>
   </slices>
   <sliceSourceBounds bottomLeftOrigin="true" height="229.2" width="996.1" x="0" y="0">
   </sliceSourceBounds>
  </sfw>
 </metadata>
 <g>
  <path class="st0" d="M114.8,118.1L114.8,118.1c1.7,0,3-1.3,3-3l0,0c0-1.6-1.4-3-3-3l0,0c-1.7,0-3,1.4-3,3.1
		C111.9,116.8,113.2,118,114.8,118.1z">
  </path>
  <path class="st0" d="M114.8,91.5L114.8,91.5c1.7,0,3-1.4,3-3c0-1.7-1.4-3-3-3l0,0l0,0c-0.8,0-1.6,0.3-2.2,0.9
		c-1.2,1.1-1.3,3-0.1,4.2C113.1,91.1,113.9,91.5,114.8,91.5L114.8,91.5z">
  </path>
  <path class="st0" d="M138.6,98.7c-0.8-0.2-1.6-0.1-2.3,0.3c-1.5,0.8-2,2.6-1.2,4.1c0.4,0.8,1.1,1.3,2,1.5c0.3,0.1,0.5,0.1,0.8,0.1
		c0.5,0,1.1-0.1,1.5-0.4l0,0c0.7-0.4,1.2-1.1,1.4-1.8C141.2,100.8,140.3,99.2,138.6,98.7z">
  </path>
  <path class="st0" d="M139.4,125.6c-1.5-0.8-3.3-0.3-4.2,1.1c-0.8,1.5-0.3,3.3,1.1,4.1s3.3,0.3,4.1-1.1l0,0c0.4-0.7,0.5-1.5,0.3-2.3
		C140.6,126.7,140.1,126,139.4,125.6z">
  </path>
  <path class="st0" d="M114.9,138.6L114.9,138.6c-1.6,0-3,1.4-3,3l0,0c0,1.7,1.3,3,3,3l0,0c1.7,0,3-1.3,3-3c0,0,0,0,0-0.1
		c0-0.8-0.3-1.6-0.9-2.1C116.4,138.9,115.7,138.6,114.9,138.6z">
  </path>
  <path class="st0" d="M94.5,126.9c-0.4-0.7-1.1-1.2-1.8-1.4c-0.8-0.2-1.6-0.1-2.3,0.3c-1.5,0.8-2.1,2.6-1.3,4
		c0.5,1.1,1.7,1.7,2.8,1.6c0.5,0,1.1-0.1,1.5-0.4C94.8,130.2,95.3,128.3,94.5,126.9z">
  </path>
  <path class="st0" d="M90.2,104.4c0.5,0.3,1,0.4,1.5,0.4c0.3,0,0.5,0,0.8-0.1c1.6-0.4,2.6-2,2.3-3.6c-0.2-0.9-0.8-1.6-1.5-2l0,0
		c-1.5-0.8-3.3-0.3-4.1,1.1S88.8,103.6,90.2,104.4L90.2,104.4z">
  </path>
  <path class="st0" d="M167.3,105.5c-1.7,0.1-3,1.5-2.9,3.2c0.1,1.7,1.5,3,3.2,2.8h0.4l0,0c1.7-0.2,2.8-1.7,2.6-3.4
		S168.9,105.3,167.3,105.5L167.3,105.5z">
  </path>
  <path class="st0" d="M167.5,134.9c0.6-1.6-0.3-3.3-1.8-3.8s-3.3,0.3-3.8,1.8c-0.5,1.5,0.2,3.2,1.7,3.8c0.3,0.1,0.7,0.2,1.1,0.2
		C165.9,136.8,167.1,136,167.5,134.9z">
  </path>
  <path class="st0" d="M192.9,98.2c1.6-0.4,2.6-2.1,2.2-3.7c-0.4-1.6-2.1-2.5-3.7-2.1c-1.6,0.4-2.5,2.1-2.1,3.7
		c0.3,1.3,1.5,2.1,2.8,2.2C192.4,98.3,192.6,98.2,192.9,98.2L192.9,98.2z">
  </path>
  <path class="st0" d="M194.2,124.5h0.2c1.7,0.1,3.1-1.2,3.2-2.9s-1.2-3.1-2.9-3.2c-1.7-0.1-3.1,1.1-3.3,2.8
		C191.2,122.9,192.5,124.3,194.2,124.5L194.2,124.5z">
  </path>
  <path class="st0" d="M190.8,148.1c0.7-1.5,0-3.3-1.5-4c-0.8-0.3-1.6-0.4-2.4,0c-0.8,0.3-1.4,0.9-1.7,1.6c-0.7,1.5,0,3.3,1.6,4l0,0
		c0.4,0.2,0.8,0.2,1.2,0.2C189.2,150,190.3,149.3,190.8,148.1z">
  </path>
  <path class="st0" d="M216.9,84.8c0.8-0.3,1.4-0.8,1.8-1.5c0.4-0.7,0.4-1.6,0.2-2.3c-0.3-0.8-0.8-1.4-1.5-1.8
		c-1.5-0.6-3.3,0.1-3.9,1.6c-0.6,1.5,0.1,3.3,1.6,3.9c0.3,0.1,0.6,0.2,1,0.2C216.3,84.9,216.6,84.9,216.9,84.8L216.9,84.8z">
  </path>
  <path class="st0" d="M223.1,105.8c-1.3-1-3.2-0.8-4.2,0.4c-1,1.3-0.8,3.2,0.4,4.2c0.5,0.4,1.1,0.6,1.8,0.7h0.2c0.8,0,1.6-0.4,2.1-1
		C224.5,108.9,224.4,107,223.1,105.8C223.1,105.9,223.1,105.8,223.1,105.8L223.1,105.8z">
  </path>
  <path class="st0" d="M220,131.7c-1.7-0.3-3.3,0.8-3.6,2.4s0.8,3.3,2.4,3.6c0.2,0,0.4,0.1,0.6,0.1c1.7,0.1,3.1-1.2,3.1-2.8
		c0-0.7-0.2-1.4-0.6-1.9C221.5,132.3,220.8,131.9,220,131.7z">
  </path>
  <path class="st0" d="M212.6,157.4c-1.6-0.6-3.3,0.2-3.9,1.8c-0.6,1.6,0.2,3.3,1.8,3.9c0.3,0.1,0.5,0.2,0.8,0.2c0.3,0,0.7-0.1,1-0.2
		c0.8-0.3,1.4-0.8,1.7-1.6C214.7,159.9,214.1,158.1,212.6,157.4L212.6,157.4z">
  </path>
  <linearGradient id="SVGID_1_" gradientUnits="userSpaceOnUse" x1="114.705" y1="210.1" x2="114.705" y2="29.92" gradientTransform="matrix(1 0 0 -1 0 232)">
   <stop offset="0" style="stop-color:#0036FF">
   </stop>
   <stop offset="1" style="stop-color:#00FF6B">
   </stop>
  </linearGradient>
  <path class="st1" d="M114.7,53.2L114.7,53.2c-4.7,0-8.6,3.8-8.6,8.6s3.8,8.6,8.6,8.6l0,0c4.7,0,8.6-3.9,8.6-8.6
		C123.3,57.1,119.4,53.2,114.7,53.2L114.7,53.2z">
  </path>
  <linearGradient id="SVGID_2_" gradientUnits="userSpaceOnUse" x1="139.4178" y1="210.1" x2="139.4178" y2="29.92" gradientTransform="matrix(1 0 0 -1 0 232)">
   <stop offset="0" style="stop-color:#0036FF">
   </stop>
   <stop offset="1" style="stop-color:#00FF6B">
   </stop>
  </linearGradient>
  <path class="st2" d="M135.5,75.5c1.2,0.7,2.6,1,4,1c0.9,0,1.7-0.2,2.5-0.5c4.5-1.4,7-6.2,5.6-10.8c-1.4-4.5-6.2-7-10.8-5.6
		c-4.5,1.4-7,6.2-5.6,10.8C131.9,72.6,133.4,74.4,135.5,75.5L135.5,75.5z">
  </path>
  <linearGradient id="SVGID_3_" gradientUnits="userSpaceOnUse" x1="158.5258" y1="210.1" x2="158.5258" y2="29.92" gradientTransform="matrix(1 0 0 -1 0 232)">
   <stop offset="0" style="stop-color:#0036FF">
   </stop>
   <stop offset="1" style="stop-color:#00FF6B">
   </stop>
  </linearGradient>
  <path class="st3" d="M158.6,93.3c1.7,0,3.4-0.5,4.9-1.5l0,0c3.9-2.7,4.9-8.1,2.1-11.9c-2.7-3.9-8.1-4.9-12-2.2c0,0,0,0,0,0
		c-3.9,2.7-4.9,8.1-2.1,12C153.1,91.9,155.7,93.3,158.6,93.3L158.6,93.3z">
  </path>
  <linearGradient id="SVGID_4_" gradientUnits="userSpaceOnUse" x1="150.2167" y1="210.1" x2="150.2167" y2="29.92" gradientTransform="matrix(1 0 0 -1 0 232)">
   <stop offset="0" style="stop-color:#0036FF">
   </stop>
   <stop offset="1" style="stop-color:#00FF6B">
   </stop>
  </linearGradient>
  <path class="st4" d="M150.2,163.4c4.7,0,8.6-3.9,8.6-8.6c0-4.7-3.9-8.6-8.6-8.6c-2.1,0-4.1,0.8-5.7,2.2c-3.5,3.2-3.9,8.6-0.7,12.1
		l0,0c1.5,1.7,3.6,2.7,5.9,2.9L150.2,163.4z">
  </path>
  <linearGradient id="SVGID_5_" gradientUnits="userSpaceOnUse" x1="127.7054" y1="210.1" x2="127.7054" y2="29.92" gradientTransform="matrix(1 0 0 -1 0 232)">
   <stop offset="0" style="stop-color:#0036FF">
   </stop>
   <stop offset="1" style="stop-color:#00FF6B">
   </stop>
  </linearGradient>
  <path class="st5" d="M123.3,174c1.3,0.8,2.9,1.2,4.4,1.2c0.7,0,1.4-0.1,2.1-0.3c4.6-1.1,7.4-5.8,6.3-10.4
		c-1.1-4.6-5.8-7.4-10.4-6.3c-4.6,1.1-7.4,5.8-6.3,10.4c0,0,0,0,0,0l0,0C119.9,170.9,121.3,172.8,123.3,174z">
  </path>
  <linearGradient id="SVGID_6_" gradientUnits="userSpaceOnUse" x1="102.2213" y1="210.1" x2="102.2213" y2="29.92" gradientTransform="matrix(1 0 0 -1 0 232)">
   <stop offset="0" style="stop-color:#0036FF">
   </stop>
   <stop offset="1" style="stop-color:#00FF6B">
   </stop>
  </linearGradient>
  <path class="st6" d="M104.3,158.4c-4.6-1.1-9.2,1.8-10.3,6.4c-1.1,4.6,1.7,9.1,6.2,10.3c0.7,0.2,1.3,0.2,2,0.2
		c4.7,0,8.6-3.9,8.5-8.6C110.7,162.7,108,159.3,104.3,158.4L104.3,158.4z">
  </path>
  <linearGradient id="SVGID_7_" gradientUnits="userSpaceOnUse" x1="79.636" y1="210.1" x2="79.636" y2="29.92" gradientTransform="matrix(1 0 0 -1 0 232)">
   <stop offset="0" style="stop-color:#0036FF">
   </stop>
   <stop offset="1" style="stop-color:#00FF6B">
   </stop>
  </linearGradient>
  <path class="st7" d="M85.3,148.5c-3.6-3.1-9-2.8-12.1,0.7c-3.1,3.6-2.8,9,0.7,12.1c3.6,3.1,9,2.8,12.1-0.7c0,0,0,0,0,0
		C89.2,157.1,88.9,151.7,85.3,148.5z">
  </path>
  <linearGradient id="SVGID_8_" gradientUnits="userSpaceOnUse" x1="65.1263" y1="210.1" x2="65.1263" y2="29.92" gradientTransform="matrix(1 0 0 -1 0 232)">
   <stop offset="0" style="stop-color:#0036FF">
   </stop>
   <stop offset="1" style="stop-color:#00FF6B">
   </stop>
  </linearGradient>
  <path class="st8" d="M73.1,131c-1.7-4.4-6.6-6.7-11.1-5l0,0c-4.4,1.7-6.6,6.7-4.9,11.1c1.3,3.3,4.5,5.5,8,5.5
		c4.7,0,8.6-3.9,8.6-8.6C73.7,133,73.5,131.9,73.1,131L73.1,131z">
  </path>
  <linearGradient id="SVGID_9_" gradientUnits="userSpaceOnUse" x1="62.0873" y1="210.1" x2="62.0873" y2="29.92" gradientTransform="matrix(1 0 0 -1 0 232)">
   <stop offset="0" style="stop-color:#0036FF">
   </stop>
   <stop offset="1" style="stop-color:#00FF6B">
   </stop>
  </linearGradient>
  <path class="st9" d="M63,100.2L63,100.2c-4.7-0.5-8.9,3-9.4,7.7c-0.4,4.6,2.8,8.7,7.4,9.3c4.7,0.6,9-2.8,9.5-7.5
		C71.1,105.1,67.7,100.8,63,100.2C63,100.2,63,100.2,63,100.2z">
  </path>
  <linearGradient id="SVGID_10_" gradientUnits="userSpaceOnUse" x1="70.9627" y1="210.1" x2="70.9627" y2="29.92" gradientTransform="matrix(1 0 0 -1 0 232)">
   <stop offset="0" style="stop-color:#0036FF">
   </stop>
   <stop offset="1" style="stop-color:#00FF6B">
   </stop>
  </linearGradient>
  <path class="st10" d="M63.9,80.1c-2.7,3.9-1.7,9.3,2.2,11.9s9.3,1.7,11.9-2.2c2.7-3.9,1.7-9.2-2.2-11.9l0,0
		C71.9,75.1,66.6,76.1,63.9,80.1z">
  </path>
  <linearGradient id="SVGID_11_" gradientUnits="userSpaceOnUse" x1="89.9713" y1="210.1" x2="89.9713" y2="29.92" gradientTransform="matrix(1 0 0 -1 0 232)">
   <stop offset="0" style="stop-color:#0036FF">
   </stop>
   <stop offset="1" style="stop-color:#00FF6B">
   </stop>
  </linearGradient>
  <path class="st11" d="M86,60.4c-4.2,2.2-5.8,7.4-3.6,11.6c2.2,4.2,7.4,5.8,11.6,3.6s5.8-7.4,3.6-11.6c0,0,0,0,0,0l0,0
		C95.4,59.8,90.2,58.2,86,60.4z">
  </path>
  <linearGradient id="SVGID_12_" gradientUnits="userSpaceOnUse" x1="114.635" y1="210.1" x2="114.635" y2="29.92" gradientTransform="matrix(1 0 0 -1 0 232)">
   <stop offset="0" style="stop-color:#0036FF">
   </stop>
   <stop offset="1" style="stop-color:#00FF6B">
   </stop>
  </linearGradient>
  <path class="st12" d="M114.7,26.6L114.7,26.6c-4.7,0-8.6,3.8-8.6,8.6s3.8,8.6,8.6,8.6l0,0l0,0c4.7,0,8.6-3.9,8.6-8.6
		C123.2,30.5,119.4,26.6,114.7,26.6L114.7,26.6z">
  </path>
  <linearGradient id="SVGID_13_" gradientUnits="userSpaceOnUse" x1="140.539" y1="210.1" x2="140.539" y2="29.92" gradientTransform="matrix(1 0 0 -1 0 232)">
   <stop offset="0" style="stop-color:#0036FF">
   </stop>
   <stop offset="1" style="stop-color:#00FF6B">
   </stop>
  </linearGradient>
  <path class="st13" d="M137.8,47.6c4.5,1.5,9.4-0.9,10.9-5.3c0,0,0,0,0,0l0,0c1.4-4.5-1.1-9.3-5.6-10.8c-4.4-1.4-9,0.9-10.6,5.2
		C130.9,41.2,133.3,46.1,137.8,47.6z">
  </path>
  <linearGradient id="SVGID_14_" gradientUnits="userSpaceOnUse" x1="163.7093" y1="210.1" x2="163.7093" y2="29.92" gradientTransform="matrix(1 0 0 -1 0 232)">
   <stop offset="0" style="stop-color:#0036FF">
   </stop>
   <stop offset="1" style="stop-color:#00FF6B">
   </stop>
  </linearGradient>
  <path class="st14" d="M158.4,58.7c1.5,1.2,3.3,1.8,5.2,1.8c0.4,0,0.7,0,1.1-0.1c4.7-0.6,8-4.9,7.4-9.6s-4.9-8-9.6-7.4
		c-4.7,0.6-8,4.9-7.4,9.6C155.5,55.3,156.6,57.3,158.4,58.7L158.4,58.7z">
  </path>
  <linearGradient id="SVGID_15_" gradientUnits="userSpaceOnUse" x1="181.5268" y1="210.1" x2="181.5268" y2="29.92" gradientTransform="matrix(1 0 0 -1 0 232)">
   <stop offset="0" style="stop-color:#0036FF">
   </stop>
   <stop offset="1" style="stop-color:#00FF6B">
   </stop>
  </linearGradient>
  <path class="st15" d="M174.4,75.9c1.2,1.9,3.2,3.2,5.4,3.7c0.6,0.1,1.2,0.2,1.8,0.2c1.7,0,3.3-0.5,4.7-1.4l0,0
		c3.9-2.6,5-7.9,2.5-11.9c-2.6-4-7.9-5.1-11.9-2.6c-4,2.6-5.1,7.9-2.6,11.9C174.3,75.9,174.3,75.9,174.4,75.9L174.4,75.9z">
  </path>
  <linearGradient id="SVGID_16_" gradientUnits="userSpaceOnUse" x1="173.885" y1="210.1" x2="173.885" y2="29.92" gradientTransform="matrix(1 0 0 -1 0 232)">
   <stop offset="0" style="stop-color:#0036FF">
   </stop>
   <stop offset="1" style="stop-color:#00FF6B">
   </stop>
  </linearGradient>
  <path class="st16" d="M174.1,177.5c4.7-0.1,8.4-4,8.3-8.7c-0.1-4.7-4-8.4-8.7-8.3s-8.4,4-8.3,8.7c0.1,4.5,3.8,8.2,8.3,8.3H174.1z">
  </path>
  <linearGradient id="SVGID_17_" gradientUnits="userSpaceOnUse" x1="152.9964" y1="210.1" x2="152.9964" y2="29.92" gradientTransform="matrix(1 0 0 -1 0 232)">
   <stop offset="0" style="stop-color:#0036FF">
   </stop>
   <stop offset="1" style="stop-color:#00FF6B">
   </stop>
  </linearGradient>
  <path class="st17" d="M150.6,193.4c2.2,0.6,4.5,0.4,6.5-0.7c4.2-2.3,5.7-7.5,3.4-11.7c-1.1-2-2.9-3.5-5.1-4.1
		c-4.5-1.4-9.3,1.2-10.7,5.8c-0.7,2.2-0.4,4.6,0.7,6.6l0,0C146.5,191.3,148.4,192.7,150.6,193.4z">
  </path>
  <linearGradient id="SVGID_18_" gradientUnits="userSpaceOnUse" x1="128.212" y1="210.1" x2="128.212" y2="29.92" gradientTransform="matrix(1 0 0 -1 0 232)">
   <stop offset="0" style="stop-color:#0036FF">
   </stop>
   <stop offset="1" style="stop-color:#00FF6B">
   </stop>
  </linearGradient>
  <path class="st18" d="M123.2,200.7c1.5,1,3.2,1.6,5,1.6c0.5,0,1,0,1.4-0.1c4.7-0.8,7.8-5.2,7-9.9c-0.4-2.2-1.6-4.3-3.5-5.6
		c-3.9-2.7-9.2-1.8-12,2c-1.3,1.9-1.8,4.2-1.5,6.4l0,0C120.1,197.4,121.3,199.4,123.2,200.7z">
  </path>
  <linearGradient id="SVGID_19_" gradientUnits="userSpaceOnUse" x1="101.8969" y1="210.1" x2="101.8969" y2="29.92" gradientTransform="matrix(1 0 0 -1 0 232)">
   <stop offset="0" style="stop-color:#0036FF">
   </stop>
   <stop offset="1" style="stop-color:#00FF6B">
   </stop>
  </linearGradient>
  <path class="st19" d="M95.1,198.7c1.3,1.8,3.3,3,5.4,3.4c0.5,0.1,0.9,0.1,1.4,0.1c4.6,0,8.4-3.8,8.4-8.4c0-4.6-3.8-8.4-8.4-8.4
		c-4.1,0-7.6,3-8.2,7l0,0C93.3,194.6,93.8,196.9,95.1,198.7z">
  </path>
  <linearGradient id="SVGID_20_" gradientUnits="userSpaceOnUse" x1="77.1273" y1="210.1" x2="77.1273" y2="29.92" gradientTransform="matrix(1 0 0 -1 0 232)">
   <stop offset="0" style="stop-color:#0036FF">
   </stop>
   <stop offset="1" style="stop-color:#00FF6B">
   </stop>
  </linearGradient>
  <path class="st20" d="M81.1,177.8c-4.2-2.1-9.4-0.4-11.5,3.8c-2,4.1-0.5,9,3.4,11.3c1.2,0.7,2.6,1,4.1,1c0.8,0,1.7-0.1,2.5-0.4
		c4.5-1.4,7.1-6.2,5.7-10.7C84.6,180.6,83.1,178.8,81.1,177.8L81.1,177.8z">
  </path>
  <linearGradient id="SVGID_21_" gradientUnits="userSpaceOnUse" x1="56.2446" y1="210.1" x2="56.2446" y2="29.92" gradientTransform="matrix(1 0 0 -1 0 232)">
   <stop offset="0" style="stop-color:#0036FF">
   </stop>
   <stop offset="1" style="stop-color:#00FF6B">
   </stop>
  </linearGradient>
  <path class="st21" d="M50.4,162.9c-3.5,3.2-3.7,8.7-0.5,12.1c3.2,3.5,8.7,3.7,12.1,0.5c3.5-3.2,3.7-8.7,0.5-12.1c0,0,0,0,0,0
		C59.3,159.9,53.9,159.7,50.4,162.9z">
  </path>
  <linearGradient id="SVGID_22_" gradientUnits="userSpaceOnUse" x1="41.8209" y1="210.1" x2="41.8209" y2="29.92" gradientTransform="matrix(1 0 0 -1 0 232)">
   <stop offset="0" style="stop-color:#0036FF">
   </stop>
   <stop offset="1" style="stop-color:#00FF6B">
   </stop>
  </linearGradient>
  <path class="st22" d="M49.8,150.4c1.7-4.4-0.4-9.4-4.8-11.1c-2.1-0.8-4.5-0.8-6.6,0.1l0,0c-4.3,1.9-6.3,7-4.4,11.3
		c1.4,3.1,4.5,5.1,7.9,5.1C45.4,155.8,48.5,153.6,49.8,150.4L49.8,150.4z">
  </path>
  <linearGradient id="SVGID_23_" gradientUnits="userSpaceOnUse" x1="35.2975" y1="210.1" x2="35.2975" y2="29.92" gradientTransform="matrix(1 0 0 -1 0 232)">
   <stop offset="0" style="stop-color:#0036FF">
   </stop>
   <stop offset="1" style="stop-color:#00FF6B">
   </stop>
  </linearGradient>
  <path class="st23" d="M40.8,115.2c-1.7-1.5-4-2.2-6.3-2l0,0c-4.7,0.4-8.2,4.5-7.8,9.3c0.4,4.5,4.1,7.9,8.6,7.9c0.3,0,0.5,0,0.8,0
		c4.7-0.4,8.2-4.6,7.8-9.3C43.7,118.8,42.6,116.7,40.8,115.2L40.8,115.2z">
  </path>
  <linearGradient id="SVGID_24_" gradientUnits="userSpaceOnUse" x1="37.4208" y1="210.1" x2="37.4208" y2="29.92" gradientTransform="matrix(1 0 0 -1 0 232)">
   <stop offset="0" style="stop-color:#0036FF">
   </stop>
   <stop offset="1" style="stop-color:#00FF6B">
   </stop>
  </linearGradient>
  <path class="st24" d="M44.8,91.2c-2.5-4.1-7.8-5.3-11.8-2.9c-4.1,2.5-5.3,7.8-2.9,11.8c1.2,1.9,3,3.3,5.2,3.9
		c0.7,0.2,1.4,0.3,2.1,0.2c3.9,0,7.4-2.7,8.3-6.5C46.3,95.5,46,93.2,44.8,91.2z">
  </path>
  <linearGradient id="SVGID_25_" gradientUnits="userSpaceOnUse" x1="47.8985" y1="210.1" x2="47.8985" y2="29.92" gradientTransform="matrix(1 0 0 -1 0 232)">
   <stop offset="0" style="stop-color:#0036FF">
   </stop>
   <stop offset="1" style="stop-color:#00FF6B">
   </stop>
  </linearGradient>
  <path class="st25" d="M40.7,66.8c-2.6,4-1.4,9.3,2.5,11.9c4,2.6,9.3,1.5,11.9-2.5c2.6-4,1.5-9.3-2.5-11.9
		C48.6,61.7,43.3,62.9,40.7,66.8z">
  </path>
  <linearGradient id="SVGID_26_" gradientUnits="userSpaceOnUse" x1="65.2485" y1="210.1" x2="65.2485" y2="29.92" gradientTransform="matrix(1 0 0 -1 0 232)">
   <stop offset="0" style="stop-color:#0036FF">
   </stop>
   <stop offset="1" style="stop-color:#00FF6B">
   </stop>
  </linearGradient>
  <path class="st26" d="M66.7,43.6c-4.6-0.9-9.2,2.1-10.1,6.7c-0.9,4.6,2.1,9.2,6.7,10.1c0.4,0.1,0.9,0.1,1.3,0.2
		c0.3,0,0.7,0.1,1,0.1c4.7-0.1,8.5-3.9,8.5-8.7C74.1,47.7,70.9,44.1,66.7,43.6L66.7,43.6z">
  </path>
  <linearGradient id="SVGID_27_" gradientUnits="userSpaceOnUse" x1="88.7276" y1="210.1" x2="88.7276" y2="29.92" gradientTransform="matrix(1 0 0 -1 0 232)">
   <stop offset="0" style="stop-color:#0036FF">
   </stop>
   <stop offset="1" style="stop-color:#00FF6B">
   </stop>
  </linearGradient>
  <path class="st27" d="M92.5,31.9c-4.3-2.1-9.4-0.3-11.5,4c-2.1,4.3-0.3,9.4,4,11.5c1.2,0.6,2.4,0.9,3.7,0.9c1,0,1.9-0.2,2.8-0.5
		c4.5-1.6,6.8-6.4,5.3-10.9l0,0C96.1,34.6,94.5,32.9,92.5,31.9z">
  </path>
  <linearGradient id="SVGID_28_" gradientUnits="userSpaceOnUse" x1="114.56" y1="210.1" x2="114.56" y2="29.92" gradientTransform="matrix(1 0 0 -1 0 232)">
   <stop offset="0" style="stop-color:#0036FF">
   </stop>
   <stop offset="1" style="stop-color:#00FF6B">
   </stop>
  </linearGradient>
  <path class="st28" d="M114.6,17.2L114.6,17.2c4.7,0,8.6-3.8,8.6-8.6S119.3,0,114.6,0l0,0c-4.7,0-8.6,3.8-8.6,8.6
		S109.8,17.2,114.6,17.2z">
  </path>
  <linearGradient id="SVGID_29_" gradientUnits="userSpaceOnUse" x1="141.0555" y1="210.1" x2="141.0555" y2="29.92" gradientTransform="matrix(1 0 0 -1 0 232)">
   <stop offset="0" style="stop-color:#0036FF">
   </stop>
   <stop offset="1" style="stop-color:#00FF6B">
   </stop>
  </linearGradient>
  <path class="st29" d="M138.9,20.2c2.2,0.6,4.6,0.2,6.5-0.9c4.1-2.4,5.4-7.7,3-11.8c-1.2-2-3.1-3.4-5.3-3.9
		c-4.6-1.2-9.3,1.6-10.4,6.2c-0.6,2.2-0.2,4.6,0.9,6.5C134.8,18.2,136.7,19.6,138.9,20.2z">
  </path>
  <linearGradient id="SVGID_30_" gradientUnits="userSpaceOnUse" x1="165.8767" y1="210.1" x2="165.8767" y2="29.92" gradientTransform="matrix(1 0 0 -1 0 232)">
   <stop offset="0" style="stop-color:#0036FF">
   </stop>
   <stop offset="1" style="stop-color:#00FF6B">
   </stop>
  </linearGradient>
  <path class="st30" d="M161.8,29.2c4.2,2.3,9.4,0.7,11.7-3.4l0,0c2.3-4.2,0.7-9.4-3.4-11.7s-9.4-0.7-11.7,3.4
		C156.1,21.7,157.6,26.9,161.8,29.2L161.8,29.2z">
  </path>
  <linearGradient id="SVGID_31_" gradientUnits="userSpaceOnUse" x1="187.65" y1="210.1" x2="187.65" y2="29.92" gradientTransform="matrix(1 0 0 -1 0 232)">
   <stop offset="0" style="stop-color:#0036FF">
   </stop>
   <stop offset="1" style="stop-color:#00FF6B">
   </stop>
  </linearGradient>
  <path class="st31" d="M187.5,45.8h0.3c5-0.1,8.9-4.2,8.8-9.1c-0.1-5-4.2-8.9-9.1-8.8s-8.9,4.2-8.8,9.1
		C178.7,41.8,182.6,45.8,187.5,45.8z">
  </path>
  <linearGradient id="SVGID_32_" gradientUnits="userSpaceOnUse" x1="204.5647" y1="210.1" x2="204.5647" y2="29.92" gradientTransform="matrix(1 0 0 -1 0 232)">
   <stop offset="0" style="stop-color:#0036FF">
   </stop>
   <stop offset="1" style="stop-color:#00FF6B">
   </stop>
  </linearGradient>
  <path class="st32" d="M197.3,62.4c1.2,1.9,3.2,3.3,5.4,3.8c0.6,0.1,1.2,0.2,1.9,0.2c4.7,0,8.6-3.9,8.6-8.6s-3.9-8.6-8.6-8.6
		c-4,0-7.5,2.8-8.4,6.7C195.7,58.1,196.1,60.5,197.3,62.4z">
  </path>
  <linearGradient id="SVGID_33_" gradientUnits="userSpaceOnUse" x1="197.0874" y1="210.1" x2="197.0874" y2="29.92" gradientTransform="matrix(1 0 0 -1 0 232)">
   <stop offset="0" style="stop-color:#0036FF">
   </stop>
   <stop offset="1" style="stop-color:#00FF6B">
   </stop>
  </linearGradient>
  <path class="st33" d="M202.5,176c-3.7-3-9.1-2.4-12.1,1.3s-2.4,9.1,1.3,12.1c1.5,1.2,3.4,1.9,5.3,1.9c0.3,0,0.6,0,0.9,0
		c4.7-0.4,8.2-4.6,7.8-9.3C205.5,179.6,204.3,177.5,202.5,176z">
  </path>
  <linearGradient id="SVGID_34_" gradientUnits="userSpaceOnUse" x1="177.609" y1="210.1" x2="177.609" y2="29.92" gradientTransform="matrix(1 0 0 -1 0 232)">
   <stop offset="0" style="stop-color:#0036FF">
   </stop>
   <stop offset="1" style="stop-color:#00FF6B">
   </stop>
  </linearGradient>
  <path class="st34" d="M178.9,192.5c-4.7-0.7-9.1,2.5-9.8,7.2s2.5,9.1,7.2,9.8c2.3,0.4,4.6-0.2,6.4-1.6c3.8-2.8,4.7-8.2,1.9-12
		C183.2,194.1,181.2,192.9,178.9,192.5z">
  </path>
  <linearGradient id="SVGID_35_" gradientUnits="userSpaceOnUse" x1="154.2768" y1="210.1" x2="154.2768" y2="29.92" gradientTransform="matrix(1 0 0 -1 0 232)">
   <stop offset="0" style="stop-color:#0036FF">
   </stop>
   <stop offset="1" style="stop-color:#00FF6B">
   </stop>
  </linearGradient>
  <path class="st35" d="M151.1,205.9c-4.4,1.8-6.5,6.7-4.8,11.1l0,0c1.3,3.3,4.5,5.4,8,5.4c3.4,0,6.5-2.1,7.9-5.2
		c1.9-4.4-0.1-9.4-4.5-11.3C155.6,205.1,153.2,205.1,151.1,205.9L151.1,205.9z">
  </path>
  <linearGradient id="SVGID_36_" gradientUnits="userSpaceOnUse" x1="128.4499" y1="210.1" x2="128.4499" y2="29.92" gradientTransform="matrix(1 0 0 -1 0 232)">
   <stop offset="0" style="stop-color:#0036FF">
   </stop>
   <stop offset="1" style="stop-color:#00FF6B">
   </stop>
  </linearGradient>
  <path class="st36" d="M133.7,213.8c-3.8-2.9-9.1-2.2-12,1.6c-2.9,3.8-2.2,9.1,1.6,12s9.1,2.2,12-1.6c1.4-1.8,2-4.1,1.7-6.3
		C136.7,217.2,135.5,215.2,133.7,213.8z">
  </path>
  <linearGradient id="SVGID_37_" gradientUnits="userSpaceOnUse" x1="101.745" y1="210.1" x2="101.745" y2="29.92" gradientTransform="matrix(1 0 0 -1 0 232)">
   <stop offset="0" style="stop-color:#0036FF">
   </stop>
   <stop offset="1" style="stop-color:#00FF6B">
   </stop>
  </linearGradient>
  <path class="st37" d="M102.8,212.1c-4.7-0.6-9,2.7-9.6,7.4c0,0,0,0,0,0l0,0c-0.6,4.7,2.8,9,7.5,9.6c0.4,0,0.7,0.1,1.1,0.1
		c4.7,0,8.6-3.9,8.6-8.6C110.3,216.3,107.1,212.7,102.8,212.1z">
  </path>
  <linearGradient id="SVGID_38_" gradientUnits="userSpaceOnUse" x1="75.8705" y1="210.1" x2="75.8705" y2="29.92" gradientTransform="matrix(1 0 0 -1 0 232)">
   <stop offset="0" style="stop-color:#0036FF">
   </stop>
   <stop offset="1" style="stop-color:#00FF6B">
   </stop>
  </linearGradient>
  <path class="st38" d="M79,206.1c-4.4-1.7-9.4,0.5-11.1,4.9c-0.8,2.1-0.8,4.5,0.1,6.6c0.9,2.1,2.6,3.7,4.7,4.6
		c1,0.4,2.1,0.6,3.2,0.6c1.2,0,2.3-0.2,3.4-0.7c2.1-0.9,3.7-2.6,4.6-4.7C85.6,212.8,83.4,207.8,79,206.1z">
  </path>
  <linearGradient id="SVGID_39_" gradientUnits="userSpaceOnUse" x1="52.4873" y1="210.1" x2="52.4873" y2="29.92" gradientTransform="matrix(1 0 0 -1 0 232)">
   <stop offset="0" style="stop-color:#0036FF">
   </stop>
   <stop offset="1" style="stop-color:#00FF6B">
   </stop>
  </linearGradient>
  <path class="st39" d="M57.5,194.3c-3.8-2.8-9.2-1.9-12,1.9c-2.8,3.8-1.9,9.2,1.9,12c1.5,1.1,3.2,1.6,5,1.6c0.5,0,0.9,0,1.4-0.1
		c4.7-0.7,7.9-5.1,7.1-9.8C60.6,197.7,59.4,195.7,57.5,194.3z">
  </path>
  <linearGradient id="SVGID_40_" gradientUnits="userSpaceOnUse" x1="33.0032" y1="210.1" x2="33.0032" y2="29.92" gradientTransform="matrix(1 0 0 -1 0 232)">
   <stop offset="0" style="stop-color:#0036FF">
   </stop>
   <stop offset="1" style="stop-color:#00FF6B">
   </stop>
  </linearGradient>
  <path class="st40" d="M27.5,176.5c-3.6,3-4.1,8.5-1.1,12.1c3,3.6,8.5,4.1,12.1,1.1c3.6-3,4.1-8.4,1.1-12.1c0,0,0,0,0,0
		C36.6,173.9,31.1,173.4,27.5,176.5z">
  </path>
  <linearGradient id="SVGID_41_" gradientUnits="userSpaceOnUse" x1="18.6337" y1="210.1" x2="18.6337" y2="29.92" gradientTransform="matrix(1 0 0 -1 0 232)">
   <stop offset="0" style="stop-color:#0036FF">
   </stop>
   <stop offset="1" style="stop-color:#00FF6B">
   </stop>
  </linearGradient>
  <path class="st41" d="M26.7,163.5c1.6-4.5-0.7-9.4-5.2-11s-9.4,0.7-11,5.2c-1.6,4.5,0.7,9.4,5.2,11c2.2,0.8,4.5,0.7,6.6-0.3
		C24.4,167.4,26,165.6,26.7,163.5z">
  </path>
  <linearGradient id="SVGID_42_" gradientUnits="userSpaceOnUse" x1="10.4075" y1="210.1" x2="10.4075" y2="29.92" gradientTransform="matrix(1 0 0 -1 0 232)">
   <stop offset="0" style="stop-color:#0036FF">
   </stop>
   <stop offset="1" style="stop-color:#00FF6B">
   </stop>
  </linearGradient>
  <path class="st42" d="M12,143.7c4.7-0.9,7.7-5.4,6.8-10.1c-0.4-2.2-1.7-4.2-3.6-5.5c-1.9-1.3-4.2-1.8-6.5-1.3l0,0
		c-4.6,1-7.6,5.5-6.7,10.2c0.8,3.9,4.3,6.8,8.3,6.8C10.9,143.8,11.5,143.8,12,143.7z">
  </path>
  <linearGradient id="SVGID_43_" gradientUnits="userSpaceOnUse" x1="8.5952" y1="210.1" x2="8.5952" y2="29.92" gradientTransform="matrix(1 0 0 -1 0 232)">
   <stop offset="0" style="stop-color:#0036FF">
   </stop>
   <stop offset="1" style="stop-color:#00FF6B">
   </stop>
  </linearGradient>
  <path class="st43" d="M8.1,117.2h0.5c4.7,0,8.6-3.8,8.6-8.6s-3.8-8.6-8.6-8.6c-4.7,0-8.6,3.8-8.6,8.6c0,2.1,0.8,4.1,2.2,5.7
		C3.7,116,5.8,117,8.1,117.2z">
  </path>
  <linearGradient id="SVGID_44_" gradientUnits="userSpaceOnUse" x1="13.5267" y1="210.1" x2="13.5267" y2="29.92" gradientTransform="matrix(1 0 0 -1 0 232)">
   <stop offset="0" style="stop-color:#0036FF">
   </stop>
   <stop offset="1" style="stop-color:#00FF6B">
   </stop>
  </linearGradient>
  <path class="st44" d="M10.9,90.6c4.5,1.5,9.4-1,10.8-5.5c1.5-4.5-1-9.4-5.5-10.8s-9.4,1-10.8,5.5c0,0,0,0,0,0
		C3.9,84.3,6.4,89.1,10.9,90.6z">
  </path>
  <linearGradient id="SVGID_45_" gradientUnits="userSpaceOnUse" x1="24.8091" y1="210.1" x2="24.8091" y2="29.92" gradientTransform="matrix(1 0 0 -1 0 232)">
   <stop offset="0" style="stop-color:#0036FF">
   </stop>
   <stop offset="1" style="stop-color:#00FF6B">
   </stop>
  </linearGradient>
  <path class="st45" d="M20.2,65.5c1.4,0.9,3,1.3,4.6,1.3c0.6,0,1.3-0.1,1.9-0.2c4.6-1.1,7.5-5.7,6.4-10.3c-0.5-2.2-1.8-4.1-3.7-5.3
		l0,0c-4-2.5-9.3-1.3-11.8,2.7c-1.2,1.9-1.6,4.2-1.1,6.5C17,62.4,18.3,64.3,20.2,65.5z">
  </path>
  <linearGradient id="SVGID_46_" gradientUnits="userSpaceOnUse" x1="41.7553" y1="210.1" x2="41.7553" y2="29.92" gradientTransform="matrix(1 0 0 -1 0 232)">
   <stop offset="0" style="stop-color:#0036FF">
   </stop>
   <stop offset="1" style="stop-color:#00FF6B">
   </stop>
  </linearGradient>
  <path class="st46" d="M41.8,46.2c4.7,0.1,8.6-3.7,8.7-8.5c0.1-4.7-3.7-8.6-8.5-8.7c-4.7-0.2-8.8,3.5-9,8.2s3.5,8.8,8.2,9
		C41.4,46.2,41.6,46.2,41.8,46.2L41.8,46.2z">
  </path>
  <linearGradient id="SVGID_47_" gradientUnits="userSpaceOnUse" x1="63.372" y1="210.1" x2="63.372" y2="29.92" gradientTransform="matrix(1 0 0 -1 0 232)">
   <stop offset="0" style="stop-color:#0036FF">
   </stop>
   <stop offset="1" style="stop-color:#00FF6B">
   </stop>
  </linearGradient>
  <path class="st47" d="M61,30.1c0.8,0.2,1.6,0.3,2.4,0.3c4.7,0,8.6-3.9,8.6-8.6c0-1.5-0.4-2.9-1.1-4.1c-2.3-4.2-7.5-5.7-11.7-3.4
		s-5.7,7.5-3.4,11.7C57,28,58.8,29.5,61,30.1z">
  </path>
  <linearGradient id="SVGID_48_" gradientUnits="userSpaceOnUse" x1="88.1037" y1="210.1" x2="88.1037" y2="29.92" gradientTransform="matrix(1 0 0 -1 0 232)">
   <stop offset="0" style="stop-color:#0036FF">
   </stop>
   <stop offset="1" style="stop-color:#00FF6B">
   </stop>
  </linearGradient>
  <path class="st48" d="M83.8,19.4c1.3,0.8,2.8,1.2,4.3,1.2c0.7,0,1.5-0.1,2.2-0.3c4.6-1.2,7.3-5.9,6.2-10.5
		c-1.2-4.6-5.9-7.3-10.5-6.2c-4.6,1.2-7.3,5.9-6.2,10.5C80.4,16.4,81.8,18.2,83.8,19.4z">
  </path>
  <path class="st49" d="M665,123.6h-60.6c2.3,9.8,9.7,17.4,23,17.4c7.7,0,13.2-2.5,16-7.3H664c-4.5,14.5-19,23.7-37,23.7
		c-25.2,0-41.9-17.8-41.9-41.2c0-23.5,16.7-41.4,41.9-41.4c21.8,0,38.3,16.3,38.5,40C665.6,117.7,665.4,120.6,665,123.6z
		 M604.3,109.2H646c-1.5-11.2-8.5-18.2-20-18.2C613.6,91.1,606.4,99.1,604.3,109.2L604.3,109.2z">
  </path>
  <path class="st49" d="M329.9,125.9h19.8c-2.5,18.8-18.8,31.6-39,31.6c-23.9,0-42.2-18-42.2-41.5c0-23.7,18.3-41.7,42.2-41.7
		c20.2,0,36.5,12.9,39,31.6h-19.8c-1.9-8.4-9.2-14-19.2-14c-13.8,0-22.9,10.6-22.9,24s9.1,24,22.9,24
		C320.7,140.1,328.1,134.5,329.9,125.9z">
  </path>
  <path class="st49" d="M358.6,116.5c0.4-22.8,19.1-40.9,41.8-40.6c22.3,0.3,40.2,18.3,40.6,40.6c0,23.3-18.6,40.7-41.2,40.7
		S358.6,139.9,358.6,116.5z M421,116.5c0-13-9.7-22.4-21.1-22.4s-21.1,9.4-21.1,22.4c0,13.2,9.4,22.4,21.1,22.4S421,129.7,421,116.5
		L421,116.5z">
  </path>
  <path class="st49" d="M451.9,103c0-16.3,11.8-27.3,27.7-27.3h11v18.4h-7.8c-7.2,0-11.4,4.6-11.4,11.6v50h-19.5V103z">
  </path>
  <path class="st49" d="M556,125.9h19.8c-2.5,18.8-18.8,31.6-39,31.6c-23.9,0-42.2-18-42.2-41.5c0-23.7,18.3-41.7,42.2-41.7
		c20.2,0,36.5,12.9,39,31.6H556c-1.8-8.4-9.2-14-19.2-14C523.1,92,514,102.6,514,116s9.1,24,22.9,24
		C546.8,140.1,554.2,134.5,556,125.9z">
  </path>
  <path class="st49" d="M675.9,111.7c1-19.9,17.9-35.1,37.8-34.2c18.5,0.9,33.2,15.7,34.2,34.2v44h-19.4v-44.5
		c0-9.2-7-17.1-16.3-17.1c-9.3,0-16.8,7.5-16.8,16.8c0,0.1,0,0.2,0,0.3v44.5h-19.4V111.7z">
  </path>
  <path class="st49" d="M799.2,137.4v18.3h-11c-16,0-27.7-10.2-27.7-26.5V58.5h19.4v18.8H799v16.8h-19.1v31.7c0,7,4.2,11.6,11.4,11.6
		H799.2z">
  </path>
  <path class="st49" d="M812,103c0-16.3,11.8-27.3,27.7-27.3h11v18.4h-7.8c-7.2,0-11.4,4.6-11.4,11.6v50H812V103z">
  </path>
  <path class="st49" d="M860.6,56.5c0-6.7,5.4-12.1,12.1-12.1c6.7,0,12.1,5.4,12.1,12.1s-5.4,12.1-12.1,12.1l0,0
		C866,68.5,860.7,63.1,860.6,56.5z M863,77.3h19.4v78.3H863V77.3z">
  </path>
  <path class="st49" d="M954.6,125.9h19.8c-2.5,18.8-18.8,31.6-39,31.6c-23.9,0-42.2-18-42.2-41.5c0-23.7,18.3-41.7,42.2-41.7
		c20.2,0,36.5,12.9,39,31.6h-19.8c-1.8-8.4-9.2-14-19.2-14c-13.8,0-22.9,10.6-22.9,24s9.1,24,22.9,24
		C945.3,140.1,952.7,134.5,954.6,125.9z">
  </path>
  <path class="st49" d="M984.5,79.4h-2.6v7.1h-2.1v-7.1h-2.6v-1.7h7.4V79.4z">
  </path>
  <path class="st49" d="M994,86.5l-0.3-5.4l-2.4,5.4h-1.1l-2.4-5.4l-0.3,5.4h-2.1l0.6-8.9h2.3l2.4,5.4l2.4-5.4h2.3l0.6,8.9L994,86.5z
		">
  </path>
 </g>
</svg>