<?xml version="1.0" encoding="UTF-8" standalone="no"?>
<svg
   xmlns:dc="http://purl.org/dc/elements/1.1/"
   xmlns:cc="http://creativecommons.org/ns#"
   xmlns:rdf="http://www.w3.org/1999/02/22-rdf-syntax-ns#"
   xmlns:svg="http://www.w3.org/2000/svg"
   xmlns="http://www.w3.org/2000/svg"
   version="1.1"
   id="svg4440"
   viewBox="0 0 267.6481 120.73653"
   height="34.074532mm"
   width="75.53624mm">
  <defs
     id="defs4442">
    <clipPath
       id="clipPath226"
       clipPathUnits="userSpaceOnUse">
      <path
         id="path228"
         d="m 0,0 1237.5,0 0,792 L 0,792 0,0 Z" />
    </clipPath>
    <clipPath
       id="clipPath194"
       clipPathUnits="userSpaceOnUse">
      <path
         id="path196"
         d="m 0,0 1237.5,0 0,792 L 0,792 0,0 Z" />
    </clipPath>
    <clipPath
       id="clipPath170"
       clipPathUnits="userSpaceOnUse">
      <path
         id="path172"
         d="m 0,0 1237.5,0 0,792 L 0,792 0,0 Z" />
    </clipPath>
  </defs>
  <metadata
     id="metadata4445">
    <rdf:RDF>
      <cc:Work
         rdf:about="">
        <dc:format>image/svg+xml</dc:format>
        <dc:type
           rdf:resource="http://purl.org/dc/dcmitype/StillImage" />
        <dc:title></dc:title>
      </cc:Work>
    </rdf:RDF>
  </metadata>
  <g
     transform="translate(-383.2499,-340.52075)"
     id="layer1">
    <g
       id="g166"
       transform="matrix(2.1803437,0,0,-2.1803437,-148.73172,689.55017)">
      <g
         clip-path="url(#clipPath170)"
         id="g168">
        <g
           transform="translate(357.5488,160.08)"
           id="g174">
          <path
             id="path176"
             style="fill:#ffdd00;fill-opacity:1;fill-rule:nonzero;stroke:none"
             d="m 0,0 -104.361,0 c -6.387,0 -9.198,-3.087 -9.198,-9.43 l 0,-36.516 c 0,-6.345 2.811,-9.429 9.198,-9.429 l 104.361,0 c 6.39,0 9.196,3.084 9.196,9.429 l 0,36.516 C 9.196,-3.087 6.39,0 0,0" />
        </g>
        <g
           transform="translate(305.3711,112.0575)"
           id="g178">
          <path
             id="path180"
             style="fill:#ffffff;fill-opacity:1;fill-rule:nonzero;stroke:none"
             d="m 0,0 c -31.864,0 -55.89,8.741 -55.89,20.332 0,11.595 24.026,20.335 55.89,20.335 31.859,0 55.886,-8.74 55.886,-20.335 C 55.886,8.741 31.859,0 0,0" />
        </g>
        <g
           transform="translate(324.2715,114.8427)"
           id="g182">
          <path
             id="path184"
             style="fill:#000000;fill-opacity:1;fill-rule:nonzero;stroke:none"
             d="m 0,0 c 9.231,1.805 16.48,5.099 20.627,9.231 l -0.883,0 C 14.467,4.458 4.61,0.787 -7.881,-0.741 0.664,0.798 7.14,4.518 10.645,9.231 l -0.837,0 C 5.611,4.195 -2.28,0.296 -12.86,-1.022 -6.342,0.347 -1.719,4.44 0.662,9.231 l -0.838,0 C -3.195,3.676 -9.135,0.049 -15.691,-1.106 c -0.104,-0.003 -0.207,-0.007 -0.311,-0.007 3.647,1.503 6.004,7.031 6.678,10.344 l -0.84,0 c -1.314,-6.134 -5.234,-10.191 -8.512,-10.369 -0.076,0 -0.151,-0.002 -0.224,-0.002 -0.074,0 -0.146,0.002 -0.222,0.002 -3.216,0.176 -7.207,4.235 -8.519,10.369 l -0.839,0 c 0.671,-3.313 3.031,-8.841 6.679,-10.344 -0.104,0 -0.206,0.004 -0.31,0.007 -6.558,1.155 -12.499,4.782 -15.518,10.337 l -0.838,0 c 2.38,-4.791 7.003,-8.884 13.524,-10.253 -10.58,1.318 -18.475,5.217 -22.667,10.253 l -0.842,0 c 3.508,-4.713 9.984,-8.433 18.53,-9.972 -12.495,1.528 -22.349,5.199 -27.629,9.972 l -0.88,0 C -54.286,5.099 -47.038,1.805 -37.803,0 c -20.634,2.602 -34.999,9.386 -34.999,17.548 0,8.163 14.367,14.948 35.001,17.549 -9.235,-1.803 -16.484,-5.099 -20.63,-9.233 l 0.88,0 c 5.28,4.775 15.134,8.447 27.629,9.974 -8.546,-1.54 -15.022,-5.259 -18.53,-9.974 l 0.842,0 c 4.192,5.038 12.087,8.936 22.667,10.256 -6.521,-1.37 -11.144,-5.464 -13.524,-10.256 l 0.838,0 c 3.021,5.558 8.962,9.185 15.521,10.338 0.104,0.003 0.206,0.008 0.308,0.009 -3.649,-1.505 -6.009,-7.03 -6.68,-10.347 l 0.839,0 c 1.312,6.136 5.303,10.193 8.519,10.371 0.076,10e-4 0.148,0.002 0.222,0.002 0.073,0 0.148,-0.001 0.224,-0.002 3.278,-0.178 7.198,-4.235 8.512,-10.371 l 0.84,0 c -0.674,3.317 -3.031,8.842 -6.679,10.347 0.105,-10e-4 0.206,-0.006 0.309,-0.009 6.555,-1.153 12.498,-4.78 15.518,-10.338 l 0.838,0 C -1.719,30.656 -6.342,34.75 -12.86,36.12 -2.28,34.8 5.611,30.902 9.808,25.864 l 0.837,0 C 7.14,30.579 0.664,34.298 -7.881,35.838 4.61,34.311 14.467,30.639 19.744,25.864 l 0.883,0 C 16.48,29.998 9.229,33.294 -0.006,35.097 20.631,32.496 34.998,25.711 34.998,17.548 34.998,9.386 20.631,2.602 0,0 m -18.9,36.977 c -31.15,0 -54.639,-8.353 -54.639,-19.429 0,-11.076 23.489,-19.429 54.639,-19.429 31.146,0 54.633,8.353 54.633,19.429 0,11.076 -23.487,19.429 -54.633,19.429" />
        </g>
      </g>
    </g>
    <g
       transform="matrix(2.1803437,0,0,-2.1803437,443.26342,403.45268)"
       id="g186">
      <path
         id="path188"
         style="fill:#000000;fill-opacity:1;fill-rule:nonzero;stroke:none"
         d="m 0,0 0,-4.322 3.161,0 0,11.022 -3.161,0 0,-3.999 -6.672,0 0,3.999 -3.16,0 0,-11.022 3.16,0 0,4.322" />
    </g>
    <g
       id="g190"
       transform="matrix(2.1803437,0,0,-2.1803437,-148.73172,689.55017)">
      <g
         clip-path="url(#clipPath194)"
         id="g192">
        <g
           transform="translate(282.497,126.5946)"
           id="g198">
          <path
             id="path200"
             style="fill:#000000;fill-opacity:1;fill-rule:nonzero;stroke:none"
             d="m 0,0 c 4.847,0 6.503,0.746 6.503,4.026 l 0,7.297 -3.16,0 0,-6.636 c 0,-1.719 -0.519,-2.161 -2.33,-2.161 l -2.025,0 c -1.815,0 -2.334,0.442 -2.334,2.161 l 0,6.636 -3.16,0 0,-7.297 C -6.506,0.746 -4.852,0 0,0" />
        </g>
        <g
           transform="translate(293.4858,131.3866)"
           id="g202">
          <path
             id="path204"
             style="fill:#000000;fill-opacity:1;fill-rule:nonzero;stroke:none"
             d="m 0,0 0,-2.176 4.99,0 C 6.373,-2.176 6.373,0 4.99,0 L 0,0 Z m -3.144,6.531 8.426,0 c 2.214,0 3.38,-0.916 3.38,-2.918 0,-1.345 -0.641,-2.286 -1.433,-2.594 1.228,-0.297 1.755,-1.133 1.755,-2.438 0,-2.686 -1.2,-3.073 -3.702,-3.073 l -8.426,0 0,11.023 z M 4.678,2.113 c 1.296,0 1.296,2.04 0,2.04 L 0,4.153 0,2.113" />
        </g>
        <g
           transform="translate(306.7329,131.3866)"
           id="g206">
          <path
             id="path208"
             style="fill:#000000;fill-opacity:1;fill-rule:nonzero;stroke:none"
             d="m 0,0 0,-2.176 4.99,0 C 6.371,-2.176 6.371,0 4.99,0 L 0,0 Z m -3.148,6.531 8.43,0 c 2.213,0 3.378,-0.916 3.378,-2.918 0,-1.345 -0.641,-2.286 -1.431,-2.594 1.224,-0.297 1.75,-1.133 1.75,-2.438 0,-2.686 -1.197,-3.073 -3.697,-3.073 l -8.43,0 0,11.023 z M 4.677,2.113 c 1.295,0 1.295,2.04 0,2.04 L 0,4.153 0,2.113" />
        </g>
      </g>
    </g>
    <g
       transform="matrix(2.1803437,0,0,-2.1803437,542.30094,412.87656)"
       id="g210">
      <path
         id="path212"
         style="fill:#000000;fill-opacity:1;fill-rule:nonzero;stroke:none"
         d="m 0,0 11.02,0 0,2.392 -7.807,0 0,2 7.422,0 0,2.238 -7.422,0 0,1.872 7.625,0 0,2.521 -10.838,0" />
    </g>
    <g
       transform="matrix(2.1803437,0,0,-2.1803437,568.63949,388.84612)"
       id="g214">
      <path
         id="path216"
         style="fill:#000000;fill-opacity:1;fill-rule:nonzero;stroke:none"
         d="m 0,0 0,-11.021 10.43,0 0,2.392 -7.269,0 0,8.629" />
    </g>
    <g
       transform="matrix(2.1803437,0,0,-2.1803437,593.15789,388.84612)"
       id="g218">
      <path
         id="path220"
         style="fill:#000000;fill-opacity:1;fill-rule:nonzero;stroke:none"
         d="m 0,0 0,-11.021 10.429,0 0,2.392 -7.266,0 0,8.629" />
    </g>
    <g
       id="g222"
       transform="matrix(2.1803437,0,0,-2.1803437,-148.73172,689.55017)" />
  </g>
</svg>
