<svg width="210" height="41" viewBox="0 0 210 41" fill="none" xmlns="http://www.w3.org/2000/svg">
<g clip-path="url(#clip0_1_43)">
<path d="M198.385 32.4063C198.385 28.8831 199.95 26.71 202.14 26.71C203.267 26.71 204.3 27.2368 205.051 28.1588V36.1599C204.175 37.3781 203.111 38.0367 201.953 38.0367C199.856 38.0367 198.385 35.9294 198.385 32.4061M200.294 41.0002C202.235 41.0002 204.018 39.8808 205.051 38.0368V40.6381H209.996C209.37 39.354 209.245 37.0491 209.245 35.3698V16.7334L204.269 17.5236C204.926 18.7418 205.051 21.0468 205.051 22.8248V25.7223C204.05 24.4382 202.61 23.7468 201.077 23.7468C197.196 23.7468 194.098 27.3029 194.098 32.4723C194.098 37.6747 196.789 41.0004 200.294 41.0004M182.863 40.6381H188.496C187.933 39.4198 187.745 37.082 187.745 35.1722V30.2661C188.715 28.5209 189.935 27.4674 191.594 27.4674C192.345 27.4674 193.128 27.5991 193.628 27.7966L193.378 23.9441C193.096 23.8124 192.564 23.7136 192.032 23.7136C190.342 23.7136 188.652 25.1295 187.745 28.2904V23.9441L182.769 24.7343C183.426 25.9856 183.551 28.2904 183.551 30.0356V35.1722C183.551 37.082 183.395 39.4197 182.863 40.6381ZM173.224 38.1356C171.033 38.1356 169.562 36.0613 169.562 32.4063C169.562 28.7513 171.033 26.677 173.161 26.677C175.352 26.677 176.823 28.7513 176.823 32.4063C176.823 36.0613 175.383 38.1356 173.224 38.1356ZM173.192 41.0002C177.73 41.0002 181.141 37.3454 181.141 32.3075C181.141 27.3356 177.761 23.7466 173.192 23.7466C168.654 23.7466 165.243 27.3686 165.243 32.4063C165.243 37.4111 168.623 41.0001 173.192 41.0001M156.324 40.6381H161.988C161.425 39.4198 161.237 37.082 161.237 35.1722V26.8088H164.868V24.1088H161.206C161.175 23.3186 161.143 22.5283 161.143 21.7381C161.143 20.1575 161.8 19.4002 163.084 19.4002C163.741 19.4002 164.523 19.5977 165.212 19.96L164.836 16.7991C164.085 16.5357 163.115 16.3711 162.239 16.3711C158.984 16.3711 157.013 18.5443 157.013 22.1991V24.1089H154.352L153.758 26.8089H157.013V35.1723C157.013 37.0821 156.856 39.4197 156.324 40.6381ZM149.658 40.9672C150.879 40.9672 152.162 40.6051 153.007 40.177L153.226 37.5429C152.725 37.7734 152.005 38.0697 151.317 38.0697C150.128 38.0697 149.439 37.4111 149.439 36.0611V26.8088H152.788L153.382 24.1088H149.439V19.6638L145.277 20.5857V24.1089H142.992L143.117 26.8089H145.277V36.5223C145.277 39.387 146.81 40.9674 149.658 40.9674M131.476 40.6381H137.109C136.545 39.4198 136.358 37.082 136.358 35.1722V30.2661C137.328 28.5209 138.549 27.4674 140.207 27.4674C140.958 27.4674 141.74 27.5991 142.241 27.7966L141.991 23.9441C141.709 23.8124 141.177 23.7136 140.645 23.7136C138.955 23.7136 137.265 25.1295 136.358 28.2904V23.9441L131.382 24.7343C132.039 25.9856 132.164 28.2904 132.164 30.0356V35.1722C132.164 37.082 132.008 39.4197 131.476 40.6381ZM119.114 36.1929C119.114 35.1063 119.74 34.2502 121.242 33.954L124.528 33.2295V36.0941C123.715 37.1477 122.463 38.1027 121.149 38.1027C119.865 38.1027 119.114 37.3454 119.114 36.1929ZM119.552 40.9672C121.649 40.9672 123.464 39.5513 124.528 37.7404C124.56 38.7611 124.685 39.9794 124.904 40.6379H129.473C128.91 39.6172 128.691 37.8063 128.691 36.4563V29.9368C128.691 26.0515 126.531 23.7466 122.275 23.7466C120.335 23.7466 118.3 24.2406 116.579 25.1625L116.141 28.4552C118.3 27.1381 119.771 26.6772 121.336 26.6772C123.339 26.6772 124.528 27.665 124.528 29.904V30.9247L120.335 31.6491C116.736 32.2747 115.077 33.954 115.077 36.5552C115.077 39.1565 116.892 40.9674 119.552 40.9674M94.2973 40.6381H100.4C99.774 39.354 99.6176 36.3247 99.6176 34.2504V30.4968H108.255V34.2504C108.255 36.3247 108.067 39.354 107.441 40.6381H113.575C112.949 39.354 112.762 36.3247 112.762 34.2504V23.9773C112.762 21.903 112.949 18.8737 113.575 17.5896H107.441C108.067 18.8737 108.255 21.903 108.255 23.9773V27.2371H99.6176V23.9773C99.6176 21.903 99.774 18.8737 100.4 17.5896H94.2973C94.8921 18.8737 95.1111 21.903 95.1111 23.9773V34.2504C95.1111 36.3247 94.8919 39.354 94.2973 40.6381ZM80.9659 26.6113C82.6559 26.6113 83.9078 27.8625 84.2206 30.4966H77.7738C78.0867 28.0931 79.2135 26.6113 80.9659 26.6113ZM81.8422 40.9672C83.7201 40.9672 85.7854 40.3745 87.0373 39.4526L87.4129 36.3575C85.9106 37.477 84.2207 38.0697 82.5622 38.0697C79.8706 38.0697 78.0867 36.3575 77.7426 33.1308H88.1954C88.3206 27.3027 85.3786 23.7466 80.9347 23.7466C76.4595 23.7466 73.4864 27.5661 73.4864 32.3734C73.4864 37.4111 76.8038 40.9672 81.8422 40.9672ZM56.5241 40.6381H62.0636C61.5628 39.4856 61.4065 37.1149 61.4065 35.304V28.6527C62.2513 27.5991 63.2529 26.8418 64.4733 26.8418C65.8816 26.8418 66.9769 27.8625 66.9769 29.8052V35.304C66.9769 37.1149 66.8205 39.4856 66.3197 40.6381H71.8904C71.3584 39.4198 71.1707 37.082 71.1707 35.1722V29.2125C71.1707 25.7882 69.2617 23.7466 66.3824 23.7466C64.2229 23.7466 62.5329 24.9979 61.4065 26.9075V16.7332L56.4303 17.5234C57.0877 18.7417 57.2126 21.0466 57.2126 22.8247V35.1722C57.2126 37.082 57.0562 39.4197 56.5241 40.6381ZM42.7856 40.6381H49.0135C48.3875 39.354 48.1683 36.3247 48.1683 34.2504V20.7834H49.1387C51.298 20.7834 53.3634 21.0139 55.3663 22.0675L54.6779 17.5895H36.8394L36.1509 22.0675C38.1537 21.0139 40.3445 20.7834 42.5039 20.7834H43.6618V34.2504C43.6618 36.3247 43.4426 39.354 42.7855 40.6381" fill="black"/>
<path d="M29.1674 38.5496L28.9972 37.5468C28.9121 36.5726 29.139 35.6559 29.5646 35.0256C30.5857 33.4784 31.8338 32.5691 31.8338 29.2094C31.8338 26.2297 29.6212 24.1096 26.9265 24.1096C26.3106 24.1096 25.888 24.0818 25.1682 23.7505C25.164 23.7562 25.1649 23.7549 25.1607 23.7607C26.2181 24.9429 26.274 27.2634 26.274 27.5764H26.2531C25.5439 25.3416 24.0898 23.7085 21.707 22.5626C21.8204 23.6513 21.4912 25.0552 21.4061 25.3991H21.3948C21.3948 25.3705 21.3948 22.1902 19.0404 20.7576L18.3879 20.3565C17.9057 20.07 17.7922 19.8694 17.622 19.1246L16.7994 15.4859H14.8441C14.8428 15.479 14.8429 15.4804 14.8416 15.4736L17.1966 14.4259C17.6788 14.2254 18.0476 13.9675 18.1327 13.5663C18.0193 13.6523 17.8207 13.7669 17.4802 13.7669C17.0831 13.7669 16.7143 13.6237 16.4874 13.2798H18.0476C18.303 13.2798 18.5015 13.0793 18.5015 12.8501V12.2509C18.5015 12.1085 18.3872 11.993 18.2462 11.993H16.8891C16.7734 11.993 16.6795 12.0878 16.6795 12.2046V12.2349C16.6795 12.2938 16.7179 12.3706 16.7649 12.4055L16.9261 12.5252C16.9799 12.5651 17.0116 12.6284 17.0116 12.6958C17.0116 12.8127 16.9177 12.9075 16.802 12.9075H16.0334V12.2086C16.0334 11.8935 16.2887 11.6643 16.5723 11.6643H18.0375C18.0375 11.6643 18.0378 11.6512 18.0375 11.6511C17.7819 11.5042 17.3382 11.3603 17.3382 11.3603C17.6785 11.1311 17.9339 10.6726 18.019 9.98501C18.019 9.98501 17.064 10.1544 17.0545 10.157C16.8258 10.2169 16.5263 10.2472 16.3253 10.5077L15.8053 9.94301C16.3561 9.79313 17.6707 9.43661 17.7588 9.41226C18.6467 9.17169 19.6011 8.78033 20.2985 8.33053C22.0275 7.21562 22.853 5.57514 23.0619 4.23032L22.5907 3.7475C22.3982 4.90653 21.8445 5.86958 21.0664 6.65429C21.1518 6.38359 21.2059 6.10285 21.2258 5.81967C21.2362 5.65488 21.2381 5.48993 21.2327 5.32559C21.548 4.76974 21.859 3.79406 21.852 3.01026L21.3386 2.5171C21.3648 2.99824 21.1988 3.59868 21.0033 3.92355C20.6807 2.70852 19.7147 1.16132 18.2746 0L17.8936 0.384823C18.4034 0.91755 19.2777 1.87999 19.6337 2.59501C18.4166 2.21992 17.1315 2.08739 16.2148 2.08039L15.6686 2.63198C17.4375 2.69209 19.2426 3.2837 20.1482 3.73076C20.3265 4.24614 20.4126 4.80671 20.4126 5.21725C20.4126 6.42239 20.0338 7.36718 18.7049 8.06348C18.9707 7.44402 19.0913 6.74605 19.1401 6.07059L18.6427 5.56723C18.6306 6.14865 18.1499 7.83508 17.445 8.49289C17.3165 8.52241 16.5319 8.70029 16.2423 8.76602C16.9198 7.51858 17.453 5.78802 17.5491 4.46373L17.0462 3.9549C16.9754 5.10389 16.0176 7.47628 15.0362 8.84804C14.8619 9.074 14.6868 9.2671 14.5157 9.41698C14.5083 9.41105 16.0716 11.0736 16.0716 11.0736H15.239C14.7567 11.0736 14.4731 11.1022 14.1611 11.4747L13.9908 11.6752C13.7923 11.9618 13.4176 12.1909 13.0929 12.1909C12.554 12.1909 12.2145 11.7259 12.1753 11.4459H13.622L13.9057 11.1308V11.0734C13.3509 11.0734 13.3334 10.4718 12.686 10.4718C12.4023 10.4718 12.1187 10.5864 11.9201 10.7869V10.2139C12.1755 10.0133 12.6577 9.84137 13.3383 9.84137H14.1609L13.707 9.3829C13.707 9.3829 12.5474 9.08237 12.4454 9.05514C12.4781 8.95197 12.7971 7.91451 12.7971 6.90703C12.7971 5.4315 12.357 3.98305 11.7282 2.66257L11.2746 3.12363C11.5237 3.82312 11.913 5.08913 11.913 6.47839C11.913 7.24301 11.7536 7.99942 11.4746 8.70881C10.3432 7.85243 8.9884 5.98948 8.83729 3.26012L8.30443 3.79832C8.3415 5.92771 9.30311 7.74652 9.77511 8.34377C9.12157 8.16969 7.27261 7.6852 6.55882 7.49926C6.19108 7.18154 5.48301 6.17497 5.24844 5.01107L4.77494 5.48932C4.84499 6.05126 5.09975 6.76491 5.30283 7.17697C5.07414 7.11778 4.8462 7.05372 4.61992 6.98388C4.10393 6.48797 3.65996 5.92862 3.31722 5.30322L3.32295 5.3049C3.81347 3.24368 6.0689 1.76921 7.44119 1.47614L6.98969 1.02011C5.32573 1.46001 3.65604 2.57249 2.82986 4.16778C2.60072 3.46599 2.47628 2.72891 2.42566 1.99046C2.38935 1.42639 2.38996 0.856684 2.39538 0.290329L1.82154 0.869922C1.81281 1.0825 1.80407 1.29522 1.80196 1.50916C1.77665 3.96753 2.37112 5.35374 2.97313 6.32729C1.69801 5.76885 0.631537 4.55914 0.500619 3.03233L0 3.53797C0.107114 5.13311 1.47082 6.38679 2.36886 6.91373C3.34148 7.48434 4.40825 7.85319 5.48934 8.13972C6.9356 8.56197 9.17958 9.21202 10.899 9.71279V10.7437C10.8917 10.7448 10.8939 10.7445 10.8866 10.7457C10.7268 10.2603 10.1777 10.0689 9.73594 10.013L7.69354 9.78385C7.8353 11.2737 8.79978 12.2765 10.3033 12.477C9.67929 14.4539 8.97002 17.3762 8.97002 19.3819C8.97002 20.4706 9.16858 21.6453 9.36714 22.1896C9.59402 22.8487 9.65082 23.6221 9.5089 24.4817C9.42378 24.9688 9.25355 25.7996 9.14011 26.43C8.99834 27.2322 8.91789 28.2111 9.28187 29.2377C10.2418 31.9453 11.3809 31.4726 11.5512 33.0196L12.09 37.8902L7.26779 37.3745L6.72891 40.5834H36.6269L36.6837 39.4087L29.1667 38.5491L29.1674 38.5496ZM14.1333 33.1345L15.7501 33.593L14.2468 36.6872L14.1333 33.1345ZM18.1898 37.3749L17.9913 38.5496L15.6652 38.2916L18.5301 34.4524L19.8634 34.8535C20.4591 35.054 21.3385 35.226 22.3596 35.226H23.0404C23.5226 36.8018 24.2885 37.2315 24.8558 38.0911L18.1898 37.3749Z" fill="black"/>
</g>
<defs>
<clipPath id="clip0_1_43">
<rect width="210" height="41" fill="white"/>
</clipPath>
</defs>
</svg>
