<svg version="1.1" id="Layer_1" xmlns:x="ns_extend;" xmlns:i="ns_ai;" xmlns:graph="ns_graphs;" xmlns="http://www.w3.org/2000/svg" xmlns:xlink="http://www.w3.org/1999/xlink" x="0px" y="0px" viewBox="0 0 610.6 100" style="enable-background:new 0 0 610.6 100;" xml:space="preserve">
 <style type="text/css">
  .st0{fill:#4D4D4F;}
 </style>
 <metadata>
  <sfw xmlns="ns_sfw;">
   <slices>
   </slices>
   <sliceSourceBounds bottomLeftOrigin="true" height="100" width="610.6" x="-604.7" y="-224.1">
   </sliceSourceBounds>
  </sfw>
 </metadata>
 <g>
  <path class="st0" d="M362.9,16.3h15.4v35.1c0,4.6,0.4,7.8,1.2,9.8c0.9,2,2.4,3.6,4.7,4.8c1.9,1,4,1.5,6.2,1.5c4,0,7.2-1.3,9.6-3.9
		c1.7-1.9,2.6-4.2,2.6-6.8c0-3.2-1.2-5.8-3.7-7.9c-2.4-2-5.3-3-8.8-3c-2.4,0-5.3,0.6-8.7,1.8V34.3c3.8-0.9,7-1.3,9.4-1.3
		c4.4,0,8.5,0.8,12.3,2.5c3.8,1.7,7,4,9.5,7.1c3.6,4.3,5.5,9,5.5,14.2c0,6.3-2.5,11.7-7.5,16.4c-5.3,5-12.1,7.4-20.3,7.4
		c-4.4,0-8.6-0.8-12.5-2.5c-3.9-1.6-7.1-3.9-9.6-6.9c-3.5-4.2-5.3-9.8-5.3-16.9V16.3z">
  </path>
  <path class="st0" d="M113.4,16.3h16.9v37.6c0,3.3,0.3,5.6,1,7c0.9,2,2.4,3.5,4.5,4.5c1.6,0.7,3.4,1.1,5.3,1.1
		c3.5,0,6.2-1.1,8.2-3.2c1.1-1.2,1.9-2.6,2.1-4.2c0.3-1.5,0.4-3.2,0.4-5.3V16.3h16.9v37.6c0,6.1-1,10.7-2.9,14
		c-2.6,4.3-6.4,7.6-11.4,10c-4.2,2-8.6,3-13.5,3c-8.2,0-15-2.6-20.5-7.9c-3.1-2.9-5.1-5.9-6-9.1c-0.8-2.7-1.2-6-1.2-10V16.3z">
  </path>
  <path class="st0" d="M176.6,80.7V16.3h22.6c5.9,0,10.4,0.5,13.6,1.5c5.6,1.8,9.9,4.8,13.1,9.3c2.8,3.9,4.1,8.1,4.1,12.5
		c0,3.9-1.1,7.5-3.2,11c-2.7,4.3-6.6,7.6-11.6,9.7c-4,1.7-7.9,2.6-11.9,2.6c-1.4,0-3.6-0.2-6.6-0.6V47.8c2.2,0.4,4,0.5,5.4,0.5
		c3.5,0,6.2-0.9,8.2-2.7c1.8-1.7,2.7-3.7,2.7-6c0-1.7-0.5-3.3-1.4-4.6c-0.9-1.4-2.2-2.4-3.8-3.2c-2.2-1-5.1-1.5-8.6-1.5h-5.6v50.3
		H176.6z">
  </path>
  <path class="st0" d="M237.8,80.7V16.3h22.7c5.9,0,10.4,0.5,13.6,1.5c5.6,1.8,9.9,4.8,13.1,9.3c2.8,3.9,4.2,8.1,4.2,12.5
		c0,3.9-1.1,7.5-3.2,11c-2.7,4.3-6.6,7.6-11.6,9.7c-4,1.7-7.9,2.6-11.9,2.6c-1.4,0-3.6-0.2-6.6-0.6V47.8c2.2,0.4,4,0.5,5.4,0.5
		c3.5,0,6.2-0.9,8.2-2.7c1.8-1.7,2.7-3.7,2.7-6c0-1.7-0.5-3.3-1.4-4.6c-1-1.4-2.2-2.4-3.8-3.2c-2.2-1-5.1-1.5-8.7-1.5h-5.6v50.3
		H237.8z">
  </path>
  <path class="st0" d="M354.4,80.7h-16.9V63.2h-21.6v17.6h-16.9V42.1c0-5.5,1.1-10,3.3-13.3c2.8-4.3,6.7-7.6,11.9-9.9
		c4.1-1.8,8.2-2.7,12.5-2.7c4.3,0,8.5,0.9,12.5,2.7c5.2,2.2,9.2,5.5,11.9,9.9c2.2,3.4,3.3,7.8,3.3,13.3V80.7z M337.4,49.8v-7.3
		c0-3.6-0.6-6.3-1.9-8c-2-2.7-5-4-8.9-4c-3.9,0-6.8,1.3-8.8,4c-0.8,1.1-1.4,2.2-1.6,3.4c-0.2,1.3-0.3,2.8-0.3,4.6v7.3H337.4z">
  </path>
  <path class="st0" d="M480.2,80.2h-15.4V62.3c0-4.6-0.4-7.9-1.2-9.9c-0.9-2-2.4-3.6-4.8-4.9c-1.9-1-3.9-1.5-6.2-1.5
		c-4,0-7.2,1.3-9.6,4c-1.7,1.9-2.6,4.2-2.6,6.9c0,3.2,1.2,5.9,3.7,7.9c2.4,2,5.4,3,8.9,3c2,0,4.9-0.6,8.7-1.7v13.8
		c-4.1,0.8-7.4,1.1-9.7,1.1c-4.3,0-8.3-0.9-12.1-2.5c-3.8-1.7-7-4.1-9.5-7.1C426.8,67,425,62.2,425,57c0-6.3,2.5-11.8,7.5-16.5
		c5.3-5,12.1-7.5,20.3-7.5c4.4,0,8.6,0.8,12.5,2.5c3.9,1.6,7.1,4,9.6,6.9c3.6,4.2,5.3,9.9,5.3,17V80.2z">
  </path>
  <path class="st0" d="M488,16.3h15.4v35.1c0,4.6,0.4,7.8,1.2,9.8c0.9,2,2.4,3.6,4.7,4.8c1.9,1,4,1.5,6.2,1.5c4,0,7.2-1.3,9.6-3.9
		c1.7-1.9,2.6-4.2,2.6-6.8c0-3.2-1.2-5.8-3.7-7.9c-2.4-2-5.3-3-8.8-3c-2.4,0-5.3,0.6-8.7,1.8V34.3c3.8-0.9,7-1.3,9.4-1.3
		c4.4,0,8.5,0.8,12.3,2.5c3.8,1.7,7,4,9.6,7.1c3.6,4.3,5.4,9,5.4,14.2c0,6.3-2.5,11.7-7.5,16.4c-5.3,5-12.1,7.4-20.3,7.4
		c-4.4,0-8.6-0.8-12.5-2.5c-3.9-1.6-7.1-3.9-9.6-6.9c-3.6-4.2-5.3-9.8-5.3-16.9V16.3z">
  </path>
  <path class="st0" d="M598,33.4v36.7c0,6.7-0.4,11.1-1.1,13.3c-1.6,5.2-5,9.3-10.1,12.4c-4.5,2.7-10.7,4.1-18.3,4.1
		c-3.9,0-8.3-0.4-13.2-1.1V85.6c6.2,1.2,10.6,1.7,13.1,1.7c5.6,0,9.6-1.4,12-4.2c1.2-1.4,1.9-3.5,2.2-6.2c-4.4,2.4-8.7,3.5-12.8,3.5
		c-3,0-5.8-0.6-8.5-1.7c-2.6-1.2-4.8-2.8-6.5-4.8c-1.7-2.1-2.9-4.5-3.4-7.1c-0.4-1.7-0.5-4.1-0.5-7.4V33.2h15.4v25.7
		c0,3.3,0.6,5.5,1.7,6.7c1.4,1.5,3.3,2.2,6,2.2c2.8,0,5-0.9,6.7-2.8c1.3-1.5,2-3.7,2-6.6v-25H598z">
  </path>
  <path class="st0" d="M606.8,35.4h-0.4v1.2h0.4c0.5,0,0.7-0.2,0.7-0.6C607.6,35.6,607.3,35.4,606.8,35.4 M608.1,39.2l-1.2-1.8h-0.5
		v1.8h-0.9v-4.5h1.4c0.7,0,1.5,0.5,1.5,1.4c0,0.5-0.3,0.9-0.7,1.1l1.1,1.5L608.1,39.2z M606.9,34c-1.7,0-2.9,1.2-2.9,2.9
		c0,1.7,1.2,2.9,2.9,2.9c1.6,0,2.9-1.2,2.9-2.9C609.8,35.1,608.6,34,606.9,34 M606.9,40.6c-2.1,0-3.7-1.5-3.7-3.7
		c0-2.2,1.6-3.7,3.7-3.7c2.1,0,3.7,1.5,3.7,3.7C610.6,39,609,40.6,606.9,40.6">
  </path>
  <path class="st0" d="M35.9,50.4c-9,2.1-21,6.5-30.2,15.8c-8.1,8.1-7,18.3,0,25.2c7,7,17.2,8.1,25.2,0C40.7,81.6,45,69.9,47,61.2
		c-2.7-0.3-5.4-1.5-7.5-3.7C37.4,55.6,36.2,53,35.9,50.4">
  </path>
  <path class="st0" d="M61.2,46.6c9-2.1,21-6.5,30.2-15.7c8.1-8.1,7-18.3,0-25.2c-7-7-17.2-8.1-25.2,0C56.3,15.4,52,27.1,50.1,35.8
		c2.8,0.3,5.4,1.6,7.5,3.6C59.6,41.5,60.8,44,61.2,46.6">
  </path>
  <path class="st0" d="M50.4,61.2c2.1,9,6.5,20.9,15.8,30.2c8.1,8.1,18.3,7,25.2,0c7-7,8.1-17.2,0-25.2C81.6,56.4,69.9,52,61.2,50.1
		c-0.3,2.7-1.5,5.4-3.7,7.5C55.5,59.6,53,60.8,50.4,61.2">
  </path>
  <path class="st0" d="M5.6,30.9C15.4,40.7,27.1,45,35.8,47c0.3-2.7,1.6-5.4,3.7-7.5c2-2,4.5-3.2,7.2-3.6c-2.1-9-6.5-21-15.8-30.2
		c-8.1-8.1-18.3-7-25.2,0C-1.3,12.6-2.4,22.8,5.6,30.9">
  </path>
 </g>
</svg>